<!-- SVG Sprite -->
<svg width="0" height="0" class="hidden">
  <symbol id="Icon-Turntable" xmlns="http://www.w3.org/2000/svg" viewBox="0 0 74.05 74.22">
    <path d="m12.13,74.22c.15-.02.29-.04.44-.04,14.5,0,29,0,43.5,0,2.03,0,4.06,0,6.1,0,.17,0,.33.03.5.04H12.13Z" />
    <path
      d="m36.86.02c8.8,0,17.6-.05,26.4.02,3.71.03,6.64,1.76,8.79,4.77,1.33,1.87,1.98,3.97,1.98,6.27,0,17.09,0,34.19,0,51.28,0,1.97-.29,3.85-1.22,5.6-1.82,3.42-4.67,5.43-8.49,5.99-1.12.17-2.29.09-3.43.09-16.18,0-32.37,0-48.55,0-1.26,0-2.53.02-3.77-.28-4.45-1.06-7.85-4.79-8.47-9.32-.07-.52-.1-1.05-.1-1.58C0,45.64.01,28.42,0,11.19,0,6,3.57,1.45,8.63.29c.71-.16,1.46-.26,2.19-.26,5.81-.02,11.62-.01,17.43-.02,2.87,0,5.74,0,8.61,0Zm.16,2.31s0-.01,0-.02c-8.68,0-17.36,0-26.05,0-.3,0-.6,0-.9.04-3.54.56-5.97,2.51-7.27,5.85-.46,1.19-.53,2.44-.52,3.7.01,8.51,0,17.02,0,25.54,0,8.32,0,16.65,0,24.97,0,.81.06,1.64.22,2.43.73,3.5,3.79,6.36,7.32,6.8,1.24.15,2.5.13,3.76.14,10.95.01,21.91,0,32.86,0,5.44,0,10.88,0,16.32-.02,1.69,0,3.28-.4,4.71-1.31,2.31-1.47,3.75-3.54,4.15-6.27.13-.91.12-1.85.12-2.77,0-16.59,0-33.17,0-49.76,0-.76-.06-1.54-.2-2.29-.66-3.45-3.55-6.31-7.02-6.9-.92-.16-1.88-.13-2.83-.13-8.23,0-16.47,0-24.7,0Z" />
    <path fill="currentColor"
      d="m37.02,2.33c8.23,0,16.47,0,24.7,0,.94,0,1.9-.03,2.83.13,3.47.6,6.36,3.45,7.02,6.9.14.75.2,1.52.2,2.29.01,16.59,0,33.17,0,49.76,0,.92,0,1.86-.12,2.77-.4,2.72-1.84,4.79-4.15,6.27-1.43.91-3.02,1.31-4.71,1.31-5.44.01-10.88.02-16.32.02-10.95,0-21.91,0-32.86,0-1.25,0-2.52.02-3.76-.14-3.53-.44-6.59-3.3-7.32-6.8-.16-.79-.22-1.62-.22-2.43-.02-8.32,0-16.65,0-24.97,0-8.51,0-17.02,0-25.54,0-1.27.06-2.51.52-3.7,1.3-3.34,3.73-5.29,7.27-5.85.29-.05.6-.04.9-.04,8.68,0,17.36,0,26.05,0,0,0,0,.01,0,.02Zm-.03,68.36c6.44,0,12.88,0,19.32,0,1.13,0,2.28,0,3.4-.12,3.48-.38,6.28-2.01,8.42-4.75,1.79-2.29,2.56-4.94,2.56-7.83,0-13.98,0-27.97,0-41.95,0-.68-.04-1.36-.14-2.03-.42-2.85-1.66-5.29-3.78-7.28-1.75-1.64-3.81-2.68-6.17-3.14-1.24-.24-2.5-.22-3.75-.22-13.29,0-26.57,0-39.86,0-.95,0-1.9,0-2.83.12-3.55.48-6.38,2.19-8.48,5.09-1.63,2.26-2.32,4.81-2.32,7.58,0,13.33,0,26.65,0,39.98,0,.9,0,1.79.04,2.69.11,2.69,1.01,5.1,2.7,7.2,2.01,2.48,4.59,4.02,7.75,4.47,1.25.18,2.54.17,3.82.18,6.44.02,12.88,0,19.32,0Z" />
    <path
      d="m36.99,70.69c-6.44,0-12.88,0-19.32,0-1.27,0-2.56,0-3.82-.18-3.16-.46-5.75-1.99-7.75-4.47-1.69-2.09-2.59-4.5-2.7-7.2-.04-.9-.04-1.79-.04-2.69,0-13.33,0-26.65,0-39.98,0-2.77.68-5.32,2.32-7.58,2.1-2.9,4.93-4.61,8.48-5.09.93-.13,1.89-.12,2.83-.12,13.29,0,26.57,0,39.86,0,1.25,0,2.51-.02,3.75.22,2.35.46,4.41,1.5,6.17,3.14,2.12,1.98,3.35,4.42,3.78,7.28.1.67.14,1.35.14,2.03,0,13.98,0,27.97,0,41.95,0,2.89-.77,5.54-2.56,7.83-2.14,2.74-4.94,4.38-8.42,4.75-1.13.12-2.27.11-3.4.12-6.44,0-12.88,0-19.32,0Zm31.07-33.62h0c0-7.15,0-14.29,0-21.44,0-.67-.07-1.36-.22-2.01-.96-4.41-5.03-7.67-9.72-7.65-9.86.04-19.72.01-29.57.01-4.37,0-8.73-.04-13.1.02-2.71.03-5,1.14-6.85,3.12-1.83,1.96-2.64,4.31-2.64,6.97,0,13.56,0,27.11,0,40.67,0,.66-.02,1.32.02,1.97.17,2.85,1.32,5.22,3.51,7.07,1.92,1.61,4.15,2.3,6.65,2.3,13.93-.02,27.87-.01,41.8,0,2.79,0,5.22-.87,7.21-2.85,1.92-1.91,2.9-4.22,2.9-6.94,0-7.08,0-14.15,0-21.23Z" />
    <path fill="#ffffff"
      d="m68.05,37.06c0,7.08,0,14.15,0,21.23,0,2.72-.98,5.03-2.9,6.94-1.99,1.98-4.42,2.85-7.21,2.85-13.93-.01-27.87-.02-41.8,0-2.5,0-4.73-.68-6.65-2.3-2.19-1.84-3.34-4.22-3.51-7.07-.04-.66-.02-1.32-.02-1.97,0-13.56,0-27.11,0-40.67,0-2.66.81-5.02,2.64-6.97,1.85-1.98,4.14-3.08,6.85-3.12,4.36-.06,8.73-.02,13.1-.02,9.86,0,19.72.03,29.57-.01,4.69-.02,8.76,3.24,9.72,7.65.14.66.22,1.34.22,2.01.02,7.15,0,14.29,0,21.44h0Zm-13.74-13.18c-.08-.06-.1-.06-.11-.08-2.52-4.13-5.95-7.3-10.27-9.49-3.87-1.96-7.98-2.85-12.32-2.7-2.87.1-5.65.64-8.33,1.69-3.34,1.31-6.29,3.23-8.82,5.79-4.03,4.07-6.42,8.93-7.2,14.59-.49,3.56-.22,7.06.8,10.5,1.53,5.2,4.44,9.51,8.71,12.84,5.86,4.57,12.52,6.21,19.86,5.1,2.87-.44,5.57-1.4,8.11-2.81,4.7-2.62,8.25-6.35,10.62-11.17,1.9-3.86,2.71-7.97,2.52-12.27-.13-2.99-.77-5.87-1.93-8.63-.1-.24-.12-.44-.01-.68.78-1.84,1.55-3.68,2.3-5.53.12-.29.26-.4.58-.39,1.49.05,2.76-.47,3.79-1.57,1.59-1.7,1.72-4.44.26-6.25-.13-.17-.17-.3-.07-.51.4-.88.78-1.77,1.16-2.65.3-.71.08-1.25-.62-1.56-.56-.25-1.13-.49-1.7-.73-.77-.33-1.25-.15-1.59.62-.39.89-.79,1.78-1.16,2.68-.08.18-.18.26-.37.28-.67.07-1.3.28-1.89.61-3,1.72-3.27,5.73-.81,7.89.22.19.24.34.14.58-.49,1.15-.97,2.31-1.45,3.47-.06.13-.13.25-.21.4Zm11.04,24.86c.25,0,.45.01.64,0,.48-.03.84-.26,1.01-.71.4-1.04-.17-1.85-1.27-1.85-.03,0-.06,0-.09,0-.24.05-.31-.06-.3-.3.02-.59.01-1.18.01-1.76,0-.56-.24-.81-.79-.81-.29,0-.58,0-.87,0-.66,0-.94.28-.94.95,0,.48,0,.96,0,1.43,0,.48-.01.48-.52.49-.81,0-1.17.37-1.17,1.18,0,.13,0,.26,0,.39.03.59.39.95.98,1,.13,0,.26.02.39,0,.24-.03.3.05.3.29,0,3.99,0,7.97,0,11.96,0,.13,0,.26.03.39.08.45.31.66.77.68.33.01.66.01.99.01.59,0,.84-.24.84-.83,0-3.94,0-7.87,0-11.81,0-.22,0-.43,0-.69Zm-46.42,15.05c.07-1.33-1.04-2.15-2.11-2.13-1.19.02-2.04.88-2.07,2.05-.03,1.32.99,2.19,2.11,2.19,1.2,0,2.15-1.08,2.07-2.11Zm-10.15-4.93c0,1.34.92,2.15,2.11,2.2,1.14.05,2.12-.94,2.12-2.1,0-1.16-.93-2.13-2.06-2.14-1.21,0-2.17.89-2.18,2.03Z" />
    <path
      d="m54.32,23.88c.08-.14.15-.27.21-.4.49-1.15.96-2.31,1.45-3.47.1-.24.08-.39-.14-.58-2.46-2.17-2.19-6.18.81-7.89.59-.34,1.22-.54,1.89-.61.19-.02.29-.1.37-.28.38-.9.77-1.79,1.16-2.68.34-.76.82-.95,1.59-.62.57.24,1.13.49,1.7.73.7.31.92.85.62,1.56-.38.89-.76,1.77-1.16,2.65-.09.21-.06.34.07.51,1.45,1.82,1.33,4.56-.26,6.25-1.03,1.1-2.3,1.62-3.79,1.57-.32-.01-.46.1-.58.39-.76,1.85-1.53,3.69-2.3,5.53-.1.24-.09.44.01.68,1.15,2.76,1.79,5.64,1.93,8.63.19,4.3-.63,8.41-2.52,12.27-2.37,4.82-5.91,8.55-10.62,11.17-2.54,1.41-5.24,2.37-8.11,2.81-7.33,1.11-13.99-.53-19.86-5.1-4.27-3.33-7.18-7.64-8.71-12.84-1.01-3.44-1.28-6.94-.8-10.5.78-5.66,3.17-10.52,7.2-14.59,2.53-2.56,5.48-4.48,8.82-5.79,2.67-1.05,5.46-1.59,8.33-1.69,4.34-.15,8.45.74,12.32,2.7,4.31,2.19,7.74,5.35,10.27,9.49,0,.02.03.02.11.08Zm-13.15,13.16c0-4.79-3.88-8.71-8.63-8.71-4.8,0-8.73,3.9-8.73,8.69,0,4.76,3.92,8.7,8.66,8.69,4.82-.01,8.7-3.88,8.7-8.67Zm18.28-24.79c-4.91,11.74-9.81,23.44-14.71,35.15-.24-.1-.43-.19-.62-.27-.04.06-.07.09-.09.14-.6,1.44-1.19,2.89-1.8,4.33-.08.2-.04.28.15.36.91.37,1.82.75,2.73,1.14.17.07.27.05.34-.14.18-.46.4-.91.56-1.38.09-.27.22-.29.44-.2.52.22,1.05.43,1.57.65.37.15.45.12.58-.3-.12-.06-.23-.14-.36-.19-.52-.23-1.03-.47-1.56-.67-.27-.1-.29-.22-.18-.47.24-.5.44-1.02.66-1.53.16-.37.16-.38-.22-.53-.19-.08-.27-.15-.17-.37.26-.58.5-1.17.74-1.76,2.25-5.39,4.51-10.77,6.76-16.16,1.65-3.95,3.29-7.89,4.94-11.84.68-1.62,1.36-3.25,2.04-4.87.06-.15.06-.24-.1-.31-.55-.24-1.11-.49-1.72-.77Zm-27.26,43.43c.46,0,.92.02,1.37,0,.49-.03.97-.11,1.45-.17.15-.02.33-.09.25-.28-.04-.1-.22-.21-.33-.2-.35.01-.69.08-1.04.11-2.6.19-5.15-.06-7.63-.9-5-1.68-8.72-4.88-11.15-9.56-.46-.9-.79-1.86-1.18-2.8-.06-.16-.09-.33-.33-.29-.33.06-.26.25-.19.46,1.31,3.96,3.59,7.24,6.94,9.74,3.5,2.61,7.46,3.9,11.83,3.89Zm-5-37.09c4.5-1.23,8.9-1.02,13.17.88,4.28,1.9,7.41,5.01,9.53,9.16.48-.17.51-.21.37-.49-2.46-4.74-6.2-8.04-11.25-9.79-3.78-1.31-7.63-1.37-11.5-.4-.38.1-.39.12-.32.64Zm5.36,33.75s.1,0,.15,0c1.03.03,2.05-.09,3.06-.28.18-.03.36-.07.31-.34-.05-.25-.22-.21-.39-.18-.53.08-1.06.19-1.59.24-1.98.16-3.94.04-5.85-.57-5.33-1.68-8.82-5.21-10.53-10.52-.06-.18-.11-.36-.19-.53-.03-.07-.17-.16-.22-.14-.08.03-.17.14-.19.23-.02.14,0,.3.04.44.88,3.22,2.63,5.89,5.19,8.02,2.95,2.45,6.37,3.64,10.21,3.64Zm-5.11-30.3c.23-.04.47-.06.69-.13,2.5-.78,5.05-.96,7.61-.41,4.61.98,8.1,3.53,10.47,7.59.28.48.5.99.75,1.49.09.17.21.22.39.15.18-.07.15-.21.11-.35-.03-.09-.06-.17-.1-.25-1.01-2.23-2.43-4.15-4.31-5.72-2.96-2.47-6.39-3.69-10.22-3.75-1.74-.03-3.45.26-5.11.79-.3.09-.39.23-.28.59Zm28.97-3.05c.2-.49.39-.94.56-1.41.03-.07-.04-.19-.09-.26-1.11-1.63-.24-3.78,1.69-4.18.16-.03.32-.19.41-.33.22-.33.32-.68-.07-.98-.02-.01-.03-.03-.03-.05-.07-.17-.2-.19-.37-.17-1.06.15-1.94.63-2.64,1.44-.86.98-1.1,2.15-.94,3.4.13,1.02.65,1.84,1.48,2.54Zm7.11-9.96c-.07-.09-.14-.23-.24-.28-.69-.32-1.4-.62-2.1-.92-.19-.08-.35-.02-.44.18-.44,1.02-.9,2.04-1.33,3.06-.09.21-.08.44.19.55.64.28,1.27.57,1.91.83.39.16.51.1.68-.28.42-.94.83-1.89,1.24-2.84.04-.08.06-.17.1-.3Zm-4.78,10.86c.39,0,.72.05,1.03,0,3.08-.52,4.51-4.15,2.61-6.63-.05-.07-.16-.16-.23-.15-.34.04-.73.01-.79.5-.01.1-.1.18-.1.28,0,.16-.03.34.04.46.96,1.67.19,3.52-1.67,4.02-.1.03-.25.07-.28.14-.21.44-.4.9-.6,1.39Zm-31.52,6c.23-.07.48-.13.71-.22,2.09-.82,4.25-1.12,6.47-.74,3.56.62,6.34,2.45,8.36,5.44.57.85.99,1.77,1.33,2.73.08.22.22.23.39.19.22-.05.15-.22.12-.36-.02-.09-.05-.17-.08-.25-1.07-2.9-2.94-5.16-5.6-6.72-2.29-1.34-4.78-1.87-7.43-1.68-1.38.1-2.71.44-3.99.95-.28.11-.44.26-.28.65Zm5.75,22.97c.28,0,.56,0,.84,0,1-.02,1.98-.21,2.93-.51.19-.06.28-.19.21-.35-.04-.08-.2-.15-.31-.16-.12-.01-.25.05-.38.08-1.61.45-3.25.6-4.91.34-4.4-.7-7.57-3.07-9.49-7.08-.36-.76-.56-1.59-.84-2.39-.03-.09-.15-.15-.23-.22-.09.1-.2.2-.27.32-.03.04.01.13.03.2.41,1.74,1.14,3.33,2.24,4.74,2.58,3.33,5.98,4.99,10.19,5.02Z" />
    <path
      d="m65.36,48.74c0,.26,0,.48,0,.69,0,3.94,0,7.87,0,11.81,0,.59-.24.83-.84.83-.33,0-.66,0-.99-.01-.45-.02-.69-.23-.77-.68-.02-.13-.03-.26-.03-.39,0-3.99-.01-7.97,0-11.96,0-.24-.07-.33-.3-.29-.13.02-.26,0-.39,0-.59-.04-.95-.41-.98-1,0-.13,0-.26,0-.39,0-.81.36-1.17,1.17-1.18.5,0,.51,0,.52-.49,0-.48,0-.96,0-1.43,0-.67.28-.95.94-.95.29,0,.58,0,.87,0,.55,0,.79.25.79.81,0,.59,0,1.18-.01,1.76,0,.23.06.34.3.3.03,0,.06,0,.09,0,1.1,0,1.67.81,1.27,1.85-.17.45-.53.69-1.01.71-.2.01-.4,0-.64,0Zm-1.91,0c0,.12,0,.2,0,.28,0,3.87,0,7.73-.01,11.6,0,.75,0,.75.76.75q.46,0,.46-.46c0-3.14,0-6.28,0-9.42,0-.84,0-1.67-.02-2.51,0-.08-.1-.22-.17-.23-.33-.02-.65-.01-1.02-.01Zm.61-1.86h0c-.54,0-1.08,0-1.61,0-.7,0-.7,0-.69.72,0,.28.12.42.38.42,1.29,0,2.59.01,3.88,0,.22,0,.38-.11.36-.38,0-.08,0-.16,0-.24,0-.48-.04-.52-.53-.53-.6,0-1.2,0-1.79,0Zm.6-.71c0-.68,0-1.32,0-1.97,0-.06-.13-.17-.21-.18-.24-.03-.48,0-.72-.03-.21-.01-.29.07-.29.27,0,.57,0,1.14.02,1.7,0,.07.1.18.16.18.34.02.67,0,1.04,0Z" />
    <path
      d="m18.94,63.79c.08,1.03-.86,2.11-2.07,2.11-1.12,0-2.14-.86-2.11-2.19.03-1.18.88-2.03,2.07-2.05,1.07-.02,2.17.8,2.11,2.13Zm-.34,0c.11-.88-.79-1.76-1.69-1.77-.98,0-1.76.77-1.81,1.73-.05.97.83,1.79,1.74,1.79.94,0,1.83-.74,1.76-1.75Z" />
    <path
      d="m8.79,58.86c0-1.15.97-2.04,2.18-2.03,1.12,0,2.06.98,2.06,2.14,0,1.16-.98,2.14-2.12,2.1-1.19-.05-2.11-.86-2.11-2.2Zm.35.12c.01.93.85,1.75,1.78,1.74.99-.01,1.79-.85,1.77-1.84-.01-.93-.87-1.73-1.84-1.71-.92.02-1.73.87-1.71,1.81Z" />
    <path fill="currentColor"
      d="m41.16,37.04c0,4.79-3.88,8.66-8.7,8.67-4.74.01-8.67-3.93-8.66-8.69,0-4.79,3.93-8.7,8.73-8.69,4.75,0,8.64,3.93,8.63,8.71Zm-8.93-3.79h0c-1.25,0-2.49,0-3.74,0-.13,0-.26,0-.39,0-.19.01-.32.13-.29.31.02.13.14.26.24.36.04.04.15.03.23.03,2.6,0,5.2,0,7.8,0,.1,0,.23.02.29-.03.11-.09.23-.22.26-.35.04-.19-.11-.28-.28-.31-.1-.02-.2-.01-.3-.01-1.28,0-2.55,0-3.83,0Zm.24,6.93h0c1.33,0,2.67,0,4,0,.26,0,.4-.09.41-.35,0-.26-.16-.34-.38-.36-.09,0-.18,0-.27,0-2.49,0-4.98,0-7.47,0-.14,0-.28.01-.42.02-.21.02-.28.16-.28.35,0,.28.19.33.43.33,1.32,0,2.65,0,3.97,0Zm1.37-3.16c0-.71-.66-1.38-1.35-1.37-.74,0-1.34.61-1.35,1.36-.01.74.63,1.37,1.37,1.37.69,0,1.32-.65,1.33-1.36Zm-1.26-6.58h0c-.68,0-1.35,0-2.03,0-.23,0-.44.07-.44.34,0,.26.2.34.43.37.05,0,.1,0,.15,0,1.3,0,2.59,0,3.89,0,.11,0,.23,0,.32-.06.1-.06.22-.18.22-.28,0-.1-.09-.24-.18-.31-.1-.06-.24-.07-.37-.08-.66,0-1.31,0-1.97,0Zm-.33,12.68c.7,0,1.39,0,2.09,0,.3,0,.48-.29.3-.53-.08-.1-.26-.18-.4-.18-1.32-.01-2.65,0-3.97,0-.09,0-.18.01-.27.02-.23.03-.29.19-.26.39.04.25.22.3.44.3.69,0,1.37,0,2.06,0Z" />
    <path fill="currentColor"
      d="m59.45,12.25c.61.27,1.16.52,1.72.77.16.07.16.16.1.31-.68,1.62-1.36,3.25-2.04,4.87-1.65,3.95-3.29,7.89-4.94,11.84-2.25,5.39-4.5,10.77-6.76,16.16-.25.59-.48,1.18-.74,1.76-.1.22-.02.3.17.37.38.15.38.16.22.53-.22.51-.42,1.03-.66,1.53-.12.25-.09.37.18.47.53.2,1.04.44,1.56.67.12.06.24.13.36.19-.13.41-.21.45-.58.3-.52-.22-1.05-.43-1.57-.65-.22-.09-.35-.07-.44.2-.16.47-.38.92-.56,1.38-.07.19-.17.21-.34.14-.91-.38-1.82-.76-2.73-1.14-.19-.08-.23-.16-.15-.36.6-1.44,1.2-2.88,1.8-4.33.02-.04.05-.08.09-.14.2.09.39.17.62.27,4.9-11.71,9.79-23.41,14.71-35.15Z" />
    <path fill="#ffffff"
      d="m32.18,55.68c-4.37,0-8.33-1.28-11.83-3.89-3.35-2.5-5.64-5.77-6.94-9.74-.07-.21-.14-.4.19-.46.25-.04.27.13.33.29.39.94.71,1.9,1.18,2.8,2.43,4.68,6.15,7.87,11.15,9.56,2.48.83,5.03,1.09,7.63.9.35-.03.69-.1,1.04-.11.11,0,.29.1.33.2.08.19-.09.26-.25.28-.48.06-.97.14-1.45.17-.46.03-.92,0-1.37,0Z" />
    <path fill="#ffffff"
      d="m27.18,18.6c-.07-.52-.06-.54.32-.64,3.87-.97,7.72-.91,11.5.4,5.05,1.75,8.78,5.05,11.25,9.79.15.28.12.32-.37.49-2.12-4.15-5.25-7.26-9.53-9.16-4.27-1.9-8.67-2.11-13.17-.88Z" />
    <path fill="#ffffff"
      d="m32.55,52.35c-3.84,0-7.26-1.19-10.21-3.64-2.56-2.12-4.31-4.8-5.19-8.02-.04-.14-.06-.3-.04-.44.01-.09.1-.19.19-.23.05-.02.18.07.22.14.08.17.13.35.19.53,1.71,5.31,5.2,8.83,10.53,10.52,1.91.6,3.87.73,5.85.57.53-.04,1.06-.15,1.59-.24.17-.03.34-.07.39.18.05.26-.13.3-.31.34-1.01.2-2.03.32-3.06.28-.05,0-.1,0-.15,0Z" />
    <path fill="#ffffff"
      d="m27.43,22.05c-.11-.36-.02-.5.28-.59,1.66-.53,3.38-.82,5.11-.79,3.83.06,7.26,1.27,10.22,3.75,1.88,1.57,3.3,3.49,4.31,5.72.04.08.07.17.1.25.04.14.07.28-.11.35-.18.07-.31.02-.39-.15-.25-.5-.47-1.01-.75-1.49-2.38-4.06-5.87-6.62-10.47-7.59-2.56-.54-5.11-.37-7.61.41-.22.07-.46.09-.69.13Z" />
    <path fill="#ffffff"
      d="m56.4,19c-.83-.7-1.35-1.52-1.48-2.54-.16-1.25.07-2.42.94-3.4.71-.8,1.58-1.28,2.64-1.44.17-.02.29,0,.37.17,0,.02.02.04.03.05.39.3.3.65.07.98-.1.14-.26.29-.41.33-1.92.4-2.8,2.55-1.69,4.18.05.08.11.19.09.26-.17.46-.36.92-.56,1.41Z" />
    <path fill="#808080"
      d="m63.51,9.04c-.04.13-.06.22-.1.3-.41.95-.82,1.9-1.24,2.84-.17.38-.29.44-.68.28-.64-.26-1.28-.55-1.91-.83-.26-.12-.28-.35-.19-.55.43-1.02.89-2.04,1.33-3.06.09-.21.25-.26.44-.18.7.3,1.41.6,2.1.92.11.05.17.2.24.28Z" />
    <path fill="#ffffff"
      d="m58.73,19.9c.21-.49.39-.94.6-1.39.04-.08.18-.12.28-.14,1.86-.5,2.63-2.35,1.67-4.02-.07-.12-.05-.31-.04-.46,0-.09.09-.18.1-.28.06-.49.46-.46.79-.5.07,0,.18.08.23.15,1.9,2.48.47,6.12-2.61,6.63-.32.05-.65,0-1.03,0Z" />
    <path fill="#ffffff"
      d="m27.21,25.9c-.16-.39,0-.54.28-.65,1.29-.51,2.61-.85,3.99-.95,2.64-.19,5.14.33,7.43,1.68,2.67,1.56,4.53,3.82,5.6,6.72.03.08.07.17.08.25.03.14.1.31-.12.36-.17.04-.32.03-.39-.19-.33-.96-.75-1.88-1.33-2.73-2.02-3-4.8-4.83-8.36-5.44-2.23-.39-4.38-.08-6.47.74-.23.09-.48.15-.71.22Z" />
    <path fill="#ffffff"
      d="m32.96,48.86c-4.21-.03-7.61-1.69-10.19-5.02-1.09-1.41-1.82-3.01-2.24-4.74-.02-.07-.06-.16-.03-.2.07-.12.18-.21.27-.32.08.07.2.13.23.22.29.79.48,1.63.84,2.39,1.92,4.01,5.1,6.38,9.49,7.08,1.66.26,3.3.12,4.91-.34.12-.03.25-.09.38-.08.11,0,.28.07.31.16.07.16-.02.29-.21.35-.96.3-1.93.49-2.93.51-.28,0-.56,0-.84,0Z" />
    <path fill="#808080"
      d="m63.45,48.74c.37,0,.7-.01,1.02.01.06,0,.16.15.17.23.02.84.02,1.67.02,2.51,0,3.14,0,6.28,0,9.42q0,.45-.46.46c-.76,0-.76,0-.76-.75,0-3.87,0-7.73.01-11.6,0-.08,0-.16,0-.28Z" />
    <path fill="currentColor"
      d="m64.05,46.88c.6,0,1.2,0,1.79,0,.49,0,.53.05.53.53,0,.08,0,.16,0,.24.02.26-.14.37-.36.38-1.29,0-2.59,0-3.88,0-.26,0-.38-.14-.38-.42-.01-.72-.02-.72.69-.72.54,0,1.08,0,1.61,0h0Z" />
    <path fill="#808080"
      d="m64.66,46.17c-.37,0-.71,0-1.04,0-.06,0-.16-.12-.16-.18-.02-.57-.02-1.14-.02-1.7,0-.2.08-.29.29-.27.24.02.48,0,.72.03.08,0,.21.11.21.18.02.64,0,1.29,0,1.97Z" />
    <path fill="currentColor"
      d="m18.6,63.79c.08,1.01-.82,1.75-1.76,1.75-.91,0-1.79-.82-1.74-1.79.05-.96.83-1.74,1.81-1.73.9,0,1.79.89,1.69,1.77Z" />
    <path fill="currentColor"
      d="m9.14,58.98c-.01-.93.8-1.79,1.71-1.81.97-.02,1.82.77,1.84,1.71.01.99-.79,1.82-1.77,1.84-.92.01-1.76-.81-1.78-1.74Z" />
    <path
      d="m32.23,33.26c1.28,0,2.55,0,3.83,0,.1,0,.2,0,.3.01.18.03.33.13.28.31-.03.13-.15.26-.26.35-.06.05-.19.03-.29.03-2.6,0-5.2,0-7.8,0-.08,0-.19.02-.23-.03-.1-.1-.22-.23-.24-.36-.03-.17.1-.29.29-.31.13-.01.26,0,.39,0,1.25,0,2.49,0,3.74,0h0Z" />
    <path
      d="m32.47,40.19c-1.32,0-2.65,0-3.97,0-.24,0-.42-.05-.43-.33,0-.19.06-.33.28-.35.14-.01.28-.02.42-.02,2.49,0,4.98,0,7.47,0,.09,0,.18,0,.27,0,.23.01.39.1.38.36,0,.26-.15.35-.41.35-1.33,0-2.67,0-4,0h0Z" />
    <path
      d="m33.84,37.03c0,.7-.64,1.35-1.33,1.36-.74,0-1.38-.63-1.37-1.37.01-.75.61-1.35,1.35-1.36.7,0,1.36.66,1.35,1.37Z" />
    <path
      d="m32.59,30.44c.66,0,1.32,0,1.97,0,.13,0,.27.01.37.08.09.06.19.2.18.31,0,.1-.12.21-.22.28-.08.05-.21.06-.32.06-1.3,0-2.59,0-3.89,0-.05,0-.1,0-.15,0-.22-.03-.43-.11-.43-.37,0-.27.21-.34.44-.34.68,0,1.35,0,2.03,0h0Z" />
    <path
      d="m32.26,43.12c-.69,0-1.37,0-2.06,0-.22,0-.4-.05-.44-.3-.03-.2.03-.36.26-.39.09-.01.18-.02.27-.02,1.32,0,2.65,0,3.97,0,.14,0,.32.08.4.18.17.24,0,.53-.3.53-.7,0-1.39,0-2.09,0Z" />
  </symbol>
</svg>
<!-- SVG References -->
<svg class="icon">
  <use xlink:href="#Icon-Turntable"></use>
</svg>