<!-- SVG Sprite -->
<svg width="0" height="0" class="hidden">
  <symbol id="Icon-Chat-Bot" xmlns="http://www.w3.org/2000/svg" viewBox="0 0 95.47 72">
    <g id="Chat">
      <path
        d="m76.3,46.18c0,1.01-.28,2.5-.63,3.26-2.83,6.06-8.75,9.86-16.04,10.3l-2.22.13-.42-.68c-3.16-5.11-13.13-5.76-17.45-1.13-1.24,1.33-1.67,2.33-1.68,3.91,0,.93.12,1.53.46,2.24.55,1.18,2.22,2.79,3.62,3.5,3.48,1.76,8.66,1.69,11.99-.18,1.25-.7,2.77-2.16,3.29-3.17l.3-.58,2.34-.13c3.51-.19,6.6-.97,9.33-2.35.56-.28,1.02-.47,1.02-.42s-.53.72-1.19,1.47c-3.96,4.61-10.3,8.21-16.26,9.25-2.2.38-5.98.52-7.89.29-13.35-1.63-23.83-12.33-25.82-26.36-1.16-8.15.91-16.78,5.62-23.47,1.5-2.13,4.79-5.44,6.9-6.94,3.37-2.4,7.65-4.22,11.56-4.93,2.49-.45,7.06-.45,9.55,0,3.91.71,8.18,2.53,11.56,4.93,2.09,1.49,5.38,4.8,6.93,6.99,1.49,2.1,3.5,6.14,4.31,8.63.63,1.95.96,4.81.99,6.24" />
      <path id="Headphones" fill="currentColor"
        d="m77.22,38.24s0-1.4,0-3.4c0-3.9.18-4.49,1.66-5.35.48-.28.88-.64.88-.79,0-.4-1.84-3.85-3.07-5.73-3.07-4.71-7.86-9.15-12.91-11.94-.7-.39-2.23-1.09-3.41-1.56-15.21-6.09-32.13-.54-41.47,13.6-1.15,1.74-3.25,5.78-3.25,6.25,0,.13.39.48.88.76.55.32,1.02.8,1.27,1.28.38.74.39,1.15.39,14.62s-.01,13.88-.39,14.61c-.8,1.57-2.25,2.09-4.92,1.77-4.34-.53-7.74-2.62-10.1-6.22C.8,53.14,0,50.09,0,45.78c0-2.41.08-3.11.51-4.76.96-3.67,2.96-6.8,5.52-8.68,1.14-.83,1.22-.95,1.72-2.44C11.82,17.65,20.5,8.08,31.96,3.18,39.41,0,48.11-.83,56.28.86c11.24,2.33,21.27,9.59,27.49,19.91,1.91,3.16,2.73,5.01,4.1,9.22.23.71.52,1.04,1.49,1.75,4.85,3.54,7.13,10.74,5.67,17.93-1.45,7.15-6.92,12.03-13.61,12.15-1.96.04-2.84-.35-3.63-1.6l-.56-.88v-7.32" />
      <path fill="#ffffff"
        d="m66.48,44.01c1.56-.25,2.56-.76,3.64-1.84,1.96-1.96,2.83-5.18,2.21-8.13-.51-2.42-2.09-4.6-4.03-5.55l-1.11-.55H28.99l-1.01.46c-1.15.52-2.72,2.07-3.35,3.3-2.56,5.02.07,11.61,4.92,12.32,1.59.23,35.49.22,36.93,0h0Z" />
      <path id="L-Eye" fill="currentColor"
        d="m33.38,40.14c-1.81-.55-2.94-1.84-3.23-3.7-.28-1.78,1.01-3.95,2.75-4.61,1.24-.47,2.75-.31,3.93.42,1.77,1.09,2.51,3.55,1.65,5.45-.84,1.85-3.24,3-5.09,2.44h0Z" />
      <path id="R-Eye" fill="currentColor"
        d="m60.08,40.14c-3.37-1.03-4.39-5.05-1.87-7.38,1.03-.95,1.99-1.28,3.35-1.17,2.95.24,4.83,3.43,3.61,6.11-.84,1.85-3.24,3-5.09,2.44h0Z" />
    </g>
    <line stroke="currentColor" x1="30.08" y1="27.94" x2="66.08" y2="27.94" />
  </symbol>
</svg>
<!-- SVG References -->
<svg class="icon">
  <use xlink:href="#Icon-Chat-Bot"></use>
</svg>