<!-- SVG Sprite -->
<svg width="0" height="0" class="hidden">
  <symbol id="Icon-Helmet" xmlns="http://www.w3.org/2000/svg" viewBox="0 0 80.32 72">
    <path
      d="m74.65,41.59c-6.35.13-12.68.65-18.97,1.55-5.1.72-10.15,1.78-15.11,3.18.48.8.79,1.7.9,2.63,4.41-1.25,8.89-2.21,13.42-2.88l2.8,9.3h-13.38c-1.5,0-2.96-.48-4.15-1.38-.57.76-1.29,1.4-2.12,1.87l.46.35c1.67,1.27,3.72,1.95,5.82,1.94h14.21l2.96,9.9c.71,2.33,2.86,3.93,5.3,3.95h7.99c3.06,0,5.54-2.48,5.54-5.54v-19.33c0-1.49-.6-2.92-1.68-3.96-1.05-1.06-2.5-1.63-3.99-1.58Zm-7.86,27.64c-1.22-.01-2.29-.81-2.64-1.98l-6.47-21.57c1.97-.26,3.96-.48,6.01-.68l3.24,24.23h-.14Zm5.22,0h-2.3l-3.27-24.45c1.83-.14,3.7-.24,5.57-.32v24.77Zm5.54-2.77c0,1.53-1.24,2.76-2.77,2.77v-24.87c.73-.01,1.43.27,1.94.79.53.52.83,1.23.83,1.98v19.33Z" />
    <path d="m44.32,51.77v-.73c-.87.24-1.72.47-2.55.71l.07.06c.71.52,1.56.8,2.44.82.03-.28.04-.56.04-.84Z" />
    <path
      d="m1.39,59.54c3.99.09,7.97-.31,11.85-1.2.51-.14,1.04-.21,1.56-.21,1.67,0,3.28.68,4.46,1.87l3.16,3.14c6.25,6.27,16.4,6.28,22.66.03.69-.69,1.32-1.44,1.87-2.24h-2.64c-.29,0-.58-.01-.86-.04-5.02,5.35-13.42,5.62-18.77.6-.1-.1-.21-.2-.31-.3l-3.14-3.16c-2.28-2.27-5.58-3.17-8.7-2.37-3.66.83-7.4,1.2-11.15,1.11-.76,0-1.38.62-1.38,1.38s.62,1.38,1.38,1.38Z" />
    <path d="m49.86,49.79c-.94.18-1.87.37-2.77.58v1.4c0,.29-.01.57-.03.84h2.77c.01-.28.03-.57.03-.84v-1.98Z" />
    <path
      d="m56.78,31.85c-5.35,0-9.69,4.34-9.69,9.69v.33c.91-.21,1.84-.39,2.78-.57.12-3.73,3.18-6.69,6.91-6.69h9.69c.76,0,1.38-.62,1.38-1.38s-.62-1.38-1.38-1.38h-9.69Z" />
    <path fill="currentColor"
      d="m4.14,53.94c2.59-.05,5.17-.37,7.7-.97,4.07-1.05,8.39.13,11.35,3.1l3.14,3.14c3.71,3.71,9.59,4.13,13.78.97-1.17-.41-2.28-1-3.27-1.76l-2.2-1.66h-.01c-3.82,0-6.92-3.1-6.92-6.92s3.1-6.92,6.92-6.92c1.35,0,2.67.4,3.78,1.16l.22-.07c1.81-.55,3.71-1.07,5.69-1.54v-.94c.01-6.88,5.58-12.45,12.46-12.46h6.9C62.95,12.41,49.52,0,31.86,0S0,13.96,0,30.46c-.1,4.1.58,8.18,2.01,12.02,1.34,3.68,2.06,7.55,2.12,11.46Zm2.26-36.64C11.18,9.18,19.56,3.83,28.95,2.91c.76-.06,1.43.49,1.52,1.25.07.76-.49,1.44-1.25,1.51-8.5.83-16.1,5.67-20.44,13.03-.25.43-.71.69-1.2.69-.24,0-.48-.06-.69-.19-.66-.37-.88-1.21-.51-1.86,0,0,0-.01.01-.02Z" />
    <circle cx="34.63" cy="49.85" r="4.15" />
  </symbol>
</svg>
<!-- SVG References -->
<svg class="icon">
  <use xlink:href="#Icon-Helmet"></use>
</svg>