<!-- SVG Sprite -->
<svg width="0" height="0" class="hidden">
  <symbol id="Icon-Locker" xmlns="http://www.w3.org/2000/svg" viewBox="0 0 72 80.08">
    <path id="Background"
      d="m69.49,0H2.5C1.12,0,0,1.12,0,2.5h0v75.07c0,1.38,1.12,2.5,2.5,2.5h67c1.38,0,2.5-1.12,2.5-2.5V2.5C72,1.12,70.88,0,69.5,0c0,0,0,0-.01,0Z" />
    <path id="White_BG" data-name="White BG" fill="#ffffff"
      d="m67.21,72.64c0,1.47-1.19,2.67-2.67,2.67h-26.94c-.56,0-1.11-.18-1.56-.52-.45.33-1,.52-1.56.52H7.44c-1.47,0-2.67-1.19-2.67-2.67V7.44c0-1.47,1.19-2.67,2.67-2.67h27c.56,0,1.11.18,1.56.52.45-.33,1-.52,1.56-.52h27c1.47,0,2.67,1.19,2.67,2.67l-.02,65.2Z" />
    <g id="Lockers">
      <path fill="currentColor"
        d="m64.55,6.98h-26.95c-.26,0-.46.21-.46.46v65.2c0,.26.21.46.46.46h27c.26,0,.46-.21.46-.46V7.44c0-.26-.21-.46-.46-.46h-.04Z" />
      <path fill="currentColor"
        d="m34.44,6.98H7.44c-.26,0-.46.21-.46.46h0v65.2c0,.26.21.46.46.46h27c.26,0,.46-.21.46-.46V7.44c0-.26-.21-.46-.46-.46h0Z" />
    </g>
    <g id="Locker_Slats" data-name="Locker Slats">
      <path fill="#ffffff"
        d="m60.5,22.21h-19.09c-.61,0-1.1-.49-1.1-1.1s.49-1.1,1.1-1.1h19.1c.61,0,1.1.49,1.1,1.1s-.49,1.1-1.1,1.1h-.01Z" />
      <path fill="#ffffff"
        d="m60.5,27.83h-19.09c-.61,0-1.1-.49-1.1-1.1s.49-1.1,1.1-1.1h19.1c.61,0,1.1.49,1.1,1.1s-.49,1.1-1.1,1.1h-.01Z" />
      <path fill="#ffffff"
        d="m60.5,16.6h-19.09c-.61,0-1.1-.49-1.1-1.1s.49-1.1,1.1-1.1h19.1c.61,0,1.1.49,1.1,1.1s-.49,1.1-1.1,1.1h-.01Z" />
      <path fill="#ffffff"
        d="m30.52,27.83H11.38c-.61,0-1.1-.49-1.1-1.1s.49-1.1,1.1-1.1h19.1c.61,0,1.1.49,1.1,1.1s-.49,1.1-1.1,1.1h.04Z" />
      <path fill="#ffffff"
        d="m30.52,22.21H11.38c-.61,0-1.1-.49-1.1-1.1s.49-1.1,1.1-1.1h19.1c.61,0,1.1.49,1.1,1.1s-.49,1.1-1.1,1.1h.04Z" />
      <path fill="#ffffff"
        d="m30.52,16.6H11.38c-.61,0-1.1-.49-1.1-1.1s.49-1.1,1.1-1.1h19.1c.61,0,1.1.49,1.1,1.1s-.49,1.1-1.1,1.1h.04Z" />
      <path fill="#ffffff"
        d="m44.57,48.61v-11.45c0-.87.71-1.58,1.58-1.58s1.58.71,1.58,1.58v11.39c0,.87-.71,1.58-1.58,1.58s-1.58-.71-1.58-1.58v.06Z" />
      <path fill="#ffffff"
        d="m14.89,48.61v-11.45c0-.87.7-1.58,1.58-1.58s1.58.7,1.58,1.58h0v11.4c0,.87-.71,1.58-1.58,1.58-.87,0-1.57-.71-1.58-1.58v.06Z" />
    </g>
    <path
      d="m52.89,63.17c-.06.67-.65,1.16-1.31,1.1h-10.84c-.67.06-1.25-.44-1.31-1.1v-7.71c.06-.67.65-1.16,1.31-1.1h10.85c.67-.06,1.25.44,1.31,1.1v7.71Z" />
    <path d="m43.11,48.85c-.28.48-.43,1.03-.43,1.59v2.66h-1.87v-2.66c-.02-1.74.85-3.36,2.3-4.32v2.73Z" />
    <path d="m49.19,48.85v-2.68c1.43.95,2.29,2.55,2.29,4.26v2.66h-1.88v-2.66c.02-.57-.12-1.14-.4-1.64v.06Z" />
    <path
      d="m23.2,63.17c-.06.67-.65,1.16-1.31,1.1h-10.85c-.67.06-1.25-.44-1.31-1.1v-7.71c.06-.67.65-1.16,1.31-1.1h10.85c.67-.06,1.25.44,1.31,1.1v7.71Z" />
    <path
      d="m13.42,48.85c-.28.48-.43,1.03-.43,1.59v2.66h-1.84v-2.66c-.04-1.72.79-3.34,2.2-4.32v2.44c0,.08,0,.15.06.23v.07Z" />
    <path d="m19.5,48.85v-2.68c1.43.95,2.29,2.55,2.29,4.26v2.66h-1.83v-2.66c0-.58-.17-1.15-.47-1.64v.06Z" />
    <path fill="currentColor"
      d="m46.16,56.63c-.95,0-1.72.77-1.72,1.72,0,.77.51,1.44,1.25,1.65v1.9c.04.26.28.44.54.4.2-.03.36-.19.4-.4v-1.9c.91-.26,1.44-1.21,1.18-2.13-.21-.74-.89-1.25-1.65-1.25h.01Z" />
    <path fill="currentColor"
      d="m16.45,56.63c-.95,0-1.72.77-1.72,1.72,0,.77.51,1.44,1.25,1.65v1.9c.04.26.28.44.54.4.2-.03.36-.19.4-.4v-1.9c.91-.26,1.44-1.21,1.18-2.13-.21-.74-.89-1.25-1.65-1.25h.01Z" />
  </symbol>
</svg>
<!-- SVG References -->
<svg class="icon">
  <use xlink:href="#Icon-Locker"></use>
</svg>