<!-- SVG Sprite -->
<svg width="0" height="0" class="hidden">
  <symbol id="Icon-Taxi" xmlns="http://www.w3.org/2000/svg" viewBox="0 0 87.83 72">
    <g id="g490">
      <path
        d="m22.65,61.53v3.19c0,2.89-.03,3.28-.29,4.07-.37,1.11-1.28,2.2-2.29,2.75l-.77.42-3.69.03c-2.03.02-3.88-.03-4.12-.09-1.26-.35-2.42-1.4-3.08-2.78-.3-.63-.32-.86-.39-4.3l-.07-3.63" />
      <path
        d="m82.37,62.46l-.02,2.26c-.04,3.69-.06,3.97-.34,4.58-.43.92-1.34,1.85-2.26,2.3l-.79.39h-4.04c-3.84,0-4.07-.01-4.69-.3-.96-.44-1.91-1.38-2.36-2.34l-.4-.84v-3.03s0-3.03,0-3.03" />
      <path id="Taxi" fill="currentColor"
        d="m8.21,62.19l-.88-.28c-3.51-1.11-6.15-3.87-7.08-7.42-.24-.92-.26-1.34-.26-6.81,0-6.64.02-6.81,1.06-8.9,1.61-3.25,5.12-5.59,8.65-5.77.41-.02.76-.1.79-.17s-.18-.28-.46-.46l-.5-.33H2.68l-.44-.46c-.95-1.02-1.03-1.14-1.33-2.28l-.3-1.15.46-1.22.46-1.22.89.07c.49.04,2.29.11,3.99.15l3.1.08.89,1.04c.49.57.92,1.01.95.98.03-.03.3-.99.59-2.14.7-2.71,1.19-4.27,2.04-6.47,2.28-5.95,5.12-9.88,8.25-11.38,1.42-.68,1.9-.74,5.96-.74h3.7s1.5-2.67,1.5-2.67l1.5-2.67,1.48-.98,1.48-.98,6.21.12,6.21.12,1.49.6,1.49.6,1.66,3.05,1.66,3.05,3.57.05c3.31.05,3.63.07,4.39.33,5.37,1.85,9.48,8.52,11.71,19.02l.4,1.88.94-1.2.94-1.2,1.81-.08c1-.04,2.67-.12,3.71-.16l1.9-.08.4,1.18.4,1.18-.26,1.19c-.24,1.13-.29,1.23-.96,1.98l-.71.8h-3.15c-3.11,0-3.16,0-3.52.29l-.37.29.74.08c1.18.12,2.16.42,3.38,1,3.2,1.55,5.45,4.71,5.8,8.11.05.51.09,3.24.08,6.06-.02,5.1-.02,5.14-.34,6.33-.67,2.49-1.47,3.9-3.22,6.01l-.71.87-1.19,1.01" />
      <path
        d="m58.39,60.23c2.21-.99,2.8-3.87,1.13-5.57-.25-.26-.7-.6-.99-.75l-.53-.28h-25.08l-.52.28c-.83.44-1.27.88-1.64,1.63-.68,1.4-.38,2.97.78,4.04.59.54.96.74,1.68.87.24.05,5.86.08,12.48.07h12.04s.64-.3.64-.3h0Z" />
      <path
        d="m13.99,49.67c1.05-.19,2.14-.73,2.91-1.43,1.14-1.03,1.68-2.21,1.68-3.7,0-1.17-.34-2.14-1.07-3.04-3.05-3.72-9.4-2.32-10.23,2.27-.47,2.58,1.48,5.24,4.29,5.85.99.21,1.49.23,2.42.05h0Z" />
      <path
        d="m77.55,48.07c4.79-2.37,3.62-8.78-1.77-9.7-2.43-.41-5.03.88-6.08,3.02-.38.77-.41.91-.41,2.14s.03,1.38.37,2.07c.52,1.05,1.49,1.99,2.61,2.5,1.16.54,1.27.55,2.88.52,1.3-.03,1.38-.05,2.4-.56h0Z" />
      <polygon
        points="66.06 47.33 66.1 46.29 44.08 46.29 22.07 46.29 22.07 47.36 22.07 48.43 44.05 48.39 66.02 48.36 66.06 47.33" />
      <polygon
        points="65.33 44.22 65.33 43.53 43.89 43.53 22.45 43.53 22.45 44.22 22.45 44.91 43.89 44.91 65.33 44.91 65.33 44.22" />
      <polygon
        points="65.71 41.46 65.71 40.77 44.08 40.77 22.45 40.77 22.45 41.46 22.45 42.15 44.08 42.15 65.71 42.15 65.71 41.46" />
      <path
        d="m72.91,31.85c-.98-6.77-3.18-12.58-6.12-16.09-1.98-2.38-4.49-3.85-7.04-4.12-.34-.04-5-.1-10.35-.14s-9.92-.1-10.16-.12-2.84-.06-5.77-.08l-5.33-.04-1.05.4c-4.48,1.71-7.95,6.49-9.67,13.32-.54,2.16-.8,3.55-1.19,6.55l-.06.47.79.02c.43.01,1.26.03,1.85.04.59.01,9.95.07,20.82.12,10.86.06,19.77.11,19.79.13s3.08.04,6.81.05l6.77.02-.08-.54Z" />
      <polygon
        points="39.75 6.1 39.75 3.66 40.69 3.66 41.63 3.66 41.63 2.97 41.63 2.28 39.13 2.28 36.62 2.28 36.62 2.97 36.62 3.66 37.56 3.66 38.5 3.66 38.5 6.1 38.5 8.55 39.13 8.55 39.75 8.55 39.75 6.1" />
      <path
        d="m42.12,7.57l.32-.91h1.64l.32.91.32.91.93.03.93.03.63-1c.34-.55.66-1,.69-1,.03,0,.34.45.69,1l.63,1h1.22s1.22,0,1.22,0V2.29l-1.27-.04-1.27-.04-.29.47c-.16.26-.44.7-.62.98l-.32.51-.59-.94-.59-.94-.78-.04c-.43-.02-.78-.01-.78.02,0,.03.42.71.94,1.5.52.79.94,1.48.94,1.53s-.29.55-.65,1.1l-.65,1.01-.23-.59c-.12-.33-.57-1.51-.99-2.63l-.77-2.04h-.93l-.67,1.79c-.37.98-.91,2.42-1.2,3.2l-.53,1.42.7-.04.7-.04.32-.91Z" />
      <path id="X_and_I" data-name="X and I" fill="currentColor"
        d="m49.5,6.56l-.82-1.23.77-1.2c.42-.66.81-1.21.85-1.21.04,0,.08,1.09.09,2.44,0,1.34,0,2.45-.03,2.45s-.41-.56-.86-1.23h0Z" />
      <path id="Part_of_A" data-name="Part of A" fill="currentColor"
        d="m43.07,4.94c.09-.37.16-.48.24-.4.03.03.09.21.14.4.07.3.05.34-.19.34s-.27-.05-.19-.34Z" />
    </g>
  </symbol>
</svg>
<!-- SVG References -->
<svg class="icon">
  <use xlink:href="#Icon-Taxi"></use>
</svg>