<!-- SVG Sprite -->
<svg width="0" height="0" class="hidden">
  <symbol id="Icon-Injury" xmlns="http://www.w3.org/2000/svg" viewBox="0 0 73.63 72.02">
    <path
      d="m39.64,0c-.29.03-.59.06-.78.09.64.1,1.39.17,2.12.34,3.44.8,6.41,2.46,8.95,4.92,1.1,1.06,2.07,2.21,2.72,3.61.71,1.53,1.08,3.15,1.22,4.82,0,.07-.01.13-.02.23-.36-.1-.71-.18-1.05-.28-.05-.02-.11-.14-.1-.21.08-.69-.22-1.21-.69-1.68-.77-.76-1.52-1.53-2.29-2.29-.87-.86-1.86-.88-2.75-.04-.52.49-1,1.03-1.5,1.55-.04.04-.08.08-.17.16-.37-.38-.74-.76-1.11-1.14-.22-.22-.42-.45-.65-.66-.73-.68-1.75-.68-2.48,0-.27.26-.54.53-.8.81-.13.14-.26.17-.45.12-4.44-1.17-8.89-2.34-13.33-3.51-.14-.04-.28-.09-.42-.13,1.05-2.28,4.7-6.38,10.11-6.56C35.98.1,35.81.05,35.63,0c1.34,0,2.67,0,4.01,0Z" />
    <path
      d="m48.77,43.55c1.54,1.29,3.4,1.89,5.31,2.51-2.37,2.71-4.73,5.39-7.11,8.11,2.18.71,4.1,1.74,5.59,3.51.26-.39.52-.76.76-1.14,1.94-2.97,3.89-5.95,5.83-8.93.1-.15.19-.26.41-.21,2.13.53,4.29.95,6.36,1.72,1.72.65,3.19,1.66,4.41,3.04.47.54.81,1.16,1.08,1.82.86,2.1,1.37,4.29,1.8,6.51.38,2,.47,4.03.42,6.06-.03,1.12-.22,2.21-.66,3.24-.62,1.47-1.71,2.21-3.33,2.21-7.01-.01-14.02,0-21.02,0-15.12,0-30.24,0-45.37,0-.41,0-.83.04-1.22-.04-1.54-.33-2.38-1.81-1.87-3.3.44-1.26.94-2.5,1.41-3.75,1.22-3.23,2.46-6.45,3.65-9.69,1.13-3.07,3.25-5.08,6.29-6.17,2.04-.73,4.15-1.17,6.26-1.66,2.39-.56,4.79-1.09,7.11-1.93,1.14-.41,2.23-.92,3.21-1.63.12-.09.23-.18.35-.27,2.04,4.99,5.7,7.68,11.12,7.37,4.69-.27,7.68-2.98,9.23-7.4ZM2.45,69.55c.18,0,.3,0,.42,0,7.01,0,14.01,0,21.02,0,7.61,0,15.21.02,22.82.03,1.12,0,2.1-.31,2.91-1.1.29-.29.57-.59.81-.92,1.23-1.68,1.8-3.56,1.46-5.64-.29-1.78-1.32-3.1-2.79-4.08-1.74-1.16-3.7-1.68-5.74-1.98-1.83-.27-3.67-.32-5.51-.31-9.93,0-19.86,0-29.78,0-.26,0-.36.08-.45.31-1.6,4.24-3.2,8.47-4.81,12.71-.12.3-.22.61-.36.99Z" />
    <path id="Face" fill="currentColor"
      d="m40.22,16.28c-.42.56-.46.55-1.02.44-1.61-.33-3.21-.72-4.83-.92-1.78-.22-3.58-.17-5.34.3-.83.22-1.66.49-2.48.74-.18.05-.24.15-.22.35.22,1.97.43,3.93.64,5.9.02.21-.07.24-.23.24-.46,0-.91-.03-1.37,0-.9.07-1.46.54-1.59,1.28-.11.62.03,1.21.24,1.79.38,1.05,1.01,1.97,1.6,2.9,1.29,2.06,2.57,4.14,3.91,6.17,1.14,1.74,2.39,3.4,4.13,4.61,1.42.99,2.97,1.52,4.71,1.57,3.25.1,5.75-1.32,7.76-3.77,1.34-1.62,2.41-3.43,3.5-5.22,1.02-1.67,2.05-3.33,3.04-5.02.52-.88.87-1.84.95-2.87.04-.58-.17-.9-.74-1.01-.34-.07-.69-.06-1.04-.07-.42-.01-.83,0-1.25-.02-.21,0-.31-.09-.24-.33.09-.29.13-.58.22-.87.04-.12.12-.23.21-.32.43-.44.84-.88,1.29-1.29.89-.82.79-2,.01-2.82-.13-.14-.29-.26-.43-.39.02-.03.04-.07.06-.1.34.09.67.19,1.01.28.34.09.67.16,1,.24,0,.77,0,1.54,0,2.31,0,.5-.05,1-.04,1.5,0,.1.1.24.19.28,1.25.49,1.66,1.71,1.52,2.83-.2,1.6-.84,3.04-1.69,4.41-1.36,2.19-2.66,4.41-4.01,6.6-1.12,1.82-2.39,3.52-4.03,4.91-1.64,1.39-3.51,2.22-5.66,2.49-2.15.27-4.19-.07-6.11-1.04-1.56-.79-2.84-1.95-3.95-3.29-1.25-1.5-2.3-3.13-3.33-4.79-1.14-1.84-2.3-3.67-3.43-5.52-.65-1.06-1.1-2.2-1.22-3.44-.13-1.3.39-2.74,1.81-3.37.25-.11.32-.24.3-.52-.07-.9-.11-1.8-.14-2.69-.04-1.32-.1-2.64-.07-3.96.03-1.28.06-2.58.41-3.83.13-.47.16-.5.63-.38,4.01,1.05,8.02,2.11,12.03,3.16.04.01.08.02.12.03.54.11.99.26,1.36.78.42.6,1.02,1.06,1.55,1.58.08.08.18.12.26.18Z" />
    <path
      d="m39.7,13.25c.84-.82,1.64-1.6,2.45-2.39.17-.16.25-.01.34.08.83.83,1.66,1.67,2.49,2.51.1.11.19.23.32.4,1.03-1.06,2-2.06,2.98-3.07.06.04.12.07.16.12.75.75,1.5,1.52,2.26,2.26.16.16.09.23-.03.36-.94.93-1.88,1.87-2.81,2.8,1.03,1.03,2.04,2.04,3.03,3.02-.91.91-1.75,1.76-2.62,2.63-.94-.97-1.92-1.97-2.94-3.02-1.03,1.03-2.04,2.04-3.01,3.02-.86-.85-1.69-1.68-2.53-2.51.99-1.01,2-2.04,3.04-3.1-1.04-1.03-2.05-2.03-3.13-3.1Z" />
    <path
      d="m38.65,38.16c-1.04,0-2.07,0-3.11,0-1.26,0-2.24-.87-2.39-2.11-.15-1.26.59-2.36,1.81-2.65.23-.06.47-.07.71-.08,1.98,0,3.97,0,5.95,0,1.28,0,2.18.62,2.51,1.72.47,1.57-.64,3.1-2.28,3.11-1.07.01-2.13,0-3.2,0Zm.03-1.92c1.05,0,2.11,0,3.16,0,.29,0,.45-.14.48-.42.05-.35-.17-.6-.56-.61-.77,0-1.53,0-2.3,0-1.3,0-2.61,0-3.91,0-.34,0-.58.24-.56.53.01.31.23.5.58.5,1.04,0,2.07,0,3.11,0Z" />
    <path id="Star3" fill="currentColor"
      d="m23.17,7.66c-.58.42-1.08.82-1.63,1.16-.43.27-.62.58-.58,1.11.05.68.01,1.37.01,2.1-.11-.08-.22-.16-.33-.24-.57-.42-1.13-.85-1.72-1.25-.11-.07-.3-.09-.43-.04-.76.25-1.52.52-2.33.8.02-.11.03-.19.05-.27.24-.72.49-1.43.72-2.15.03-.11,0-.28-.07-.37-.43-.59-.88-1.16-1.32-1.74-.06-.08-.12-.17-.22-.32.19,0,.31,0,.42,0,.66,0,1.31,0,1.97.02.29,0,.48-.09.64-.34.38-.6.79-1.17,1.19-1.76.03-.04.07-.06.14-.1.04.11.08.2.11.29.21.68.42,1.35.62,2.03.05.18.14.29.33.34.7.21,1.41.43,2.11.65.08.02.15.05.29.1Z" />
    <path id="Star2" fill="currentColor"
      d="m65.92,11.03c-.03.74-.06,1.46-.1,2.19-.01.23.05.37.23.51.52.38,1.02.76,1.53,1.15.07.05.13.11.23.2-.74.2-1.43.4-2.13.58-.21.05-.32.16-.39.36-.23.69-.47,1.37-.72,2.09-.44-.66-.85-1.27-1.26-1.9-.1-.16-.23-.22-.42-.22-.72.01-1.43,0-2.2,0,.05-.08.07-.15.12-.2.4-.51.8-1.03,1.21-1.52.16-.19.19-.37.11-.6-.2-.61-.38-1.22-.57-1.83-.02-.06-.03-.13-.06-.25.18.07.31.11.44.16.55.21,1.1.4,1.65.62.19.08.31.05.46-.06.56-.41,1.13-.81,1.7-1.22.05-.03.1-.05.15-.07Z" />
    <path id="Star1" fill="currentColor"
      d="m20.81,24.65c-.2-.15-.37-.26-.54-.38-.2-.14-.42-.25-.58-.42-.52-.52-1.07-.55-1.71-.21-.39.21-.82.33-1.29.52.11-.38.2-.71.3-1.04.08-.27.14-.54.25-.8.14-.32.06-.56-.15-.81-.37-.43-.71-.89-1.07-1.33-.03-.04-.05-.1-.11-.19.16,0,.29,0,.41,0,.59-.02,1.18-.03,1.76-.07.12,0,.27-.12.34-.22.37-.54.73-1.09,1.09-1.64,0,0,.02,0,.07-.02.12.35.25.7.38,1.05.14.37.19.84.45,1.09.25.24.71.25,1.08.36.36.1.72.21,1.14.32-.51.39-.95.77-1.44,1.08-.4.26-.48.58-.44,1.01.05.49.06.98.09,1.47,0,.05-.01.11-.03.23Z" />
    <path
      d="m43.83,26.95c.25.27.48.54.73.8.35.36.72.7,1.05,1.06.32.35.33.78.08,1.15-.25.38-.7.54-1.12.39-.13-.05-.26-.14-.37-.24-.77-.76-1.53-1.52-2.28-2.29-.63-.64-.63-1.15,0-1.78.76-.75,1.53-1.49,2.3-2.23.45-.43.97-.43,1.38-.03.39.38.39.94-.03,1.39-.47.5-.97.98-1.45,1.47-.09.09-.18.19-.29.31Z" />
    <path
      d="m32.43,30.36c-.38,0-.73-.23-.87-.57-.16-.4-.1-.77.2-1.08.53-.52,1.07-1.04,1.63-1.54.17-.15.16-.22.01-.37-.51-.52-1.01-1.05-1.5-1.58-.28-.3-.38-.65-.23-1.05.14-.38.43-.59.82-.6.22,0,.51.06.65.2.86.86,1.71,1.73,2.52,2.63.39.43.33.88-.09,1.3-.78.77-1.56,1.55-2.36,2.3-.21.19-.5.29-.75.44-.01-.02-.03-.05-.04-.07Z" />
    <path
      d="m60.86,18.8c-.11.64-.19,1.19-.3,1.73-.06.27.03.46.22.64.41.39.81.79,1.27,1.24-.31.06-.54.1-.77.14-.38.06-.77.1-1.15.18-.11.02-.24.13-.3.23-.23.43-.43.88-.64,1.32-.06.13-.14.25-.24.44-.15-.34-.28-.61-.41-.89-.07-.14-.17-.28-.21-.43-.14-.65-.63-.75-1.18-.78-.37-.02-.73-.09-1.09-.14-.04,0-.08-.04-.12-.06.4-.42.79-.83,1.19-1.22.21-.21.31-.4.23-.71-.12-.53-.19-1.07-.29-1.68.28.15.5.26.72.38.26.13.53.24.76.41.3.22.55.14.82,0,.46-.25.93-.49,1.48-.78Z" />
    <path
      d="m60.68,8.83c-.67.09-1.28.19-1.9.26-.19.02-.28.11-.35.27-.2.46-.41.91-.62,1.36-.05.11-.11.21-.18.35-.3-.59-.59-1.14-.86-1.69-.08-.17-.17-.26-.37-.28-.54-.06-1.08-.15-1.62-.23-.06,0-.12-.04-.13-.04.35-.39.68-.8,1.07-1.15.29-.27.36-.53.28-.9-.11-.5-.18-1.02-.27-1.59.51.27.96.5,1.39.76.35.21.65.21.99,0,.43-.27.89-.48,1.4-.76-.08.51-.12.96-.24,1.38-.15.53-.06.92.39,1.27.36.28.66.65,1.01.99Z" />
    <path
      d="m13.36,12.69c-.06.56-.1,1.05-.18,1.53-.05.3.07.5.28.67.38.32.76.64,1.19,1.01-.56.12-1.06.24-1.56.33-.27.05-.41.16-.5.42-.16.48-.36.95-.57,1.49-.13-.2-.26-.37-.36-.55-.17-.3-.35-.61-.5-.92-.09-.18-.21-.26-.42-.27-.49-.02-.97-.07-1.46-.11-.05,0-.09-.02-.18-.04.36-.4.67-.78,1.02-1.13.2-.21.27-.41.17-.69-.15-.47-.25-.95-.39-1.5.5.22.95.4,1.38.61.29.14.53.11.8-.08.38-.28.8-.5,1.27-.79Z" />
    <path id="Sling" fill="currentColor"
      d="m2.45,69.55c.14-.38.24-.69.36-.99,1.6-4.23,3.21-8.47,4.81-12.71.09-.23.19-.31.45-.31,9.93.01,19.86.02,29.78,0,1.85,0,3.69.04,5.51.31,2.03.3,4,.82,5.74,1.98,1.47.98,2.5,2.3,2.79,4.08.33,2.08-.23,3.96-1.46,5.64-.24.33-.52.63-.81.92-.8.79-1.79,1.11-2.91,1.1-7.61-.02-15.21-.03-22.82-.03-7.01,0-14.01,0-21.02,0-.12,0-.23,0-.42,0Zm24.07-4.96c1.01-.04,1.98-.08,2.96-.1.3,0,.37-.11.36-.38-.02-.63,0-1.26,0-1.89,0-.13,0-.25,0-.41-.13,0-.22,0-.31,0-.89,0-1.77-.01-2.66,0-.23,0-.28-.06-.28-.29.01-.9.01-1.8,0-2.7,0-.09-.09-.25-.15-.26-.82-.02-1.65-.01-2.51-.01-.04,1.09-.07,2.16-.11,3.24-.97.03-1.93.07-2.89.08-.23,0-.32.04-.31.29.02.69.02,1.38,0,2.07,0,.24.06.33.32.33.72-.02,1.43,0,2.15,0,.25,0,.49,0,.75,0,0,1.01,0,1.98,0,2.94,0,.23.07.29.29.29.52-.01,1.04,0,1.55,0,.86,0,.85,0,.83-.87-.02-.78,0-1.55,0-2.34Z" />
    <path class="cls-1"
      d="m38.68,36.24c-1.04,0-2.07,0-3.11,0-.35,0-.57-.18-.58-.5-.01-.29.22-.53.56-.53,1.3,0,2.61,0,3.91,0,.77,0,1.53,0,2.3,0,.39,0,.61.25.56.61-.04.28-.19.42-.48.42-1.05,0-2.11,0-3.16,0Z" />
    <path
      d="m26.52,64.59c0,.79-.01,1.57,0,2.34.02.87.03.87-.83.87-.52,0-1.04-.02-1.55,0-.22,0-.29-.06-.29-.29.01-.97,0-1.94,0-2.94-.26,0-.51,0-.75,0-.72,0-1.44-.01-2.15,0-.26,0-.32-.09-.32-.33.01-.69.01-1.38,0-2.07,0-.25.08-.29.31-.29.96-.01,1.93-.05,2.89-.08.04-1.08.07-2.14.11-3.24.86,0,1.68,0,2.51.01.05,0,.15.17.15.26,0,.9.01,1.8,0,2.7,0,.22.05.29.28.29.89-.01,1.77,0,2.66,0,.09,0,.17,0,.31,0,0,.15,0,.28,0,.41,0,.63-.01,1.26,0,1.89,0,.28-.06.38-.36.38-.97.01-1.95.06-2.96.1Z" />
  </symbol>
</svg>
<!-- SVG References -->
<svg class="icon">
  <use xlink:href="#Icon-Injury"></use>
</svg>