<!-- SVG Sprite -->
<svg width="0" height="0" class="hidden">
  <symbol id="Icon-Message" xmlns="http://www.w3.org/2000/svg" viewBox="0 0 73.75 72">
    <g id="Forum" data-name="Forum">
      <g>
        <path
          d="m69.7,0H11c-2.23,0-4.04,1.81-4.04,4.04v1.65l-5.59,2.76C.53,8.87,0,9.72,0,10.66s.53,1.78,1.37,2.19l5.59,2.76v.86c0,2.23,1.81,4.04,4.04,4.04h58.7c2.23,0,4.04-1.81,4.04-4.04V4.04c0-2.23-1.81-4.04-4.04-4.04Zm2.3,16.48c0,1.27-1.02,2.3-2.3,2.3H11c-1.28,0-2.3-1.03-2.3-2.3v-1.39c0-.34-.2-.64-.49-.78l-6.06-3.01c-.36-.17-.41-.51-.41-.64,0-.14.05-.46.41-.65l6.06-3c.29-.15.49-.45.49-.78v-2.19c0-1.27,1.02-2.3,2.3-2.3h58.7c1.28,0,2.3,1.03,2.3,2.3v12.44h0Z" />
        <path id="Three" fill="currentColor"
          d="m25.34,15.03c0,.49-.39.87-.87.87s-.87-.38-.87-.87c0-1.93-1.57-3.5-3.51-3.5s-3.5,1.57-3.5,3.5c0,.49-.39.87-.87.87s-.87-.38-.87-.87c0-1.97,1.11-3.68,2.74-4.58-.59-.62-.95-1.45-.95-2.38,0-1.9,1.54-3.45,3.45-3.45s3.46,1.54,3.46,3.45c0,.93-.36,1.77-.95,2.38,1.63.89,2.74,2.6,2.74,4.58Z" />
        <path d="m30.64,8.32h34.33c.48,0,.87-.39.87-.87s-.39-.87-.87-.87H30.64c-.48,0-.87.39-.87.87s.39.87.87.87Z" />
        <path d="m30.64,13.94h18.49c.48,0,.87-.39.87-.87s-.39-.87-.87-.87h-18.49c-.48,0-.87.39-.87.87s.39.87.87.87Z" />
        <path id="Two" fill="currentColor"
          d="m72.38,34.2l-5.59-2.76v-1.65c0-2.23-1.81-4.05-4.04-4.05H4.05c-2.23,0-4.05,1.82-4.05,4.05v12.44c0,2.23,1.82,4.04,4.05,4.04h58.7c2.23,0,4.04-1.81,4.04-4.04v-.86l5.59-2.76c.84-.42,1.37-1.27,1.37-2.21,0-.94-.53-1.78-1.37-2.19Zm-29.28,5.48h-18.49c-.48,0-.87-.38-.87-.87s.39-.87.87-.87h18.49c.49,0,.87.39.87.87,0,.49-.38.87-.87.87Zm0-5.62H8.78c-.49,0-.87-.39-.87-.87s.38-.87.87-.87h34.33c.49,0,.87.39.87.87,0,.48-.38.87-.87.87Zm14.92,7.58c-.48,0-.87-.39-.87-.87,0-1.93-1.57-3.5-3.5-3.5s-3.51,1.57-3.51,3.5c0,.48-.39.87-.87.87s-.87-.39-.87-.87c0-1.99,1.11-3.69,2.74-4.58-.59-.63-.96-1.46-.96-2.38,0-1.9,1.56-3.46,3.47-3.46s3.45,1.56,3.45,3.46c0,.92-.36,1.75-.95,2.38,1.63.88,2.74,2.59,2.74,4.58,0,.48-.39.87-.87.87Z" />
        <path
          d="m55.37,33.82c0,.94-.77,1.72-1.71,1.72s-1.73-.78-1.73-1.72.78-1.72,1.73-1.72c.94,0,1.71.77,1.71,1.72Z" />
        <path
          d="m69.7,51.48H11c-2.23,0-4.04,1.81-4.04,4.04v1.65l-5.59,2.76C.53,60.35,0,61.2,0,62.14s.53,1.79,1.37,2.19l5.59,2.78v.85c0,2.23,1.81,4.04,4.04,4.04h58.7c2.23,0,4.04-1.81,4.04-4.04v-12.44c0-2.23-1.81-4.04-4.04-4.04Zm2.3,16.48c0,1.27-1.02,2.3-2.3,2.3H11c-1.28,0-2.3-1.03-2.3-2.3v-1.39c0-.34-.2-.64-.49-.78l-6.06-3.01c-.36-.17-.41-.51-.41-.64,0-.14.05-.46.41-.64l6.06-3.01c.29-.15.49-.45.49-.78v-2.19c0-1.27,1.02-2.3,2.3-2.3h58.7c1.28,0,2.3,1.03,2.3,2.3v12.44h0Z" />
        <path id="One" fill="currentColor"
          d="m25.34,66.51c0,.49-.39.87-.87.87s-.87-.38-.87-.87c0-1.93-1.57-3.5-3.51-3.5s-3.5,1.57-3.5,3.5c0,.49-.39.87-.87.87s-.87-.38-.87-.87c0-1.97,1.11-3.68,2.74-4.58-.59-.62-.95-1.45-.95-2.37,0-1.92,1.54-3.46,3.45-3.46s3.46,1.54,3.46,3.46c0,.92-.36,1.75-.95,2.37,1.63.89,2.74,2.6,2.74,4.58Z" />
        <path d="m64.97,58.06H30.64c-.48,0-.87.39-.87.87s.39.87.87.87h34.33c.48,0,.87-.39.87-.87s-.39-.87-.87-.87Z" />
        <path d="m49.13,63.68h-18.49c-.48,0-.87.39-.87.87s.39.87.87.87h18.49c.48,0,.87-.39.87-.87s-.39-.87-.87-.87Z" />
      </g>
    </g>
  </symbol>
</svg>
<!-- SVG References -->
<svg class="icon">
  <use xlink:href="#Icon-Message"></use>
</svg>