<?xml version="1.0" encoding="UTF-8"?>
<svg width="50px" height="50px" version="1.1" xmlns="http://www.w3.org/2000/svg" xmlns:xlink="http://www.w3.org/1999/xlink">
  <symbol id="Icon-AddDrop" xmlns="http://www.w3.org/2000/svg" viewBox="0 0 72 77.36">
    <defs></defs>
     <g id="Player">
    <path id="Helmet" fill="currentColor" d="m36,0c-4.99,0-8.52,1.81-10.93,4.52-2.39,2.7-3.63,6.37-3.63,10.05,0,2.93.82,4.87,2.06,6.53h1.47l-1.19-6.4v-.13c0-1.17.64-2.21,1.44-2.9.82-.7,1.81-1.17,2.95-1.54.32-.1.64-.2.97-.29v-4.82h13.73v4.82c.33.09.65.19.97.29,1.14.37,2.13.84,2.95,1.54.8.69,1.44,1.72,1.44,2.9v.13l-1.19,6.4h1.47c1.24-1.66,2.06-3.6,2.06-6.53,0-3.68-1.24-7.35-3.63-10.05-2.41-2.7-5.94-4.52-10.93-4.52Z"/>
    <rect id="Hole" x="32.16" y="6.87" width="7.7" height="2.34"/>
    <polygon id="RT-Mask" points="24.25 24.24 25.15 26.91 30.33 26.91 29.69 24.24 24.25 24.24"/>
    <polygon id="T-Mask" points="32.04 24.11 32.69 26.8 39.29 26.8 39.94 24.11 32.04 24.11 32.04 24.11"/>
    <polygon id="LT-Mask" points="42.3 24.11 41.65 26.8 46.87 26.8 47.77 24.11 42.3 24.11"/>
    <path id="Jersey_Top" data-name="Jersey Top" fill="currentColor" d="m22.19,26.1l-4.57.65c-3.77,1.27-6.92,3.18-9.08,5.02-2.09,1.79-3.06,3.68-3.15,4.15l2.38,9.54,9,2.24,4.76-4.76,2.14,2.14-4.86,4.86.4,4.54,5.69-2.28c.74-3,2.01-5.56,3.48-7.6,2.29-3.18,4.91-5.24,7.6-5.24s5.29,2.06,7.6,5.24c1.47,2.04,2.75,4.6,3.48,7.6l5.69,2.28.4-4.54-4.86-4.86,2.14-2.14,4.76,4.76,9.01-2.24,2.39-9.56c-.03-.22-.2-.79-.69-1.49-.52-.79-1.36-1.71-2.46-2.65-2.16-1.84-5.32-3.75-9.09-5.02l-4.57-.65-1.71,5.12-.03.08c-.95,1.88-2.83,3.03-4.96,3.77-2.14.74-4.62,1.09-7.12,1.09s-4.97-.35-7.12-1.09c-2.13-.74-4-1.89-4.96-3.77l-.03-.08-1.71-5.12h0Z"/>
    <path id="RB-Mask" d="m25.63,28.93l.23.68c.53.99,1.94,2.07,4.08,2.81.66.23,1.35.42,2.09.59l-.99-4.08h-5.41Z"/>
    <path id="B-Mask" d="m33.45,28.78l1.05,4.33c.5.02,1.01.04,1.51.04s1.01-.02,1.51-.04l1.05-4.33h-5.13,0Z"/>
    <path id="LB-Mask" d="m40.92,28.78l-.98,4.03c.73-.17,1.42-.36,2.07-.58,2.11-.73,3.51-1.8,4.03-2.78l.23-.67h-5.35,0Z"/>
    <path id="Football" d="m36,42.4c-.72,0-3.21,1.31-5.17,3.99-1.94,2.7-3.53,6.6-3.53,11.29s1.59,8.61,3.53,11.3c1.96,2.68,4.45,3.99,5.17,3.99s3.21-1.31,5.16-4c1.96-2.7,3.55-6.58,3.55-11.29s-1.59-8.59-3.55-11.29c-1.94-2.68-4.45-3.99-5.16-3.99h0Z"/>
    <polygon id="Laces" fill="currentColor" points="34.49 47.6 37.51 47.6 37.51 50.13 39.73 50.13 39.73 53.15 37.51 53.15 37.51 56.16 39.73 56.16 39.73 59.17 37.51 59.17 37.51 62.2 39.73 62.2 39.73 65.22 37.51 65.22 37.51 67.75 34.49 67.75 34.49 65.22 32.25 65.22 32.25 62.2 34.49 62.2 34.49 59.17 32.25 59.17 32.25 56.16 34.49 56.16 34.49 53.15 32.25 53.15 32.25 50.13 34.49 50.13 34.49 47.6"/>
    <path id="Right_Arm" data-name="Right Arm" d="m6.75,48.32c-2.03,1.21-3.71,3.42-4.88,6.04-1.25,2.8-1.88,5.99-1.88,8.42,0,1.02.27,1.64.76,2.16s1.28.95,2.38,1.24c2.22.57,5.59.45,9.15-.2,3.57-.64,7.33-1.79,10.5-3.08.67-.28,1.31-.57,1.91-.85-.27-1.37-.42-2.85-.42-4.39,0-.67.03-1.34.08-1.98l-14.59,5.83-1.62-2.48c1.34-1.34,3.33-3.32,4.93-5.26.8-.95,1.51-1.91,1.99-2.73.13-.22.18-.39.28-.59l-8.6-2.14Z"/>
    <path id="Left_Arm" data-name="Left Arm" d="m65.25,48.32l-8.61,2.14c.1.2.15.37.28.59.49.82,1.19,1.77,1.99,2.73,1.61,1.94,3.6,3.92,4.94,5.26l-1.62,2.48-14.6-5.83c.05.64.08,1.31.08,1.98,0,1.54-.15,3.01-.42,4.39.6.28,1.24.57,1.91.85,3.16,1.29,6.93,2.44,10.5,3.08,3.57.65,6.93.77,9.16.2,1.11-.28,1.89-.72,2.38-1.24.49-.52.75-1.14.75-2.16,0-2.43-.64-5.63-1.88-8.42-1.17-2.63-2.85-4.84-4.87-6.04h0Z"/>
    <path id="Jersey_Bot" data-name="Jersey Bot" fill="currentColor" d="m25.47,65.03c-.49.22-1,.44-1.54.65-1.14.47-2.33.9-3.57,1.32l.94,10.35h29.4l.94-10.35c-1.24-.42-2.43-.85-3.57-1.32-.54-.22-1.05-.44-1.54-.65-.75,2.18-1.77,4.1-2.93,5.69-2.31,3.18-4.91,5.24-7.6,5.24s-5.31-2.06-7.6-5.24c-1.16-1.59-2.18-3.52-2.93-5.69h0Z"/>
    <path id="Plus_Minus" data-name="Plus Minus" d="m22.64,36.53c0,.9-.73,1.63-1.63,1.63h-3.26v3.26c0,.9-.73,1.63-1.62,1.63-.9,0-1.63-.73-1.63-1.62h0v-3.23h-3.26c-.9,0-1.63-.73-1.62-1.63,0-.9.73-1.62,1.62-1.62h3.26v-3.26c0-.9.73-1.63,1.63-1.62.9,0,1.62.73,1.62,1.62v3.26h3.26c.89,0,1.61.71,1.63,1.59Zm38.12-1.63h-9.74c-.9,0-1.63.73-1.62,1.63,0,.9.73,1.62,1.62,1.62h9.74c.9,0,1.63-.73,1.62-1.63,0-.9-.73-1.62-1.62-1.62Z"/>
    <path id="Eyes" class="cls-1" d="m36.18,12.65c-3.16.08-3.81-.74-6.03-.32-.87.16-1.64.45-2.3.79-1.23.63-1.94,1.93-1.78,3.27.09.75.18,1.49.27,2.24.2,1.64,1.64,2.88,3.35,2.88h12.59c1.73,0,3.18-1.27,3.35-2.93.09-.86.18-1.71.27-2.57.15-1.41-.66-2.74-1.99-3.31-.6-.26-1.29-.47-2.04-.58-2.12-.32-2.68.46-5.69.54Z"/>
  </g>
  </symbol>
  
</svg>

