<!-- SVG Sprite -->
<svg width="0" height="0" class="hidden">
  <symbol id="Icon-Touchdown" xmlns="http://www.w3.org/2000/svg" viewBox="0 0 71.96 73.39">
    <path
      d="m49,56.22c-.03.23-.06.38-.06.53,0,5.19,0,10.39.01,15.58,0,.66.04.56-.58.56-1.71,0-3.42,0-5.13.01-.22,0-.27-.06-.27-.27.01-5.81.02-11.62.03-17.43,0-.33,0-.65,0-1.05-.35.13-.63.24-.91.34-.8.3-1.6.62-2.41.91-.37.14-.51.37-.51.77,0,5.43,0,10.86,0,16.3,0,.12,0,.24,0,.39-.13,0-.26.02-.38.02-1.81,0-3.62.01-5.43.02-.23,0-.24-.11-.23-.28.01-.87.02-1.73.02-2.6,0-4.52.01-9.03.01-13.55,0-.21-.02-.42-.05-.62-.04-.26-.19-.47-.44-.56-1.05-.41-2.11-.8-3.16-1.2-.03-.01-.08-.01-.16-.02,0,.17,0,.33,0,.48,0,5.65,0,11.3,0,16.95,0,.38.01.76.02,1.14,0,.17-.05.25-.24.25-1.87,0-3.74-.01-5.61-.02-.06,0-.12-.01-.21-.03v-.36c0-5.42,0-10.84,0-16.27,0-.08,0-.16,0-.24,0-.19-.12-.2-.24-.12-.09.06-.16.15-.22.24-1.02,1.48-2.03,2.96-3.05,4.44-.25.36-.33.75-.34,1.18-.11,2.98-.23,5.95-.35,8.93-.02.43-.02.86-.05,1.28-.07.9-.65,1.47-1.44,1.45-.92-.03-1.5-.59-1.49-1.54,0-1.11.06-2.21.1-3.32.07-2.15.14-4.3.22-6.45.02-.67-.14-1.29-.43-1.9-2.78-5.8-5.53-11.61-8.33-17.4-.82-1.69-1.64-3.37-2.05-5.21-.35-1.58-.67-3.17-.97-4.77-.59-3.12-1.15-6.24-1.73-9.37-.46-2.52-.92-5.03-1.38-7.55-.12-.64-.05-1.25.49-1.73.22-.2.24-.46.18-.74-.44-2.04-.88-4.08-1.32-6.13-.28-1.29-.59-2.58-.83-3.88C-.06,2.61-.07,1.81.44,1.08,1.52-.44,3.87-.33,4.8,1.29c.38.66.46,1.41.64,2.13.13.52.23,1.05.37,1.57.21.78.66,1.42,1.17,2.03.16.19.22.06.3-.07.33-.55.75-.99,1.36-1.2.98-.35,1.91-.22,2.7.46.8.7,1.07,1.62.79,2.63-.37,1.33-.81,2.65-1.23,3.96-.05.16-.05.25.09.35.48.32.71.8.82,1.34.68,3.18,1.35,6.37,2.04,9.55.77,3.58,1.55,7.16,2.34,10.73.18.83.52,1.61.97,2.33,1.62,2.62,3.25,5.23,4.86,7.86.33.53.77.9,1.35,1.13,1.45.57,2.9,1.13,4.34,1.72.79.32,1.42.15,2-.46.82-.87,1.03-1.9.73-3.02-.1-.37-.4-.71-.69-.99-1.49-1.42-2.49-3.13-3.12-5.06-.31-.94-.52-1.92-.77-2.88-.06-.24-.15-.38-.44-.37-.29.01-.58-.02-.87-.06-.89-.13-1.36-.7-1.24-1.61.1-.75.3-1.48.4-2.23.29-2.18.57-4.36.81-6.55.11-1.01.12-2.03.18-3.04.04-.66.36-1.18.9-1.54.57-.39,1.15-.75,1.73-1.12.26-.17.53-.32.83-.51.01.21.03.39.03.58,0,2.77-.02,5.54-.03,8.31,0,.36.01.72.02,1.08,0,.16-.04.25-.23.29-.16.03-.32.11-.48.18-.28.12-.47.32-.52.64-.14.82-.29,1.64-.45,2.52.15-.02.26-.02.37-.05,1.87-.53,3.73-1.09,5.61-1.58,1.55-.41,3.15-.66,4.75-.39,1.14.19,2.26.49,3.36.83,1.57.49,3.13,1.01,4.76,1.28.04,0,.08,0,.16.02-.06-.33-.12-.65-.17-.97-.08-.47-.16-.94-.23-1.41-.04-.31-.18-.53-.43-.72-.12-.1-.24-.29-.24-.44-.01-3.17,0-6.34,0-9.51,0-.05,0-.09.02-.18.13.07.23.12.33.17.48.27.94.58,1.44.8.94.43,1.25,1.17,1.27,2.14.01,1.2.02,2.4.13,3.58.16,1.63.41,3.26.63,4.89.13.93.29,1.85.4,2.78.14,1.2-.35,1.77-1.57,1.86-.57.04-.72.15-.84.72-.27,1.29-.65,2.54-1.16,3.76-.55,1.31-1.39,2.41-2.35,3.44-.29.31-.59.6-.83.94-.87,1.28-.47,3.14.82,3.95.36.23.7.31,1.13.13,1.68-.69,3.36-1.37,5.05-2.03.4-.16.67-.43.88-.77,1.18-1.86,2.37-3.71,3.54-5.58.33-.52.62-1.07.95-1.59.97-1.51,1.51-3.17,1.88-4.91.95-4.49,1.94-8.97,2.91-13.45.35-1.63.66-3.28,1.07-4.9.15-.6.51-1.16.79-1.73.08-.16.11-.29.05-.47-.37-1.14-.73-2.29-1.08-3.44-.54-1.75.55-3.43,2.31-3.56.81-.06,1.48.3,2.02.87.24.25.45.53.7.83.08-.12.16-.2.21-.3.87-1.42,1.36-2.97,1.63-4.61.16-.96.65-1.73,1.56-2.12,1.49-.65,3.23.15,3.54,1.7.1.48.1,1.01,0,1.48-.69,3.28-1.42,6.55-2.14,9.83-.09.4-.08.76.21,1.06.49.51.52,1.13.41,1.76-.48,2.69-.97,5.39-1.47,8.08-.82,4.45-1.65,8.9-2.48,13.36-.19,1.03-.59,1.98-1.03,2.92-3.12,6.53-6.23,13.07-9.36,19.59-.43.89-.57,1.81-.53,2.78.1,2.36.17,4.72.26,7.08.02.6.07,1.19.09,1.79,0,.23-.02.46-.08.68-.19.7-.72,1.1-1.4,1.06-.85-.04-1.33-.4-1.44-1.19-.1-.76-.13-1.53-.16-2.29-.06-1.67-.1-3.35-.16-5.02-.04-1.13-.08-2.25-.18-3.37-.03-.34-.17-.71-.36-.99-.9-1.35-1.84-2.68-2.77-4.01-.06-.08-.15-.14-.29-.28Zm-20.36-21.86c.04.21.07.38.1.54.27,1.6.74,3.13,1.56,4.55,1.46,2.52,4.01,3.77,6.87,3.33,2.06-.32,3.57-1.46,4.59-3.25.73-1.28,1.19-2.67,1.61-4.07.19-.64.1-.8-.55-1.01-1.27-.42-2.54-.82-3.81-1.24-1.59-.52-3.21-.69-4.84-.34-1.2.25-2.37.61-3.56.93-.65.18-1.3.38-1.97.57ZM8.05,16.32c.01.1.01.13.02.16.7,3.47,1.39,6.94,2.09,10.42.51,2.56,1.05,5.11,1.53,7.67.26,1.41.61,2.77,1.34,4.03.33.57.6,1.17.91,1.75,2.24,4.25,4.47,8.49,6.71,12.74.1.2.22.39.35.63,1.3-1.28,2.65-2.45,3.9-3.75-1.2-.49-2.33-.95-3.46-1.43-.64-.27-1.16-.7-1.53-1.3-1.7-2.73-3.4-5.47-5.09-8.2-.67-1.08-1.23-2.21-1.51-3.46-.63-2.84-1.25-5.67-1.86-8.51-.77-3.56-1.53-7.12-2.3-10.68-.02-.08-.12-.19-.17-.19-.3.03-.6.09-.93.14Zm42.92,37.39c.12-.23.23-.43.33-.62,2.73-5.17,5.45-10.34,8.17-15.51.17-.33.31-.7.38-1.06.5-2.37.97-4.74,1.45-7.11.78-3.85,1.55-7.71,2.32-11.56.1-.51.19-1.02.29-1.55-.19-.03-.35-.05-.51-.07-.55-.07-.55-.07-.67.48-.62,2.86-1.23,5.72-1.85,8.58-.61,2.86-1.24,5.72-1.84,8.58-.28,1.33-.52,2.67-1.16,3.88-.48.91-1.04,1.77-1.58,2.64-1.43,2.3-2.87,4.6-4.29,6.9-.34.55-.81.96-1.4,1.21-.8.34-1.6.66-2.41.99-.38.15-.75.3-1.2.48,1.34,1.27,2.63,2.49,3.95,3.74Zm-32.86,3.87c.1-.12.16-.18.21-.25.25-.33.47-.68.74-.98.38-.42.38-.84.12-1.31-.33-.6-.64-1.21-.97-1.82-2.44-4.63-4.89-9.27-7.33-13.9-.37-.7-.79-1.38-.95-2.18-.46-2.33-.93-4.66-1.4-7-.69-3.45-1.38-6.91-2.08-10.36-.22-1.07-.45-2.14-.68-3.22-.34.04-.65.07-1,.11.03.23.04.45.08.66.56,3.1,1.13,6.21,1.7,9.31.53,2.88,1.06,5.75,1.59,8.63.24,1.3.5,2.6,1.08,3.81.56,1.19,1.15,2.36,1.72,3.55,1.75,3.66,3.5,7.33,5.25,10.99.62,1.3,1.25,2.6,1.91,3.97Zm49.1-40.92c-.22-.02-.39-.03-.55-.05-.45-.07-.45-.07-.58.38-.01.05-.02.1-.03.15-.64,3.17-1.28,6.34-1.92,9.51-.58,2.92-1.14,5.84-1.74,8.75-.42,2.02-1.07,3.96-2.18,5.72-.21.33-.42.66-.6,1-1.92,3.65-3.84,7.3-5.75,10.95-.39.74-.78,1.48-1.14,2.23-.08.17-.15.45-.07.59.35.58.75,1.13,1.17,1.74.12-.23.22-.39.29-.55,2.71-5.68,5.43-11.35,8.13-17.03.45-.94.97-1.86,1.17-2.9.43-2.18.84-4.36,1.25-6.54.74-3.98,1.46-7.97,2.19-11.95.12-.65.24-1.31.36-1.99Zm-27.46,32.55c-.04-.11-.07-.18-.1-.25-.44-1.05-.88-2.09-1.3-3.14-.07-.18-.16-.24-.35-.24-1.37,0-2.74,0-4.11,0-.18,0-.28.04-.35.23-.37,1.03-.76,2.05-1.12,3.08-.03.1.03.25.09.35.05.09.15.16.22.24,1.08,1.15,2.16,2.29,3.23,3.45.15.17.26.17.41,0,1.07-1.18,2.15-2.35,3.23-3.53.06-.06.1-.14.14-.19ZM2.51,2.16c-.23.45-.35.85-.24,1.33.6,2.62,1.17,5.24,1.76,7.86.15.69.34,1.37.51,2.05.07.25.24.34.5.3.91-.12,1.82-.24,2.73-.33.46-.05.72-.27.86-.7.42-1.32.86-2.62,1.27-3.94.06-.2.02-.45,0-.67-.01-.21-.15-.22-.32-.17-.32.1-.48.34-.61.62-.23.51-.43,1.03-.69,1.52-.47.9-1.24.94-1.83.12-.45-.63-.9-1.27-1.35-1.9-.69-.98-1.31-2-1.56-3.2-.13-.64-.25-1.29-.39-1.93-.09-.38-.32-.67-.65-.95Zm59.69,5.61c-.2.29-.24.6-.15.9.44,1.39.9,2.78,1.34,4.17.1.33.33.48.66.51.87.09,1.75.2,2.62.3.56.06.65,0,.85-.52.03-.07.05-.15.07-.23.71-3.23,1.41-6.45,2.13-9.68.1-.43-.05-.73-.31-1.06-.11.11-.22.2-.31.29-.32.35-.34.8-.41,1.23-.23,1.29-.46,2.57-1.24,3.67-.33.47-.61.98-.94,1.46-.36.52-.72,1.03-1.13,1.51-.44.53-.98.52-1.43.01-.18-.2-.31-.44-.43-.68-.18-.36-.35-.74-.5-1.11-.15-.38-.44-.6-.83-.77Zm-18.75,43.84s0-.05,0-.08c-.39-.19-.8-.35-1.18-.57-.41-.23-.71-.11-1,.2-.49.53-1,1.03-1.49,1.55-.04.04-.06.11-.09.16.02.03.03.06.05.09l3.71-1.36Zm-10.58,1.38s.04-.04.06-.06c-.03-.07-.05-.16-.1-.22-.57-.6-1.13-1.2-1.71-1.79-.07-.07-.23-.13-.32-.1-.52.21-1.03.44-1.62.69,1.29.52,2.49,1,3.7,1.48Z" />
    <path
      d="m44.03,28.67c-2.53-.9-5.08-1.41-7.72-1.48v-11.6c.52.06,1.03.1,1.52.18,1.38.23,2.61.85,3.83,1.49.77.4,1.53.82,2.29,1.23.06.03.14.13.13.19-.02,1.22-.07,2.44-.07,3.67,0,1.97.01,3.94.02,5.91,0,.12,0,.23,0,.4Z" />
    <path
      d="m35.87,15.64c0,.14,0,.25,0,.36,0,3.61,0,7.23,0,10.84,0,.27-.06.34-.34.35-2.27.04-4.49.38-6.65,1.1-.06.02-.11.04-.17.05-.02,0-.04,0-.1,0,0-.19,0-.38,0-.58,0-3.02.02-6.04-.02-9.06,0-.49.14-.67.53-.86,1.44-.71,2.86-1.47,4.42-1.89.74-.2,1.49-.36,2.32-.32Z" />
    <path fill="currentColor"
      d="m28.64,34.36c.67-.2,1.32-.4,1.97-.57,1.18-.32,2.36-.67,3.56-.93,1.64-.35,3.26-.18,4.84.34,1.27.42,2.54.82,3.81,1.24.65.22.74.37.55,1.01-.42,1.4-.88,2.79-1.61,4.07-1.02,1.79-2.53,2.93-4.59,3.25-2.86.44-5.41-.8-6.87-3.33-.82-1.41-1.29-2.94-1.56-4.55-.03-.17-.06-.33-.1-.54Z" />
    <path class="cls-2"
      d="m8.05,16.32c.32-.05.62-.11.93-.14.05,0,.16.11.17.19.77,3.56,1.53,7.12,2.3,10.68.61,2.84,1.23,5.68,1.86,8.51.28,1.25.84,2.38,1.51,3.46,1.69,2.74,3.39,5.47,5.09,8.2.37.6.88,1.03,1.53,1.3,1.13.47,2.27.93,3.46,1.43-1.25,1.3-2.6,2.47-3.9,3.75-.13-.24-.24-.43-.35-.63-2.24-4.25-4.47-8.49-6.71-12.74-.31-.58-.58-1.18-.91-1.75-.73-1.25-1.08-2.62-1.34-4.03-.48-2.56-1.02-5.11-1.53-7.67-.7-3.47-1.39-6.94-2.09-10.42,0-.03,0-.06-.02-.16Z" />
    <path class="cls-2"
      d="m50.98,53.71c-1.32-1.26-2.62-2.48-3.95-3.74.45-.18.82-.33,1.2-.48.8-.33,1.61-.65,2.41-.99.59-.25,1.06-.66,1.4-1.21,1.43-2.3,2.87-4.6,4.29-6.9.54-.87,1.11-1.73,1.58-2.64.64-1.21.88-2.55,1.16-3.88.6-2.86,1.23-5.72,1.84-8.58.61-2.86,1.23-5.72,1.85-8.58.12-.54.12-.54.67-.48.16.02.31.04.51.07-.1.53-.19,1.04-.29,1.55-.77,3.85-1.54,7.71-2.32,11.56-.48,2.37-.95,4.74-1.45,7.11-.08.37-.21.73-.38,1.06-2.72,5.17-5.44,10.34-8.17,15.51-.1.2-.21.4-.33.62Z" />
    <path class="cls-2"
      d="m18.11,57.58c-.66-1.37-1.29-2.67-1.91-3.97-1.75-3.66-3.5-7.33-5.25-10.99-.57-1.19-1.16-2.36-1.72-3.55-.57-1.21-.84-2.51-1.08-3.81-.53-2.88-1.06-5.75-1.59-8.63-.57-3.1-1.14-6.21-1.7-9.31-.04-.21-.05-.43-.08-.66.35-.04.66-.07,1-.11.23,1.09.46,2.15.68,3.22.7,3.45,1.39,6.91,2.08,10.36.47,2.33.94,4.66,1.4,7,.16.8.58,1.48.95,2.18,2.44,4.63,4.88,9.27,7.33,13.9.32.61.63,1.22.97,1.82.26.47.26.89-.12,1.31-.27.3-.49.65-.74.98-.05.07-.11.13-.21.25Z" />
    <path class="cls-2"
      d="m67.22,16.66c-.12.68-.24,1.34-.36,1.99-.73,3.98-1.45,7.97-2.19,11.95-.4,2.18-.82,4.36-1.25,6.54-.2,1.04-.72,1.96-1.17,2.9-2.71,5.68-5.42,11.36-8.13,17.03-.08.16-.17.32-.29.55-.42-.61-.82-1.15-1.17-1.74-.08-.14-.02-.42.07-.59.36-.75.75-1.49,1.14-2.23,1.91-3.65,3.83-7.3,5.75-10.95.18-.34.39-.67.6-1,1.12-1.76,1.76-3.7,2.18-5.72.6-2.91,1.16-5.84,1.74-8.75.63-3.17,1.28-6.34,1.92-9.51,0-.05.02-.1.03-.15.13-.45.13-.44.58-.38.17.02.34.03.55.05Z" />
    <path fill="currentColor"
      d="m39.76,49.21c-.04.06-.09.13-.14.19-1.08,1.18-2.16,2.35-3.23,3.53-.15.17-.25.17-.41,0-1.07-1.15-2.15-2.3-3.23-3.45-.08-.08-.17-.15-.22-.24-.06-.11-.12-.26-.09-.35.37-1.03.76-2.05,1.12-3.08.07-.19.16-.23.35-.23,1.37,0,2.74,0,4.11,0,.19,0,.28.06.35.24.43,1.05.87,2.09,1.3,3.14.03.07.06.15.1.25Z" />
    <path fill="currentColor"
      d="m2.51,2.16c.33.27.57.57.65.95.14.64.26,1.29.39,1.93.24,1.2.87,2.21,1.56,3.2.45.64.9,1.27,1.35,1.9.59.83,1.36.79,1.83-.12.26-.49.46-1.01.69-1.52.13-.28.29-.52.61-.62.17-.05.31-.04.32.17.01.22.06.47,0,.67-.41,1.32-.85,2.63-1.27,3.94-.14.43-.4.65-.86.7-.91.09-1.82.21-2.73.33-.26.03-.43-.05-.5-.3-.18-.68-.36-1.36-.51-2.05-.59-2.62-1.16-5.24-1.76-7.86-.11-.48.02-.88.24-1.33Z" />
    <path fill="currentColor"
      d="m62.2,7.77c.39.17.67.39.83.77.15.38.32.75.5,1.11.12.24.25.48.43.68.46.51.99.52,1.43-.01.4-.48.77-.99,1.13-1.51.33-.47.61-.98.94-1.46.77-1.11,1.01-2.39,1.24-3.67.07-.43.09-.88.41-1.23.09-.1.2-.19.31-.29.26.34.41.64.31,1.06-.72,3.22-1.42,6.45-2.13,9.68-.02.08-.04.15-.07.23-.2.53-.29.58-.85.52-.87-.1-1.75-.2-2.62-.3-.33-.04-.56-.19-.66-.51-.45-1.39-.91-2.78-1.34-4.17-.09-.3-.05-.61.15-.9Z" />
    <path class="cls-2"
      d="m43.46,51.62l-3.71,1.36s-.03-.06-.05-.09c.03-.05.05-.12.09-.16.5-.52,1-1.03,1.49-1.55.29-.31.59-.43,1-.2.38.21.78.38,1.18.57,0,.03,0,.05,0,.08Z" />
    <path class="cls-2"
      d="m32.87,53c-1.2-.48-2.4-.96-3.7-1.48.59-.26,1.1-.49,1.62-.69.08-.03.25.03.32.1.58.59,1.15,1.19,1.71,1.79.05.06.07.15.1.22-.02.02-.04.04-.06.06Z" />
  </symbol>
</svg>
<!-- SVG References -->
<svg class="icon">
  <use xlink:href="#Icon-Touchdown"></use>
</svg>