<!-- SVG Sprite -->
<svg width="0" height="0" class="hidden">
  <symbol id="Icon-Auction" xmlns="http://www.w3.org/2000/svg" viewBox="0 0 72 79.08">

    <path
      d="m.04,30.61c4.28,4.46,9.79,6.18,15.45,7.37,12.12,2.56,24.25,2.45,36.31-.49,3.29-.8,6.49-1.91,9.38-3.71,1.38-.86,2.62-1.95,3.9-2.91,0,.02.03.21.03.39,0,1.22-.05,2.44.02,3.65.09,1.73-.6,3.11-1.76,4.3-1.49,1.52-3.3,2.57-5.22,3.44-4.19,1.91-8.63,2.96-13.17,3.65-5.57.85-11.17,1.09-16.78.79-6.82-.36-13.53-1.34-19.93-3.9-2.06-.82-4.01-1.84-5.72-3.28-1.67-1.41-2.72-3.09-2.52-5.39.09-1.03.01-2.07.01-3.11,0-.22,0-.45,0-.79Z" />
    <path
      d="m5.87,47.02c3.21,3.53,7.28,5.13,11.51,6.42,4.93,1.51,10.01,2.25,15.15,2.58,5,.32,10,.27,14.98-.27,6.16-.67,12.2-1.85,17.83-4.58,2.06-1,3.96-2.24,5.5-4.06.04.13.1.22.1.31,0,1.55.01,3.11,0,4.66-.02,1.26-.61,2.29-1.41,3.21-1.47,1.68-3.35,2.78-5.34,3.71-4.05,1.89-8.35,2.94-12.74,3.65-6.37,1.03-12.78,1.24-19.2.78-6.43-.46-12.74-1.51-18.73-4.03-1.89-.8-3.69-1.78-5.25-3.14-1.6-1.39-2.56-3.04-2.4-5.25.09-1.27.02-2.55.02-3.99Z" />
    <path
      d="m71.93,15.63c0,1.93.08,3.75-.03,5.55-.08,1.26-.86,2.25-1.74,3.13-1.68,1.69-3.74,2.8-5.91,3.72-4.43,1.88-9.08,2.88-13.83,3.51-5.44.72-10.91.89-16.39.53-6.66-.43-13.2-1.45-19.41-4.05-1.98-.83-3.86-1.85-5.47-3.3-1.5-1.34-2.41-2.93-2.26-5.04.09-1.29.02-2.6.02-3.9.1,0,.16,0,.17.01,2.96,3.27,6.88,4.84,10.95,6.11,5.3,1.66,10.75,2.42,16.28,2.74,5.44.31,10.86.16,16.26-.56,5.44-.73,10.77-1.9,15.75-4.32,2.09-1.02,4.02-2.28,5.61-4.15Z" />
    <path
      d="m.04,62.48c4.04,4.24,9.22,5.9,14.54,7.18,7.52,1.82,15.18,2.23,22.89,1.83,5.62-.29,11.16-1.09,16.55-2.75,3.22-.99,6.33-2.24,9.02-4.34.7-.55,1.33-1.2,2.07-1.87,0,.31,0,.56,0,.82,0,1.08-.07,2.17.01,3.24.15,2.03-.73,3.57-2.16,4.88-1.89,1.73-4.15,2.85-6.51,3.77-4.41,1.73-9.01,2.66-13.7,3.23-5.32.65-10.65.77-15.99.4-6.54-.45-12.97-1.48-19.07-4.05-1.98-.83-3.85-1.86-5.46-3.31-1.47-1.34-2.37-2.91-2.22-4.99.08-1.01.01-2.03.01-3.04,0-.29,0-.58,0-1Z" />
    <path fill="currentColor"
      d="m39.45,0c7.2.02,14.3.75,21.21,2.89,2.83.87,5.58,1.95,7.96,3.75.92.7,1.78,1.54,2.47,2.46,1.25,1.67,1.18,3.49.02,5.22-.85,1.26-2,2.19-3.27,2.99-3.04,1.93-6.4,3.09-9.86,3.95-7.94,1.98-16.01,2.46-24.15,1.95-5.37-.33-10.65-1.14-15.79-2.76-2.69-.85-5.32-1.89-7.6-3.57-.93-.69-1.81-1.5-2.52-2.41-1.4-1.8-1.34-3.77.02-5.61.98-1.33,2.28-2.3,3.69-3.12,3.48-2.04,7.28-3.19,11.19-4.05C28.29.48,33.84-.01,39.45,0Zm1.66,21.3c1.69-.17,5.04-.4,8.36-.88,3.42-.49,6.74-1.42,9.82-3.06,1.38-.74,2.66-1.62,3.61-2.89,1.32-1.79,1.31-3.78-.02-5.56-.9-1.2-2.09-2.05-3.38-2.75-3-1.64-6.25-2.52-9.59-3.12-5.76-1.03-11.56-1.15-17.37-.52-3.93.43-7.78,1.22-11.44,2.8-1.68.73-3.28,1.62-4.55,2.97-.91.96-1.53,2.06-1.51,3.43.02,1.72.95,2.97,2.18,4.03,1.59,1.37,3.47,2.25,5.43,2.95,5.44,1.94,11.09,2.51,18.48,2.6Z" />
    <path fill="currentColor"
      d="m66.29,37.16c1.47.91,2.77,1.87,3.72,3.22,1.26,1.79,1.26,3.67,0,5.46-.89,1.26-2.07,2.19-3.36,2.99-3.28,2.02-6.89,3.21-10.61,4.07-8.4,1.94-16.89,2.31-25.46,1.55-5.31-.47-10.53-1.41-15.55-3.28-2.27-.84-4.44-1.88-6.34-3.4-1.03-.82-1.94-1.76-2.45-3-.12-.3-.2-.62-.33-1.06,2.82,1.31,5.61,2.24,8.49,2.89.98.22,1.83.61,2.65,1.21,2.49,1.79,5.36,2.76,8.31,3.41,9.49,2.11,18.96,2.07,28.33-.63,1.92-.55,3.76-1.49,5.54-2.43.95-.5,1.76-1.33,2.49-2.13.99-1.09,1.31-2.43,1.02-3.91-.04-.2.08-.53.24-.66,1.43-1.14,2.65-2.44,3.31-4.3Z" />
    <path fill="currentColor"
      d="m64.63,60.63c-.49.59-.93,1.24-1.47,1.78-1.67,1.66-3.73,2.74-5.88,3.64-4.18,1.76-8.56,2.74-13.04,3.37-6.18.87-12.39,1.04-18.61.52-6.42-.54-12.74-1.59-18.65-4.32-1.48-.68-2.82-1.66-4.22-2.52-.25-.15-.45-.37-.66-.57-2.73-2.58-2.76-5.36-.05-7.95.71-.68,1.53-1.24,2.39-1.93.12.41.19.68.28.95.53,1.7,1.66,2.97,3.01,4.07.31.25.44.49.44.9,0,1.34.61,2.43,1.5,3.37,1.58,1.65,3.58,2.63,5.67,3.43,3.52,1.35,7.18,2.04,10.91,2.41,5.98.59,11.93.41,17.83-.78,3.03-.61,5.97-1.52,8.72-2.98.69-.36,1.55-.42,2.34-.59,3.11-.68,6.15-1.56,9.07-2.84.09-.04.19-.06.29-.09.05.05.09.1.14.15Z" />
    <path fill="currentColor"
      d="m5.46,20.26c.02,2.19.98,3.8,2.37,5.2.17.17.33.46.32.67-.13,1.67.56,2.98,1.7,4.1,1.64,1.61,3.68,2.57,5.8,3.36,3.73,1.37,7.6,2.06,11.54,2.38,6.14.49,12.25.27,18.26-1.19,1.85-.45,3.63-1.2,5.46-1.73.99-.29,2.02-.42,3.04-.61,3.22-.59,6.38-1.38,9.44-2.52.1-.04.2-.06.3-.09.04.05.07.11.11.16-.79.65-1.53,1.37-2.37,1.95-2.78,1.92-5.9,3.06-9.13,3.95-7.16,1.98-14.48,2.6-21.88,2.42-6.87-.16-13.65-1.01-20.19-3.23-2.37-.8-4.69-1.77-6.7-3.28-.96-.72-1.86-1.58-2.59-2.53-1.25-1.63-1.21-3.45-.08-5.16,1.12-1.7,2.76-2.79,4.6-3.83Z" />
    <path
      d="m61.37,42.58c.18,1.18-.2,2.12-.96,2.78-1.03.89-2.13,1.75-3.32,2.38-3.04,1.59-6.37,2.34-9.74,2.85-6.44.96-12.88.91-19.3-.24-2.75-.49-5.44-1.22-7.99-2.42-.1-.05-.19-.1-.4-.22,1.98.21,3.83.45,5.68.6,1.88.15,3.78.23,5.67.28,1.89.05,3.78.01,5.72.01-.03.77.55.93,1.18,1,.45.05.91.12,1.34.04,1.08-.2,1.38,0,1.51-1.38,7.13-.79,14.14-2.06,20.6-5.67Z" />
    <path
      d="m47.06,64.92c-2.18.41-4.35.92-6.54,1.22-6.09.82-12.18.73-18.23-.37-3.36-.61-6.65-1.46-9.59-3.27-.88-.55-1.65-1.31-2.39-2.05-.33-.32-.48-.82-.77-1.36,1.5.7,2.81,1.38,4.17,1.93,4.47,1.82,9.16,2.78,13.93,3.4,1.49.19,2.98.48,4.48.58,1.57.11,3.14.1,4.71.06,3.22-.09,6.43-.24,9.65-.36.18,0,.36-.02.53-.02.02.08.03.16.05.24Z" />
    <path
      d="m9.52,26.92c6.1,3.83,12.73,5.26,19.54,6.12,4.75.61,9.52.75,14.3.53.18,0,.36,0,.55.12-.99.17-1.98.38-2.98.51-7.35.97-14.65.79-21.87-1.03-2.21-.56-4.35-1.32-6.32-2.5-1.13-.68-2.17-1.46-2.82-2.66-.16-.29-.24-.62-.41-1.09Z" />
    <path fill="#ffffff"
      d="m41.11,21.3c-7.39-.1-13.04-.66-18.48-2.6-1.96-.7-3.84-1.58-5.43-2.95-1.23-1.06-2.16-2.3-2.18-4.03-.01-1.37.61-2.47,1.51-3.43,1.28-1.35,2.87-2.24,4.55-2.97,3.65-1.58,7.51-2.37,11.44-2.8,5.81-.64,11.61-.52,17.37.52,3.34.6,6.59,1.48,9.59,3.12,1.29.71,2.48,1.55,3.38,2.75,1.33,1.78,1.34,3.78.02,5.56-.95,1.28-2.22,2.16-3.61,2.89-3.08,1.64-6.4,2.57-9.82,3.06-3.32.47-6.67.71-8.36.88Zm-.9-17.75c-5.21,0-9.62.42-13.94,1.52-2.78.71-5.5,1.61-7.81,3.39-2.71,2.09-2.7,4.37,0,6.48,1.51,1.18,3.24,1.94,5.04,2.56,3.84,1.32,7.81,1.95,11.85,2.2,5.86.36,11.67.05,17.38-1.4,2.72-.69,5.36-1.58,7.64-3.3,2.81-2.12,2.86-4.54-.02-6.57-1.41-1-3.03-1.8-4.66-2.4-5.22-1.92-10.69-2.43-15.46-2.48Z" />
    <path
      d="m40.21,3.55c4.77.05,10.24.56,15.46,2.48,1.63.6,3.24,1.4,4.66,2.4,2.88,2.03,2.83,4.45.02,6.57-2.27,1.72-4.92,2.61-7.64,3.3-5.71,1.45-11.52,1.76-17.38,1.4-4.04-.25-8.01-.88-11.85-2.2-1.8-.62-3.53-1.38-5.04-2.56-2.69-2.1-2.7-4.39,0-6.48,2.31-1.78,5.03-2.68,7.81-3.39,4.33-1.1,8.74-1.51,13.94-1.52Zm-3.66,3.37c-.74.1-1.45.17-2.16.3-1.39.26-2.81.46-4.01,1.32-.85.61-.83,1.39.11,1.84.76.36,1.61.67,2.43.73,2.51.18,5.04.18,7.55.33,1.14.07,2.28.25,3.39.48.61.13,1.27.47,1.28,1.21.02.76-.68,1.04-1.27,1.22-3.04.95-6.11,1.04-9.17.07-.43-.14-.94-.24-.92-.9,0-.12-.22-.29-.37-.35-.92-.39-1.89-.44-2.84-.17-.65.19-.86.8-.42,1.32.29.35.69.69,1.11.83,1.1.38,2.22.72,3.36.96,1.02.22,2.08.29,3.11.42.17,1.51.35,1.67,1.88,1.72.18,0,.36,0,.54-.02,1.4-.14,1.48-.23,1.55-1.6,0-.06.04-.13.07-.21.66-.1,1.33-.18,1.99-.31,1.62-.32,3.23-.67,4.59-1.68,1-.74,1.09-1.66.11-2.4-.81-.61-1.76-1.1-2.72-1.42-2.26-.74-4.62-.65-6.96-.68-1.46-.02-2.92-.08-4.38-.16-.25-.01-.5-.18-.75-.28,0-.08,0-.15,0-.23.33-.15.65-.34,1-.43,2.58-.71,5.22-.63,7.85-.48,1.01.05,2.02.16,3.02.11.34-.02.66-.42.99-.65-.32-.21-.61-.53-.96-.61-.74-.16-1.51-.21-2.28-.28-.91-.08-1.83-.12-2.73-.17-.15-1.41-.3-1.55-1.69-1.61-.18,0-.36,0-.54,0-1.47.06-1.62.2-1.74,1.63,0,.02-.01.04-.04.14Z" />
    <path fill="#ffffff"
      d="m36.54,6.92c.03-.09.03-.11.04-.14.12-1.44.27-1.58,1.74-1.63.18,0,.36,0,.54,0,1.4.06,1.54.2,1.69,1.61.9.05,1.82.09,2.73.17.76.06,1.53.12,2.28.28.35.08.64.4.96.61-.33.23-.65.64-.99.65-1,.05-2.02-.06-3.02-.11-2.64-.14-5.27-.23-7.85.48-.35.1-.67.29-1,.43,0,.08,0,.15,0,.23.25.1.49.27.75.28,1.46.08,2.92.14,4.38.16,2.34.03,4.71-.06,6.96.68.96.32,1.91.81,2.72,1.42.98.74.89,1.67-.11,2.4-1.36,1-2.97,1.36-4.59,1.68-.66.13-1.33.21-1.99.31-.03.08-.06.15-.07.21-.07,1.37-.15,1.46-1.55,1.6-.18.02-.36.02-.54.02-1.53-.05-1.71-.21-1.88-1.72-1.03-.13-2.08-.2-3.11-.42-1.14-.24-2.26-.58-3.36-.96-.42-.15-.82-.49-1.11-.83-.44-.52-.23-1.14.42-1.32.96-.28,1.92-.22,2.84.17.15.06.37.23.37.35-.02.66.49.76.92.9,3.06.98,6.12.88,9.17-.07.59-.18,1.29-.46,1.27-1.22-.02-.74-.67-1.08-1.28-1.21-1.12-.23-2.26-.42-3.39-.48-2.52-.14-5.04-.15-7.55-.33-.83-.06-1.67-.37-2.43-.73-.94-.44-.96-1.23-.11-1.84,1.19-.85,2.61-1.06,4.01-1.32.7-.13,1.42-.2,2.16-.3Z" />
  </symbol>
</svg>
<!-- SVG References -->
<svg class="icon">
  <use xlink:href="#Icon-Auction"></use>
</svg>
