<svg version="1.1" xmlns="http://www.w3.org/2000/svg" xmlns:xlink="http://www.w3.org/1999/xlink" width="0" height="0" viewBox="0 0 0 0">
<defs>
<symbol id="icon-email">
<path fill="currentColor" d="M500,69.67,967.56,411.21v542H32.44V421.67L434.13,121.09,491,78.56" transform="translate(-10 -52.82)"></path><path d="M282.08,209.67C165.77,296.32,57.19,377.3,41,389.68L11.29,411.86l-.77,279L10,969.69l6.71,5.42,7,5.42H976.33l7-5.42L990,970V413.15l-14.7-11.35C967,395.61,859,314.63,734.93,222.3,581.75,108.32,507,53.9,501.55,52.87,494.33,51.84,473.44,66.8,282.08,209.67ZM539.72,127.4c21.4,16,100.58,74.79,175.63,131C790.66,314.63,867,371.37,885,384.78l33,24.5-65,.77c-35.85.26-65.76,0-66.54-1-.77-.77-1.8-14.44-1.8-30.17-.26-16-.52-33.78-.78-40l-.26-10.83H216.32l-.52,10.83c0,6.19-.26,24-.51,40-.26,15.73-1,29.4-1.81,30.17-.77,1-30.69,1.29-66.54,1l-64.73-.77L290.33,254C405.1,168.66,499.23,98.52,499.74,98.52S518.05,111.67,539.72,127.4Zm9.54,290.65c20.38,7.74,34,20.63,44.1,41,7.48,15.22,8.51,19.6,8.51,37.91,0,17.28-1.29,22.95-7.22,35.33-13.41,27.08-34.82,43.33-60.61,45.39-11.09,1-15.22.26-21.15-4.13-7.22-5.42-7.22-5.42-17-.26-32.5,16.51-66.54-11.35-61.9-50.55,3.1-26.31,19.6-52.61,38.68-61.64,13.41-6.45,32.5-5.42,43.84,2.32,8.77,5.93,9.28,5.93,9.28,1.29s1.83-5.14,15.75-5.14c15,0,15.73.26,14.44,5.67-9.8,41.26-17.54,85.36-15.47,87.43,3.35,3.35,15.21-2.32,23-11.09,23.73-25.79,23.47-67.57-.77-90.26-13.67-13.15-30.43-18.57-56.22-18.57-32,0-46.94,5.42-66,24-19.34,19.08-26.3,36.88-26.56,67.31-.26,19.08.77,23.73,7,36.62,15.73,32,43.33,44.62,92.84,42.81,32.24-1,48-6.19,62.67-20.38,7-6.7,9.54-7.74,20.12-7l12.38.77-8,10.57c-10.57,14.7-23.21,23.73-43.07,30.95-43.33,16-103.67,7.75-134.62-18-18.83-16-31.46-47.19-31.46-77.63.26-52.61,31.21-94.65,80.21-108.32C491.75,409,530.43,410.57,549.26,418.05ZM214.77,470.4c2.32,32,1,64.22-2.58,62.93-2.84-1-102.64-74.27-107.8-79.17-1.55-1.29,20.89-2.32,53.13-2.32h55.7Zm680.84-16.25c-5.16,4.9-105,78.14-108.06,79.17-3.35,1.29-5.16-47.19-2.32-69.37l1.55-12.12h55.7C874.46,451.83,897.16,452.86,895.61,454.15ZM211.16,584.39c85.88,64,184.39,137.46,219.21,163.51,54.42,40.75,64.22,47.19,70.92,46.42,5.42-.77,73-49.77,222.82-161.7C842.48,544.16,942,470.14,945.38,468.08l5.93-3.87v475H48.68V701.73c0-189,.77-237,3.35-235.46C53.58,467.31,125.28,520.43,211.16,584.39Z" transform="translate(-10 -52.82)"></path><path d="M481.43,483c-13.67,10.32-22.18,48.48-14.18,64.22,8.77,17.28,31.46,11.35,41.78-11.09,7.22-15.22,10.32-32.24,8-41.78C512.89,478.4,495.36,472.72,481.43,483Z" transform="translate(-10 -52.82)"></path></symbol>

<symbol id="icon-auction"><rect class="cls-1" x="50.6" y="14.02" width="44.31" height="68.58" transform="translate(-12.85 65.59) rotate(-45)"></rect><path fill="currentColor" d="M95.13,26h0a7.69,7.69,0,0,1,.13,10.83l-1.59,1.59L106.46,51,74.13,82.11,61.67,69.21,13.13,117.75a7.68,7.68,0,0,1-10.83-.14h0a7.7,7.7,0,0,1-.14-10.83L50.88,58.06,41.13,47.92,71.7,16.76,82.64,27.5l1.67-1.68A7.68,7.68,0,0,1,95.13,26ZM75,41.57,72.49,45a4.36,4.36,0,0,0-1.16-.37,2.44,2.44,0,0,0-1,.15L72.58,47a12.23,12.23,0,0,1,4.52-1.84,4.4,4.4,0,0,1,3.46,1.35,4.69,4.69,0,0,1,1.18,1.94A5.4,5.4,0,0,1,82,50.6a5.33,5.33,0,0,1-.56,1.95,6.1,6.1,0,0,1-1.13,1.63l2,2L80.7,57.82l-2-2a7.55,7.55,0,0,1-2,1.25,5.55,5.55,0,0,1-2,.49,5.14,5.14,0,0,1-1.83-.22,6.94,6.94,0,0,1-1.75-.91l2.8-3.52a4.15,4.15,0,0,0,1.49.73,3,3,0,0,0,1.4-.18L74,50.69a20.94,20.94,0,0,1-3,1.49,4.23,4.23,0,0,1-4.39-1.12,4.42,4.42,0,0,1-1.36-3.31,5.27,5.27,0,0,1,1.65-3.69l-1.44-1.44L67.08,41l1.44,1.44a5.63,5.63,0,0,1,3.26-1.61,4.74,4.74,0,0,1,3.17.76Zm-5.81,4.26a2.2,2.2,0,0,0-.29,1.1,1.25,1.25,0,0,0,.37.77,1.36,1.36,0,0,0,.8.4,2,2,0,0,0,1.12-.27ZM78,52.4a2.65,2.65,0,0,0,.48-1.46,1.49,1.49,0,0,0-1.4-1.5,3.4,3.4,0,0,0-1.59.45ZM62.17,37.82a16.44,16.44,0,1,1,0,23.25h0A16.45,16.45,0,0,1,62.17,37.82Zm8.2-36h0a6.11,6.11,0,0,1,.11,8.62L34.83,46.1a6.12,6.12,0,0,1-8.62-.1h0a6.11,6.11,0,0,1-.11-8.62L61.75,1.73a6.11,6.11,0,0,1,8.62.1ZM121.05,52.5h0a6.11,6.11,0,0,1,.1,8.62L85.51,96.79a6.11,6.11,0,0,1-8.62-.11h0a6.11,6.11,0,0,1-.11-8.62l35.65-35.65a6.11,6.11,0,0,1,8.62.1Z" transform="translate(0 0)"></path></symbol>

<symbol id="icon-taxi"><polygon class="cls-1" points="114.26 5.34 112.78 5.34 66.45 5.34 66.45 34.97 50.85 37.93 29.16 83.27 18.26 138.28 18.26 155.27 189.82 155.27 185.97 85.04 161.17 37.64 143.6 35.56 141.1 5.34 114.26 5.34"></polygon><path fill="currentColor" class="cls-2" d="M392.62,390.83a9.93,9.93,0,0,0-2.86.43l-10.1,3L369,366.34c-3.2-8.36-12.65-15.16-21.08-15.16h-7.11V328a7.14,7.14,0,0,0-6.87-7.37H261.08a7.14,7.14,0,0,0-6.87,7.37v23.14H247c-8.43,0-17.89,6.8-21.09,15.16l-10.66,27.87-10-2.95a9.93,9.93,0,0,0-2.86-.43c-5.14,0-8.88,4.21-8.88,10v5.93c0,6.78,5.14,12.29,11.46,12.29h.73l-1.52,4a98.24,98.24,0,0,0-5.39,29.32V508c0,6.78,5.14,12.29,11.45,12.29H224c6.32,0,11.46-5.51,11.46-12.29V494.36H359.4V508c0,6.78,5.14,12.29,11.45,12.29h13.77c6.32,0,11.46-5.51,11.46-12.29V452.37a97.93,97.93,0,0,0-5.4-29.32l-1.52-4H390c6.32,0,11.46-5.51,11.46-12.29v-5.93C401.5,395,397.76,390.83,392.62,390.83ZM325.11,330.5a.28.28,0,0,1,.27-.29h5.3a.28.28,0,0,1,.27.29V351a.29.29,0,0,1-.12.23h-5.6a.29.29,0,0,1-.12-.23Zm-38-.29h6.37a.42.42,0,0,1,.37.27l7.55,20.37,6.93-9.19a.47.47,0,0,0,0-.47l-6.65-10.74c-.08-.13,0-.24.13-.24h5.88a.54.54,0,0,1,.42.25l3.42,6a.15.15,0,0,0,.29,0l3.43-6a.54.54,0,0,1,.42-.25h5.88c.16,0,.21.11.13.24l-6.65,10.74a.42.42,0,0,0,0,.47l7.05,9.35a.17.17,0,0,1,0,.17h-6.25a.52.52,0,0,1-.2-.19l-3.87-6.64a.16.16,0,0,0-.29,0L307.71,351a.52.52,0,0,1-.2.19H295.74a.48.48,0,0,1-.18-.22l-1.3-4.26a.4.4,0,0,0-.36-.28h-7.21a.42.42,0,0,0-.36.28l-1.4,4.27a.41.41,0,0,1-.18.21h-5.66a.19.19,0,0,1,0-.21l7.7-20.49A.45.45,0,0,1,287.13,330.21ZM268.51,351V334.71a.29.29,0,0,0-.27-.3h-6.37a.28.28,0,0,1-.27-.29V330.5a.28.28,0,0,1,.27-.29H281a.28.28,0,0,1,.28.29v3.62a.28.28,0,0,1-.28.29h-6.4a.29.29,0,0,0-.27.3V351a.29.29,0,0,1-.12.23h-5.61A.29.29,0,0,1,268.51,351ZM223.3,412.22l16.23-42.4c1.91-5,7.6-9.1,12.64-9.1h90.51c5,0,10.73,4.1,12.65,9.1l16.22,42.4c1.92,5-.64,9.09-5.68,9.09H229C223.94,421.31,221.39,417.22,223.3,412.22ZM260,466.83a4.77,4.77,0,0,1-4.58,4.91h-31a4.77,4.77,0,0,1-4.58-4.91V451.06a4.77,4.77,0,0,1,4.58-4.91h31a4.77,4.77,0,0,1,4.58,4.91Zm114.79,0a4.78,4.78,0,0,1-4.59,4.91h-31a4.78,4.78,0,0,1-4.59-4.91V451.06a4.78,4.78,0,0,1,4.59-4.91h31a4.78,4.78,0,0,1,4.59,4.91Z" transform="translate(-193.5 -320.67)"></path></symbol>

<symbol id="icon-injured"><path id="body" d="M552,87H194.26a23.08,23.08,0,0,0-23.08,23.08v44.31l-28.69.11c-8.5,0-18,6.42-21.25,14.28L92.32,239C79.57,239,0,249.3,0,262.05V367.83c0,9.63,27.83,17.87,46.94,21.34a82.7,82.7,0,0,1,151.23,1.74H384.26a82.75,82.75,0,0,1,152.07,0H552a23.08,23.08,0,0,0,23.08-23.08V110.11A23.07,23.07,0,0,0,552,87ZM476.36,232.45a23.78,23.78,0,0,1-23.78,23.78H396v56.62a23.78,23.78,0,0,1-23.78,23.78h-6.62a23.78,23.78,0,0,1-23.78-23.78V256.23H285.17a23.77,23.77,0,0,1-23.78-23.78v-6.62a23.77,23.77,0,0,1,23.78-23.77h56.61V145.43a23.78,23.78,0,0,1,23.78-23.77h6.62A23.77,23.77,0,0,1,396,145.43v56.63h56.62a23.78,23.78,0,0,1,23.78,23.77Z" transform="translate(0 -87.03)"></path><path fill="currentColor" id="wheel" d="M186.56,423.61A64.44,64.44,0,1,0,122.13,488,64.07,64.07,0,0,0,186.56,423.61Z" transform="translate(0 -87.03)"></path><path fill="currentColor" id="wheel-2" data-name="wheel" d="M524.73,423.61A64.44,64.44,0,1,0,460.29,488,64.07,64.07,0,0,0,524.73,423.61Z" transform="translate(0 -87.03)"></path></symbol>

<symbol id="icon-scoreboard"><path fill="currentColor" d="M37.99 121.34a86 86 0 0 1 8.09-5.95c1.37-.88 2.75-1.7 4.1-2.43.45-.24.89-.46 1.33-.68a135.81 135.81 0 0 1-16.11-2.6 7 7 0 0 1-5.28-7.21c.2-2.3.51-5.2 1-8.5-.86 1-1.69 2-2.49 3a110.5 110.5 0 0 0-7.22 10.29 134.49 134.49 0 0 0-10.8 21.61A169 169 0 0 0-.01 173.78a161.66 161.66 0 0 1 23.14-37.53 115.91 115.91 0 0 1 14.86-14.91zm51.1-12.05c-11.18 3.54-23.09 4-33.29 3.35v36.72a3 3 0 0 0 3 3h59v15a12.85 12.85 0 0 0-11.58 12.78v34.14h47.77v-34.1a12.85 12.85 0 0 0-11.58-12.78v-15h59a3 3 0 0 0 3-3V3a3 3 0 0 0-3-3h-27.27a3 3 0 0 0-3 3v116.08h-82zm0-81.9v-15.8a3 3 0 0 0-3-3H58.81a3 3 0 0 0-3 3V41.2c1.12-1 2.28-1.94 3.5-2.83 8.9-6.52 19.44-9.7 29.78-10.98z"></path><path d="M44.53 99.88l2.14.33c2.49.35 5.61.69 9.13.86 9.61.45 22.22-.42 33.29-5.9a44.27 44.27 0 0 0 6.51-3.94c17.26-12.64 22.29-36.56 23.65-46.08a4.3 4.3 0 0 0-3.55-4.85 92.14 92.14 0 0 0-26.6-.57c-8.3 1.13-17 3.78-24.47 9.22a46.11 46.11 0 0 0-8.82 8.57c-9 11.36-12.8 25.82-14.32 34.36-.21 1.17-.37 2.23-.51 3.16a4.3 4.3 0 0 0 3.55 4.84zm12.68-28.21c.83-1.13 1.69-2.23 2.59-3.31l-1.44-1.2a.81.81 0 0 1 0-1.15q.64-.75 1.3-1.48a.81.81 0 0 1 1.14-.14l1.37 1.28q1.91-2 4-3.91l-1.26-1.4a.81.81 0 0 1 .16-1.14q.74-.65 1.49-1.27a.81.81 0 0 1 1.15 0l1.17 1.46q2.18-1.75 4.5-3.3l-1-1.56a.81.81 0 0 1 .32-1.1q.82-.53 1.66-1a.81.81 0 0 1 1.13.19l1 1.62q2.41-1.42 4.94-2.63l-.81-1.69a.81.81 0 0 1 .47-1q.89-.41 1.8-.8a.81.81 0 0 1 1.1.35l.71 1.74c1.29-.53 2.6-1 3.93-1.47a1.36 1.36 0 0 1 .57-.06 1.1 1.1 0 0 1 1 .74l.41 1.32a1.19 1.19 0 0 1-.81 1.44l-.59.21q-1.58.55-3.12 1.18l.7 1.72a.76.76 0 0 1-.42 1l-1.56.69a.76.76 0 0 1-1-.35l-.8-1.68c-1.59.76-3.14 1.59-4.65 2.48l.94 1.6a.76.76 0 0 1-.27 1c-.48.29-1 .59-1.44.9a.76.76 0 0 1-1-.21l-1-1.55q-2.19 1.46-4.24 3.11l1.17 1.45a.76.76 0 0 1-.12 1.06q-.65.54-1.29 1.1a.76.76 0 0 1-1.07-.05l-1.24-1.38q-2 1.76-3.77 3.69l1.36 1.27a.76.76 0 0 1 0 1.07q-.57.63-1.13 1.28a.77.77 0 0 1-1.07.1l-1.43-1.19c-.84 1-1.66 2-2.44 3.12a1.19 1.19 0 0 1-1.62.34l-1.14-.79a1.18 1.18 0 0 1-.35-1.7z"></path></symbol>

<symbol id="icon-scoreboard-v2"><path fill="currentColor" d="M238.96 97.66l-.92-.82-1 1.1c-.42.47-1 .61-1.34.32s-.25-.9.17-1.37l1-1.1-1.81-1.61-1 1.1c-.42.47-1 .61-1.34.32s-.25-.9.17-1.37l1-1.1-1.86-1.66-1 1.1c-.42.47-1 .61-1.34.32s-.25-.9.17-1.37l1-1.1-1.9-1.65-1 1.1c-.42.47-1 .61-1.34.32s-.25-.9.17-1.37l1-1.1-.92-.82a.87.87 0 0 1-.07-1.22l.14-.16a.87.87 0 0 1 1.22-.07l.92.82 1-1.1c.42-.47 1-.61 1.34-.32s.25.9-.17 1.37l-1 1.1 1.86 1.66 1-1.1c.42-.46 1-.61 1.34-.32s.25.9-.17 1.37l-1 1.1 1.86 1.66 1-1.1c.42-.47 1-.61 1.34-.32s.25.9-.17 1.37l-1 1.1 1.81 1.61 1-1.1c.42-.47 1-.61 1.34-.32s.25.91-.17 1.37l-1 1.1.92.82a.87.87 0 0 1 .07 1.22l-.14.16a.87.87 0 0 1-1.18.06z"></path><path fill="currentColor" d="M252.72 108.67a8.92 8.92 0 0 0 1.75-5.45 23.61 23.61 0 0 0-.4-5.41l-.58-2.45-.11-.48-.1-.39a32.19 32.19 0 0 0-9.2-14.7 32.55 32.55 0 0 0-15.48-7.53l-.81-.15-2.94-.31c-4.76-.28-8.66.73-10.42 2.7-1.25 1.4-1.61 3.69-1.7 5.37a23.68 23.68 0 0 0 .34 5.13l.65 3 .21.72a32 32 0 0 0 9.14 14.66 32.39 32.39 0 0 0 15.61 7.5h.32l3.07.38c4.89.38 8.89-.61 10.65-2.59zm-37.19-33.16c1.42-1.59 4.9-2.45 9.2-2.2l-10.21 11.44c-.71-4.28-.26-7.81 1.02-9.25zm36.06 32.16c-1.41 1.58-5 2.43-9.46 2.13l10.46-11.77c.8 4.44.37 8.11-1 9.63zm-27.54-5.41a30.39 30.39 0 0 1-8.7-14l13-14.54a30.91 30.91 0 0 1 14.75 7.17 30.56 30.56 0 0 1 8.75 14l-12.89 14.51a30.75 30.75 0 0 1-14.91-7.15zM30.63 70.12A238.55 238.55 0 0 0-.04 87.38a231.81 231.81 0 0 1 30.62-11.11zm145-70.09c-6.6 0-12 5.93-12 13.18v28.62q12.1 1.4 24 3.94V13.18c0-7.25-5.4-13.15-12-13.15zm-12 147.33h-102V13.18c0-7.25-5.4-13.18-12-13.18s-12 5.93-12 13.18v146.18a12 12 0 0 0 12 12h51v65h24v-65h51a12 12 0 0 0 12-12V96.18a213.88 213.88 0 0 0-24-9.93z"></path><path d="M206.05 92.26l-.33-1-.88-3.47v-.17a31.33 31.33 0 0 1-.67-6.78c.08-4.16 1.15-7.52 3.2-10 3.15-3.78 9-6.15 16.1-6.06l3.23.4.46.07a246.15 246.15 0 0 0-158.53-9.22v12.82a226.47 226.47 0 0 1 45-.41 221 221 0 0 1 96.23 32 41 41 0 0 1-3.81-8.18z"></path></symbol>

<symbol id="icon-lineup"><path fill="currentColor" d="M71.16 45.87l-11.7-11.7L70.82 22.8l-6.26-6.26-11.37 11.37-11.7-11.71-6.26 6.27 11.7 11.7-11.36 11.36 6.26 6.26 11.36-11.36 11.7 11.7 6.27-6.26m91.85 15.96l-11.7-11.7 11.37-11.36-6.27-6.27-11.36 11.37-11.7-11.7-6.26 6.26 11.7 11.7-11.37 11.36 6.26 6.27 11.37-11.37 11.7 11.7 6.26-6.26m-138.37 8.2a20.8 20.8 0 1 0 20.8 20.8 20.8 20.8 0 0 0-20.8-20.8zm0 32.74a11.94 11.94 0 1 1 11.94-11.94 12 12 0 0 1-11.94 11.93zm101.45-15.59a20.8 20.8 0 1 0 20.8 20.8 20.8 20.8 0 0 0-20.8-20.8zm0 32.74a11.94 11.94 0 1 1 11.94-11.94 12 12 0 0 1-11.94 11.94z"></path><path d="M114.12 17.17l-3.7-4.11-6.69-7.43-3.7-4.11a4.42 4.42 0 0 0-6.69 0l-3.7 4.11-6.69 7.43-3.7 4.11c-1.84 2-1.1 3.71 1.65 3.71h10.28v53.86a46.72 46.72 0 0 1-46.67 46.67H4.89a5.53 5.53 0 0 0 0 11h40.09a57.65 57.65 0 0 0 57.15-55.72v-55.8h10.28c2.81 0 3.55-1.67 1.71-3.72z"></path></symbol>

<symbol id="icon-lineup-v2"><path d="M153.71,277.94a2.5,2.5,0,0,0,3.54,0l3.9-3.8L165,278a2.5,2.5,0,0,0,3.49-3.58l-3.8-3.71,3.8-3.71a2.5,2.5,0,1,0-3.49-3.58l-3.9,3.8-3.9-3.8a2.5,2.5,0,0,0-3.49,3.58l3.8,3.71-3.8,3.71A2.5,2.5,0,0,0,153.71,277.94Zm26.65-14.48a2.5,2.5,0,0,0,0,3.54l3.8,3.71-3.8,3.71A2.5,2.5,0,1,0,183.9,278l3.9-3.8,3.9,3.8a2.5,2.5,0,0,0,3.49-3.58l-3.8-3.71,3.8-3.71a2.5,2.5,0,0,0-3.49-3.58l-3.9,3.8-3.9-3.8A2.5,2.5,0,0,0,180.36,263.46Zm26.73,14.48a2.5,2.5,0,0,0,3.54,0l3.9-3.8,3.9,3.8a2.5,2.5,0,0,0,3.49-3.58l-3.8-3.71,3.8-3.71a2.5,2.5,0,1,0-3.49-3.58l-3.9,3.8-3.9-3.8a2.5,2.5,0,1,0-3.49,3.58l3.8,3.71-3.8,3.71A2.5,2.5,0,0,0,207.09,277.94ZM181,255.75a2.5,2.5,0,0,0,1.74-4.29l-3.8-3.71,3.8-3.71a2.5,2.5,0,1,0-3.49-3.58l-3.9,3.8-3.9-3.8A2.5,2.5,0,0,0,168,244l3.8,3.71-3.8,3.71a2.5,2.5,0,1,0,3.49,3.58l3.9-3.8,3.9,3.8A2.49,2.49,0,0,0,181,255.75Z" transform="translate(-121.21 -222.3)"></path><path fill="currentColor" d="M161.14,304.91A1.88,1.88,0,0,0,163,303V286.41h3.44a1.87,1.87,0,0,0,0-3.75H155.83a1.88,1.88,0,0,0,0,3.75h3.44V303A1.88,1.88,0,0,0,161.14,304.91Zm-34,8.2a1.88,1.88,0,0,0-1.2,2.37c.65,2,1.39,4,2.18,6a1.88,1.88,0,0,0,3.48-1.39c-.76-1.91-1.47-3.84-2.1-5.76A1.87,1.87,0,0,0,127.12,313.11Zm4-63.46a1.87,1.87,0,0,0,2.5-.88c.89-1.85,1.84-3.67,2.84-5.42a1.87,1.87,0,1,0-3.26-1.86c-1,1.82-2,3.73-3,5.66A1.87,1.87,0,0,0,131.08,249.65Zm-5,14.12a1.88,1.88,0,0,0,2.32-1.28c.56-2,1.2-3.91,1.89-5.82a1.88,1.88,0,1,0-3.52-1.28c-.72,2-1.39,4-2,6.07A1.88,1.88,0,0,0,126.05,263.77Zm93.7-12.67h0a1.88,1.88,0,0,0,1.87-1.85l.08-6.5,6.85-.36a1.88,1.88,0,1,0-.2-3.75l-8.6.45a1.88,1.88,0,0,0-1.78,1.85l-.1,8.26A1.88,1.88,0,0,0,219.76,251.1Zm15.37,20.61c.56,2,1.06,4,1.48,5.94a1.88,1.88,0,0,0,3.67-.78c-.44-2.07-1-4.15-1.54-6.19a1.88,1.88,0,0,0-3.61,1Zm-111.7,6.81h.21a1.88,1.88,0,0,0,1.86-1.66c.23-2,.53-4.05.9-6a1.88,1.88,0,0,0-3.69-.68c-.39,2.08-.7,4.21-.94,6.31A1.87,1.87,0,0,0,123.43,278.52ZM229.92,258c.87,1.8,1.7,3.68,2.45,5.6a1.88,1.88,0,0,0,1.74,1.19,1.85,1.85,0,0,0,.69-.13,1.87,1.87,0,0,0,1.05-2.43c-.79-2-1.66-4-2.57-5.85a1.87,1.87,0,0,0-3.37,1.64Zm9.71,26a1.87,1.87,0,0,0-1.65,2.07c.23,2,.39,4.07.47,6.1a1.87,1.87,0,0,0,1.87,1.8h.08a1.88,1.88,0,0,0,1.79-2c-.09-2.11-.26-4.25-.5-6.36A1.87,1.87,0,0,0,239.64,284Zm-51.84,4.34a9,9,0,1,0,8.95,9A9,9,0,0,0,187.79,288.37Zm0,13a4,4,0,1,1,3.95-4A4,4,0,0,1,187.79,301.34Zm-64.45-7.84a1.87,1.87,0,0,0,1.76-2c-.1-1.65-.14-3.33-.14-5,0-.38,0-.75,0-1.13a1.88,1.88,0,0,0-3.75-.05q0,.59,0,1.18c0,1.73.05,3.48.15,5.2a1.88,1.88,0,0,0,1.87,1.77Zm118.42,12c.16-1.51.3-3,.39-4.54a1.88,1.88,0,0,0-1.77-2,1.9,1.9,0,0,0-2,1.77c-.08,1.39-.2,2.79-.35,4.18a9,9,0,1,0,3.71.57Zm-3.17,12.38a4,4,0,1,1,3.95-4A4,4,0,0,1,238.59,317.9ZM225,243.31a1.88,1.88,0,0,0-2.82,2.47,42.27,42.27,0,0,1,3.57,4.8,1.88,1.88,0,1,0,3.14-2A46.08,46.08,0,0,0,225,243.31Zm-10.49,45.06a9,9,0,1,0,8.95,9A9,9,0,0,0,214.52,288.37Zm0,13a4,4,0,1,1,3.95-4A4,4,0,0,1,214.52,301.34ZM127.18,306c-.46-2-.85-4-1.16-6a1.88,1.88,0,0,0-3.7.58c.33,2.08.73,4.19,1.21,6.26a1.88,1.88,0,0,0,1.83,1.46,1.84,1.84,0,0,0,.42,0A1.87,1.87,0,0,0,127.18,306Zm34,1.8a9,9,0,1,0,8.95,9A9,9,0,0,0,161.14,307.84Zm0,13a4,4,0,1,1,3.95-4A4,4,0,0,1,161.14,320.82Zm-26.39,6a9,9,0,1,0,8.95,9A9,9,0,0,0,134.75,326.83Zm0,13a4,4,0,1,1,3.95-4A4,4,0,0,1,134.75,339.8ZM142.17,229a55.59,55.59,0,0,0-4.12,5,1.88,1.88,0,0,0,3,2.23,51.8,51.8,0,0,1,3.84-4.65,1.87,1.87,0,0,0-2.73-2.57Zm7.28-5.37-8.52-1.28a1.88,1.88,0,1,0-.56,3.71l6.78,1-.54,6.48a1.88,1.88,0,0,0,1.71,2h.16a1.87,1.87,0,0,0,1.87-1.72l.69-8.23A1.88,1.88,0,0,0,149.44,223.61Z" transform="translate(-121.21 -222.3)"></path></symbol>

<symbol id="icon-locker"><path fill="currentColor" d="M58.58 6.33H34.12a.42.42 0 0 0-.42.42v59.17a.42.42 0 0 0 .42.42h24.5a.42.42 0 0 0 .42-.42V6.75a.42.42 0 0 0-.42-.42zM48 57.33a1.1 1.1 0 0 1-1.19 1h-9.84a1.1 1.1 0 0 1-1.19-1v-7a1.1 1.1 0 0 1 1.19-1h9.85a1.1 1.1 0 0 1 1.19 1zm-8.88-13a2.91 2.91 0 0 0-.39 1.44v2.41h-1.7v-2.41a4.64 4.64 0 0 1 2.09-3.92v2.42zm1.33-.22V33.72a1.43 1.43 0 1 1 2.86 0v10.34a1.43 1.43 0 0 1-2.86 0zm4.19.22V41.9a4.64 4.64 0 0 1 2.08 3.87v2.41h-1.71v-2.41a2.9 2.9 0 0 0-.36-1.49zM54.9 25.26H37.58a1 1 0 1 1 0-2h17.33a1 1 0 0 1 0 2zm0-5.1H37.58a1 1 0 1 1 0-2h17.33a1 1 0 0 1 0 2zm0-5.1H37.58a1 1 0 0 1 0-2h17.33a1 1 0 0 1 0 2z"></path><path fill="currentColor" d="M41.89 51.39a1.56 1.56 0 0 0-.43 3.06v1.72a.43.43 0 0 0 .85 0v-1.72a1.56 1.56 0 0 0-.43-3.06zm-26.96 0a1.56 1.56 0 0 0-.43 3.06v1.72a.43.43 0 0 0 .85 0v-1.72a1.56 1.56 0 0 0-.43-3.06z"></path><path fill="currentColor" d="M31.25 6.33H6.75a.42.42 0 0 0-.42.42v59.17a.42.42 0 0 0 .42.42h24.5a.42.42 0 0 0 .42-.42V6.75a.42.42 0 0 0-.42-.42zm-10.2 51a1.1 1.1 0 0 1-1.19 1h-9.85a1.1 1.1 0 0 1-1.19-1v-7a1.1 1.1 0 0 1 1.19-1h9.85a1.1 1.1 0 0 1 1.19 1zm-8.87-13a2.91 2.91 0 0 0-.39 1.44v2.41h-1.67v-2.41a4.64 4.64 0 0 1 2-3.92v2.21c0 .07 0 .14.05.21zm1.33-.22V33.72a1.43 1.43 0 1 1 2.86 0v10.34a1.43 1.43 0 0 1-2.86 0zm4.19.22V41.9a4.64 4.64 0 0 1 2.08 3.87v2.41h-1.66v-2.41a2.9 2.9 0 0 0-.43-1.49zm10-19.07H10.33a1 1 0 1 1 0-2h17.33a1 1 0 1 1 0 2zm0-5.1H10.33a1 1 0 1 1 0-2h17.33a1 1 0 1 1 0 2zm0-5.1H10.33a1 1 0 0 1 0-2h17.33a1 1 0 0 1 0 2z"></path><path d="M63.06 0H2.27A2.27 2.27 0 0 0 0 2.27V70.4a2.27 2.27 0 0 0 2.27 2.27h60.8a2.27 2.27 0 0 0 2.27-2.27V2.27A2.27 2.27 0 0 0 63.06 0zm-2.07 65.92a2.42 2.42 0 0 1-2.42 2.42H34.12a2.41 2.41 0 0 1-1.42-.47 2.41 2.41 0 0 1-1.42.47H6.75a2.42 2.42 0 0 1-2.42-2.42V6.75a2.42 2.42 0 0 1 2.42-2.42h24.5a2.41 2.41 0 0 1 1.42.47 2.41 2.41 0 0 1 1.42-.47h24.5a2.42 2.42 0 0 1 2.42 2.42z"></path></symbol>

<symbol id="icon-helmet"><path fill="currentColor" d="M5.82 55.05l.26-.08c-1.89-4-5.35-12.36-6-21.33a40.89 40.89 0 0 1 0-5.21q0-.52.06-1a30.74 30.74 0 0 1 1.55-7.62A27.07 27.07 0 0 1 7.97 9.19a28.44 28.44 0 0 1 23.89-9C50.93 2.14 58.68 20 60.08 23.07c0 0-15.7 5.6-14 14.61s2.52 19.09-5.88 23.34c-9.9 5-17.84-3.92-20.2-4.39-1.89-.38-8.87.35-11.61.66l-.81.16a6.6 6.6 0 0 0-.86.24 1.3 1.3 0 0 1-1.68-.84 1.4 1.4 0 0 1 .78-1.8zm32.73-15.43a10.64 10.64 0 0 1 3.23 6.41 8.18 8.18 0 0 1 .08 1.19h.3l1.58.1a9.81 9.81 0 0 0-.1-1.56 12.72 12.72 0 0 0-3.86-7.66 9.13 9.13 0 0 0-3.72-2.12 12.81 12.81 0 0 0-5.28-.29c-.35 0-.71.1-1.08.17l.36 2 1-.16a11.07 11.07 0 0 1 4.56.23 7.23 7.23 0 0 1 2.92 1.69zm-6 13.64a5.69 5.69 0 0 0 6.12-5.46 6.09 6.09 0 0 0-5.23-6.62 5.69 5.69 0 0 0-6.12 5.46 6.09 6.09 0 0 0 5.18 6.62zM9.11 54l2.28-1a83.84 83.84 0 0 1-5.38-20.1 21 21 0 0 1 0-4.11v-.84a24.41 24.41 0 0 1 1.23-6.07 21.48 21.48 0 0 1 5-8.38 22.75 22.75 0 0 1 19.12-7.22 24.47 24.47 0 0 1 13.32 5.62 33.1 33.1 0 0 1 7.28 8.71l2.1-1.38a35.8 35.8 0 0 0-7.87-9.42 26.94 26.94 0 0 0-14.63-6.18 25.11 25.11 0 0 0-21.07 8 24.13 24.13 0 0 0-5.57 9.36 27.17 27.17 0 0 0-1.37 6.75c0 .31 0 .62-.05.93a23.28 23.28 0 0 0 0 4.64 86.66 86.66 0 0 0 5.57 20.7z"></path><path d="M52.37 49.76c-.74-2.59-1.46-5.14-1.61-5.66h-.3a2.76 2.76 0 0 1-.86-.23 3.36 3.36 0 0 1-1-.77c-.2-1.78-.5-3.57-.84-5.34a5.26 5.26 0 0 1-.08-.61 20.13 20.13 0 0 1 1.58 2.34l.54.9c-.59-2.18-1.15-4.28-1.62-6.08a10.08 10.08 0 0 1 1.89-2.81 118.62 118.62 0 0 1 12.47-7.13 44.09 44.09 0 0 0-2.17-5.06 1.42 1.42 0 0 1 .51-1.88 1.28 1.28 0 0 1 1.77.58 46.9 46.9 0 0 1 2.73 6.6 1.39 1.39 0 0 1-.82 1.74h-.19a1.2 1.2 0 0 1-.35.26 114.61 114.61 0 0 0-13.22 7.57c.55 2.09 1.2 4.52 1.87 7 6.53-.54 11.1-1 14.07-1.39l1.06-.13c-.08-.33-.14-.59-.19-.77l-.07-.27v-.06a1.35 1.35 0 0 1 .85-1.68 1.29 1.29 0 0 1 1.59.93s.16.57.38 1.52l.74-.12h.25a1.31 1.31 0 0 1 1.49 1.11 1.33 1.33 0 0 1-1 1.57l-.92.15a44.9 44.9 0 0 1 1 8.06l1.1-.07a1.36 1.36 0 0 1 1.41 1.3 1.34 1.34 0 0 1-1.19 1.48l-1.32.08c0 1.23-.1 2.62-.21 4.22s-.29 3-.54 4.53h.28a1.35 1.35 0 0 1 1.23 1.42 1.28 1.28 0 0 1-1.31 1.29h-.73q-.26 1.12-.59 2.25a1.24 1.24 0 0 1-1.59.87 1.4 1.4 0 0 1-.84-1.72c.15-.53.29-1.06.43-1.59l-.87-.08a35.12 35.12 0 0 1-6-1 12.52 12.52 0 0 1-2.88-1.17 7.11 7.11 0 0 1-2.94-3.15c-.34-.68-.58-1.35-.85-2-.11-.27-.22-.59-.36-1s-.5-1.63-.93-3.12q-2.25-.14-4.6-.33a24 24 0 0 0 .3-2.76zm3.85 4.16c.25.81.47 1.43.6 1.74a19.11 19.11 0 0 0 .9 2.05 4.33 4.33 0 0 0 .84 1.09 5.16 5.16 0 0 0 1 .74 11.79 11.79 0 0 0 2.83 1 36.47 36.47 0 0 0 4.88.78l1.24.11c.27-1.56.46-3.1.57-4.61.1-1.35.15-2.63.17-3.87-2 0-4.39.05-7 0-2 0-4.13-.11-6.38-.22zm-1.18-4c2.56.14 5 .22 7.2.27 2.65.05 5 0 7 0a44.59 44.59 0 0 0-.94-7.8c-1.84.24-4.47.55-8.06.9h-.35c-1.92.19-4.09.38-6.55.59.23.8 1.2 4.27 1.7 6.04z"></path></symbol>

<symbol id="icon-helmet-v2"><path d="M34.1 55.9c.22-.77.65-2.15 1.1-3.63s1-3.2 1.33-4.39c.08-.28.16-.56.23-.83.55-2.08 1.18-4.44 4.88-5.95 1.4-.57 6.83-3 12.57-5.47 7.37-3.23 15-6.58 16.54-7.17a8.44 8.44 0 0 1 3-.64 7.26 7.26 0 0 1 4.44 1.8 5 5 0 0 1 2.2 4.56 3.86 3.86 0 0 1-2.55 3c-2 .84-20.36 9-20.36 9 .77 1.63 1.71 3.65 2.81 6 6.59-.52 20.21-2.85 25.64-3.84l1.45-.27 3.35 8.3.23 1.94s1.21 10.4 1.44 12.27a4.22 4.22 0 0 1-.73 3.48c-1 1.15-2.68 1.41-4.87 1.46h-1.79c-11.9 0-18.8-1.74-20.51-5.18-.55-1.11-1.75-3.59-3.56-7.38-7.71.65-12.42 1-14 1.08h-1.69a18.16 18.16 0 0 1-7.4-1.35l-.63-.23c-2.86-1.04-4.04-3.49-3.12-6.56zm42.23-22.47a1.79 1.79 0 0 0-.53-.61c-1-.76-1.47-1-2-1a4.64 4.64 0 0 0-1.56.37c-1.46.56-9.38 4-16.37 7.1-5.77 2.53-11.22 4.92-12.67 5.51l-.12.05c4 2.74 9.17 5.82 12.61 6.93-1.67-3.55-2.78-6-2.78-6l-.85-1.79zm-8.23 35.1c.59 1.18 5.57 2.94 16.88 2.94h1.71a11.6 11.6 0 0 0 1.7-.13v-.33c-.17-1.36-.85-7.25-1.21-10.35-4 .35-13.23 1.17-21.93 1.91 1.41 3 2.38 5 2.85 5.96zm18.67-11.87l-1.58-4.19c-4.12.73-15.86 2.77-23.12 3.49l1.3 2.73c9.11-.79 19.23-1.66 23.41-2.03zm-48.18 2l.67.25a15.58 15.58 0 0 0 7.48 1.06c1.42-.06 5.56-.38 12.33-.94l-1.35-2.84h-.22c-4.62-.18-12.56-5.17-16.88-8.13-.08.3-.16.6-.25.92-.35 1.2-.86 2.87-1.34 4.43s-.86 2.81-1.08 3.57c-.38 1.35.01 1.49.65 1.72z"></path><path fill="currentColor" d="M31.41 54.79l-.1.34c-1.3 4.52.63 8.44 4.91 10l.62.23a21.12 21.12 0 0 0 4.34 1.23 7.72 7.72 0 0 1-12.7-5.81 7.57 7.57 0 0 1 2.93-5.99z"></path><path fill="currentColor" d="M2.28 23.54c6.12-13.7 24-27 44.58-22.73 15.93 3.28 23.78 17.77 26.53 24.2a11.52 11.52 0 0 0-3.72.82c-1.61.62-8.92 3.83-16.66 7.22h-.11c-5.68 2.49-11 4.84-12.39 5.4-5 2-5.94 5.54-6.56 7.85-.07.25-.13.5-.21.76-.17.58-.38 1.29-.61 2a11.92 11.92 0 0 0 3 23.49 12.08 12.08 0 0 0 10.32-5.77h.62c1.08 0 3.55-.23 7.36-.53a16.5 16.5 0 0 1-3.8 8c-4.72 5.52-11.72 5.1-18.91 2.44S9.38 67.34 9.38 67.34c-5.7-9.7-13.22-30.1-7.1-43.8zm42 52.46a1.88 1.88 0 1 0-1.9-1.87A1.89 1.89 0 0 0 44.31 76zm3.49-53.74c7 2.51 13.7 1.54 15.07-2.18s-3.15-8.76-10.1-11.28-13.7-1.54-15.07 2.18 3.18 8.77 10.13 11.28zM28.44 48.32a1.88 1.88 0 1 0-1.9-1.87 1.89 1.89 0 0 0 1.93 1.87zm-9.86 18.34a1.88 1.88 0 1 0-1.9-1.87 1.89 1.89 0 0 0 1.93 1.88zm-6.19-2.57a6 6 0 0 1 1.55-3.37c-4.84-10.21-9-25.41-4.5-35.48s16.53-20.25 31.17-21h-1.66c-15.37 0-28.14 10.57-32.8 21-4.96 11.27.82 28.91 6.27 38.86z"></path></symbol>

<symbol id="icon-stadium"><path fill="currentColor" d="M69.96 15.28a36.25 36.25 0 0 0-5.62-1.74 135.89 135.89 0 0 0-52 0 36.25 36.25 0 0 0-5.62 1.74 36.25 36.25 0 0 0 5.62 1.74 135.9 135.9 0 0 0 52 0 36.25 36.25 0 0 0 5.62-1.74zm-1.38 10.25q-1.1.33-2.33.64v3.87q1.23-.31 2.33-.64v-3.87zm0 10.33q-1.1.33-2.33.64v3.87q1.23-.31 2.33-.64v-3.87zm-5.29-9q-1.13.23-2.33.44v3.87q1.2-.21 2.33-.44v-3.9zm0 10.33q-1.13.23-2.33.44v3.87q1.2-.21 2.33-.44v-3.87zm-5.33-9.47l-2.33.3v3.87l2.33-.3v-3.87zm0 10.33l-2.33.3v3.87l2.33-.3v-3.87zm-5.29-9.71l-2.33.2v3.87l2.33-.2v-3.87zm0 10.33l-2.33.2v3.87l2.33-.2v-3.87zm-5.29-9.93l-2.33.12v3.87l2.33-.12v-3.87zm0 10.33l-2.33.12v3.87l2.33-.12v-3.87zm-5.29-10.12h-2.33v3.87h2.33v-3.87zm0 10.33h-2.33v3.87h2.33v-3.87zM36.8 28.99h-2.33v3.87h2.33v-3.87zm0 10.33h-2.33v3.87h2.33v-3.86zm-5.29-10.46l-2.33-.12v3.87l2.33.12v-3.87zm0 10.33l-2.33-.12v3.87l2.33.12v-3.87zm-5.26-10.66l-2.33-.2v3.87l2.33.2v-3.87zm0 10.33l-2.33-.2v3.87l2.33.2v-3.87zm-5.29-10.83l-2.33-.3v3.87l2.33.3v-3.87zm0 10.33l-2.33-.3v3.87l2.33.3v-3.87zm-5.29-11.1q-1.2-.21-2.33-.44v3.87q1.13.23 2.33.44v-3.87zm0 10.33q-1.2-.21-2.33-.44v3.87q1.13.23 2.33.44v-3.87zm-5.29-11.43q-1.23-.31-2.33-.64v3.87q1.1.33 2.33.64v-3.87zm0 10.33q-1.23-.31-2.33-.64v3.87q1.1.33 2.33.64v-3.83zM68.96 9.88v-6h.68v.65l7.11 1.46-7.1 1.54v2.61c4.4 1.47 7 3.25 7 5.18v28c0 5-17.15 9-38.31 9s-38.32-4-38.32-9v-28c0-1.93 2.58-3.72 7-5.18V3.92h.68v.61l7.11 1.46-7.15 1.54v2.4a67.36 67.36 0 0 1 9.65-2.13V1.35h.65v.68l7.11 1.46-7.11 1.41v2.75c3-.44 6.21-.78 9.66-1V.02h.68V.7l7.11 1.46-7.11 1.46v3c3.08-.2 6.32-.3 9.66-.31V.04h.68v.68l7.11 1.46-7.11 1.46v2.67c3.34 0 6.57.11 9.66.31V.04h.66v.68l7.11 1.46-7.11 1.43v3c3.44.23 6.69.58 9.65 1V1.26h.68v.68L66.4 3.4l-7.11 1.46v2.85a67.36 67.36 0 0 1 9.66 2.13z"></path></symbol>

<symbol id="icon-football"><path fill="currentColor" d="M42.46 49.23l6.78-6.78-2-2-2.39 2.39-3.11-3.11 2.39-2.39-2-2-2.39 2.39-3.1-3.11 2.39-2.39-2-2-2.38 2.39-3.11-3.11 2.39-2.39-2-2-2.39 2.39-3.11-3.11 2.39-2.39-2-2-6.77 6.82 2 2 2.39-2.39 3.11 3.11-2.39 2.39 2 2 2.39-2.39 3.11 3.11-2.39 2.39 2 2 2.38-2.43 3.11 3.11-2.39 2.39 2 2 2.39-2.39 3.11 3.11-2.39 2.39 2 2zm11.39-32.8c6.8 6.8 11.49 16.09 14.07 25L41.38 67.92c-8.86-2.58-18.15-7.27-25-14.07S4.89 37.76 2.31 28.9L28.85 2.36C37.71 4.94 47 9.63 53.8 16.43zM21.18.62L.62 21.18C-.7 12.87.08 5.83 2.96 2.95S12.87-.7 21.19.61zm48.47 48.47c1.32 8.31.54 15.35-2.34 18.23s-9.9 3.65-18.26 2.3l20.56-20.56z"></path></symbol>

<symbol id="icon-football-v2"><path fill="currentColor" d="M43.27 43.31c-15 15-32.87 18.68-35.07 17.24l.06.09c2.51 2.16 23.08 1.1 38.26-14.08s16.24-35.75 14.1-38.24l-.1-.06c1.47 2.2-2.18 20.03-17.25 35.05z"></path><path d="M43.95 21.91l-2.26 2.27-2.53-2.52-3.1 3.1 2.53 2.52-1.71 1.7-2.52-2.52-3.1 3.1 2.52 2.52-1.7 1.7-2.52-2.52-3.1 3.1 2.52 2.52-1.7 1.7-2.53-2.52-3.1 3.1 2.52 2.53-2.26 2.26 3.1 3.1 2.27-2.26 2.52 2.52 3.1-3.11-2.52-2.51 1.7-1.71 2.52 2.52 3.1-3.1-2.52-2.52 1.7-1.7 2.52 2.52 3.1-3.1-2.52-2.52 1.71-1.7 2.51 2.52 3.11-3.1-2.52-2.52 2.26-2.27-3.1-3.1"></path><path fill="currentColor" d="M65.95 3.01C59.4-3.54 33.86.34 17.1 17.1S-3.54 59.4 3.01 65.95s32.09 2.67 48.85-14.09S72.5 9.56 65.95 3.01zM6.11 62.89c-2.12-2.12-2.48-9.5 0-18.3l18.31 18.3c-8.81 2.43-16.15 2.08-18.31 0zM48.76 48.8a55.72 55.72 0 0 1-19.67 12.57L7.63 39.89A54.23 54.23 0 0 1 39.87 7.65L61.32 29.1a55.7 55.7 0 0 1-12.56 19.65zm14.1-24.34L44.55 6.1c8.81-2.46 16.18-2.11 18.3 0s2.47 9.5.01 18.31z"></path></symbol>

<symbol id="icon-yardmarker"><path fill="currentColor" d="M59.86,384.91a2.5,2.5,0,0,0-1.82-.79h-9.3v-3a13.75,13.75,0,1,0-5,0v3h-9.3a2.5,2.5,0,0,0-2.5,2.66l4.72,73.38a2.5,2.5,0,0,0,2.5,2.34h4.58v5.35a3.73,3.73,0,0,0-1.25,2.78v2a3.75,3.75,0,1,0,7.5,0v-2a3.73,3.73,0,0,0-1.25-2.78V462.5h4.58a2.5,2.5,0,0,0,2.5-2.34l4.72-73.38A2.5,2.5,0,0,0,59.86,384.91Z" transform="translate(-31.95 -353.85)"></path><path d="M37.49,367.6a8.75,8.75,0,1,1,8.75,8.75A8.76,8.76,0,0,1,37.49,367.6ZM51,457.5H41.51l-1.69-26.28H52.67Zm2.21-34.43H39.3l-.42-6.49H53.61Zm.94-14.64H38.35l-.42-6.49H54.55Zm.94-14.64H37.41l-.3-4.67H55.37Z" transform="translate(-31.95 -353.85)"></path><path fill="currentColor" d="M50.62,367.6A4.38,4.38,0,1,0,46.24,372,4.38,4.38,0,0,0,50.62,367.6Zm72.24,27.7h-.7V362.56h.7a2.5,2.5,0,0,0,0-5H91.46a2.5,2.5,0,0,0,0,5h.7V395.3h-.7a2.5,2.5,0,0,0,0,5h13.2v67.54a3.73,3.73,0,0,0-1.25,2.78v2a3.75,3.75,0,1,0,7.5,0v-2a3.73,3.73,0,0,0-1.25-2.78V400.3h13.2a2.5,2.5,0,0,0,0-5Z" transform="translate(-31.95 -353.85)"></path><rect x="65.21" y="8.73" width="20" height="32.71"></rect><path fill="currentColor" d="M104.75,384.82h-1.84v2.93h7.69v-2.93h-1.76V370.91h-3.68a2.32,2.32,0,0,1-.34,1.13,2.1,2.1,0,0,1-.84.73,4.08,4.08,0,0,1-1.23.33,11.81,11.81,0,0,1-1.55.1v2.74h3.54Z" transform="translate(-31.95 -353.85)"></path></symbol>

<symbol id="icon-standings"><path d="M343.93,365.91h3.17v-20a40.69,40.69,0,0,0,26.42,0v20h3.17v4.38h4.58v8.92H339.36v-8.92h4.58v-4.38Zm9.7-10.38a1.7,1.7,0,0,1-1.7,1.7v4.64a1.7,1.7,0,0,1,1.7,1.7H367a1.7,1.7,0,0,1,1.7-1.7v-4.64a1.7,1.7,0,0,1-1.7-1.7Z" transform="translate(-325.24 -304.04)"></path><path fill="currentColor" d="M372,328.12v-7.38h-2.17v2.61h-3.39v-2.61h-2.17v2.61h-3.39v-2.61h-2.17v2.61H355.3v-2.61h-2.17v2.61h-3.39v-2.61h-2.17v7.38h2.17v-2.61h3.39v2.61h2.17v-2.61h3.39v2.61h2.17v-2.61h3.39v2.61h2.17v-2.61h3.39v2.61ZM360.31,304c7.41,0,15,2.51,21.26,5.93v28.92c-6.24,3.42-13.85,5.93-21.26,5.93s-15-2.51-21.26-5.93V310c6.23-3.42,13.85-5.93,21.26-5.93Zm-26.42,9.19v22.41c-5.25-3.81-8.66-8.07-8.66-11.2s3.41-7.39,8.66-11.21Z" transform="translate(-325.24 -304.04)"></path><path fill="currentColor" d="M386.73,313.23c5.25,3.81,8.66,8.07,8.66,11.21s-3.41,7.39-8.66,11.2V313.23Z" transform="translate(-325.24 -304.04)"></path></symbol>

<symbol id="icon-standings-v2"><path fill="currentColor" d="M84.85 87.26c-.68-4.67-1.52-16.69-2.26-27.29-.72-10.3-1.34-19.2-1.85-22.33-.23-1.42-.44-3.43-.68-5.77-.76-7.3-1.71-16.39-4.64-22.6C73.79 5.8 71.05 0 60.75 0c-.77 0-1.59 0-2.44.09a11 11 0 0 0-8.56 5.09c-5.92 8.9-2.07 26.61-1.32 28.82.9 2.62 2.16 16 2.7 21.69v.32c.14 1.45.26 2.75.37 3.81.15 1.5.24 3.1.27 4.67a17.59 17.59 0 0 0-2.59-.19A20.81 20.81 0 0 0 37 68.44a10.19 10.19 0 0 0-3.71 5.18h-.59a20.74 20.74 0 0 0-5.16.7 12.58 12.58 0 0 0-9.38 9 20 20 0 0 0-2.37-.13h-1.5c-4.93.23-8.86 2.18-11.36 5.65-5.2 7.23-2.51 18.75.41 29 1 3.4.69 5.79.13 10.56l-.12 1c-.71 6.05-.36 16.35.29 19.29 1.38 6.21 7.44 9 12.5 9h.38c2.34 0 9.19.21 17.11.45 10.91.33 24.48.74 31.09.74 1.59 0 2.75 0 3.54-.07 1.25-.08 2.29-.11 3.22-.13 5.91-.16 8.93-1.33 11.2-7.79 1.48-4.22 1.35-17.82 1-29.11-.07-2.3-.12-4.28-.12-5.55 0-1.65.29-4.31.63-7.39.77-6.57 1.66-14.75.66-21.58z"></path><path d="M80.4 87.91c-.71-4.83-1.55-16.95-2.3-27.63-.68-9.77-1.33-19-1.8-21.92-.25-1.54-.47-3.62-.72-6-.69-6.59-1.63-15.62-4.23-21.15-1.62-3.44-3.15-6.69-10.59-6.69-.67 0-1.39 0-2.14.08a6.54 6.54 0 0 0-5.11 3.09c-4.48 6.73-1.71 22.22-.81 24.87 1.07 3.13 2.23 15.39 2.92 22.72.15 1.57.28 3 .39 4.1a52.89 52.89 0 0 1 0 11.71 9.91 9.91 0 0 0-6.74-2.28 16.28 16.28 0 0 0-9.58 3.2c-2 1.47-2.79 3.92-2.37 7.25a8.51 8.51 0 0 0-4.63-1.21 16.19 16.19 0 0 0-4 .57c-6.37 1.64-6.81 7.15-6.4 10.93a10 10 0 0 0-6.48-1.9h-1.29c-3.56.16-6.22 1.44-7.9 3.78-4 5.59-1.55 15.9 1.08 25.11 1.22 4.27.86 7.3.27 12.33l-.12 1a85.49 85.49 0 0 0 .22 17.79c1 4.36 5.72 5.51 8.09 5.51h.39c2.41 0 9.28.21 17.25.45 10.88.33 24.42.74 31 .74 1.5 0 2.57 0 3.27-.06 1.34-.08 2.47-.11 3.38-.14 4.41-.12 5.51-.32 7.07-4.78 1.32-3.77 1-19.42.77-27.48-.07-2.35-.13-4.39-.13-5.73 0-1.9.3-4.67.66-7.88.63-6.28 1.49-14.11.58-20.38zM41.29 74.22a13.57 13.57 0 0 1 7.91-2.74c2.4 0 4.48.79 5.3 2a3.63 3.63 0 0 0 .38.48l1.33 6.49a1.32 1.32 0 0 0 .06.21c2.12 5.59 2.37 7.51 2.44 8.87a18.22 18.22 0 0 1-.19 3.71c0 .26-.06.5-.08.73-4.23-1.67-11.81-4.54-13.7-4.54a4.17 4.17 0 0 0-.79.09 3.55 3.55 0 0 0-.29-.67c-3.93-7.36-4.81-12.84-2.37-14.62zm-11.93 7a13.57 13.57 0 0 1 3.33-.48c4.05 0 5.29 2.75 6.72 5.94a22.39 22.39 0 0 0 1.67 3.24c.17.25.31.46.44.63a14.32 14.32 0 0 0-4.08 5c-1.67 3.29.15 10.95 2.16 13.53l.41.54.36.47a13.67 13.67 0 0 1-6.57-1.81 20.55 20.55 0 0 0-1.16-2.27 20.78 20.78 0 0 1-1-2c-1-2.46-5-9.16-6-10.83a10.39 10.39 0 0 0-.21-1.27c-1.01-4.77-1.19-9.32 3.93-10.64zm47.72 26.8c-.36 3.29-.67 6.13-.67 8.17 0 1.39.06 3.44.13 5.81.2 7 .54 23.22-.61 26.51-.59 1.68-.94 2.36-1.34 2.6a8.78 8.78 0 0 1-3.27.37c-.93 0-2.08.06-3.47.14-.63 0-1.67.06-3.1.06-6.5 0-20-.41-30.88-.74-8-.24-14.89-.45-17.33-.45h-.39c-1.31 0-4.84-.61-5.46-3.4a84 84 0 0 1-.17-16.89l.12-1c.61-5.17 1-8.59-.35-13.38-1.78-6.22-5.08-17.79-1.49-22.8 1.2-1.67 3.11-2.54 5.84-2.66h1.17a7.37 7.37 0 0 1 6.75 3.31 4.07 4.07 0 0 0 .7.76c.92 1.54 4.89 8.25 5.85 10.54a22.62 22.62 0 0 0 1.18 2.31c1.1 2 1.73 3.22 1.06 4-1.54 1.81-9.19 4.69-12.05 3.15-2.62-1.4-5.18-5.93-5.95-7.56a1.35 1.35 0 0 0-2.44 1.15c.13.27 3.17 6.68 7.12 8.79a7.36 7.36 0 0 0 3.45.72c4.46 0 10.23-2.5 11.93-4.5a3.81 3.81 0 0 0 .8-1.5 16.22 16.22 0 0 0 8.39 1.19 14.46 14.46 0 0 0 10.56 4.84h.4a1.35 1.35 0 0 0-.08-2.7c-6 .17-9.43-4.38-11.28-6.82l-.43-.57c-1.56-2-2.93-8.6-1.89-10.65 1.34-2.64 3.48-4.71 4.87-4.71 1.24 0 8.61 2.68 15.07 5.29a15.67 15.67 0 0 0 2.28 1.5c4.27 2.43 4.93 2.8 8.16 12.57a1.35 1.35 0 0 0 1.28.92 1.33 1.33 0 0 0 .42-.07 1.35 1.35 0 0 0 .86-1.7c-3.33-10.08-4.28-11.16-9.38-14.06-2.44-1.39-2.44-1.39-2.23-3a20.85 20.85 0 0 0 .21-4.21c-.08-1.56-.35-3.71-2.57-9.58l-1.21-5.76c2.19-2.42 1.06-14.83 1-15-.11-1.12-.25-2.52-.39-4.08-1-10.49-2-20.17-3.06-23.34-1.18-3.46-2.94-17.33.5-22.5a3.83 3.83 0 0 1 3-1.89c.7 0 1.36-.07 2-.07 5.73 0 6.64 1.93 8.15 5.14 2.41 5.11 3.32 13.88 4 20.28.25 2.44.47 4.56.74 6.18.45 2.8 1.1 12 1.77 21.68.79 11.26 1.6 22.9 2.32 27.83.97 5.98.08 13.66-.59 19.82z"></path><path d="M30.81 129.09l.87-3.55h4.37l-.7 3.55h2.29l.87-3.55h4.62l-.87 3.55h2.48v3.75h-3.38l-.57 2.39h2.58v3.78h-3.5l-.94 4h-4.62l.94-4h-2.21l-.94 4h-4.62l.94-4h-2.46v-3.75h3.38l.57-2.39h-2.58v-3.75zm2.71 6.51h2.91l.75-3.13h-2.91zm28.95 4.75v5.28H46.73v-5.28h4.59v-12.69l-3.68 1.27-1.62-4.92 6.31-2.4h5.93v18.76z"></path></symbol>

<symbol id="icon-roster"><path fill="currentColor" d="M60.6 58.34l.24-.29a5.72 5.72 0 0 0 1.18-3.71 5.88 5.88 0 0 0-2.65-5.18 9.6 9.6 0 0 0-5.35-1.36 12.73 12.73 0 0 0-7.79 2.29l-.33.28-.34-.27a6 6 0 0 0-1.11-.94 9.6 9.6 0 0 0-5.35-1.36 12.73 12.73 0 0 0-7.79 2.29 1.26 1.26 0 0 0-.5 1v4.59a1.25 1.25 0 0 0 1.25 1.25h2.59v3.18h-2.69a1.25 1.25 0 0 0-1.25 1.25v5.22a1.24 1.24 0 0 0 .46 1 11.76 11.76 0 0 0 7.64 2.28 10.37 10.37 0 0 0 5.8-1.4 5.61 5.61 0 0 0 1-.83l.29-.3.32.26a11.84 11.84 0 0 0 7.52 2.23 10.38 10.38 0 0 0 5.83-1.35c1.73-1.16 2.61-3.07 2.61-5.67a6.31 6.31 0 0 0-1.31-4.21zm-16.68 9.12a9.3 9.3 0 0 1-5.11 1.15 10.52 10.52 0 0 1-6.83-2v-5.22h5.7v.7a8.61 8.61 0 0 0 .09 1.54c.14.63.46.95 1 .95q1.41 0 1.41-2a2.12 2.12 0 0 0-.6-1.73 2.94 2.94 0 0 0-1.87-.39h-1.83v-3.8h1.51a4.52 4.52 0 0 0 1.89-.26 1.69 1.69 0 0 0 .69-1.62q0-1.67-1.23-1.67a.93.93 0 0 0-.93.77 6 6 0 0 0-.15 1.58v.23h-5.62V51.1a11.48 11.48 0 0 1 7-2 8.34 8.34 0 0 1 4.66 1.16 4.61 4.61 0 0 1 2.11 4.08 3.91 3.91 0 0 1-2.46 4q2.6.95 2.6 4.46.03 3.29-2.03 4.66zm14.89 0a9.3 9.3 0 0 1-5.13 1.14 10.53 10.53 0 0 1-6.83-2v-5.22h5.7v.7a8.47 8.47 0 0 0 .09 1.54q.21.95 1 .95 1.41 0 1.41-2a2.13 2.13 0 0 0-.6-1.73 3 3 0 0 0-1.81-.43h-1.83v-3.75h1.51a4.51 4.51 0 0 0 1.89-.26 1.68 1.68 0 0 0 .69-1.62q0-1.67-1.23-1.67a.93.93 0 0 0-.93.77 5.93 5.93 0 0 0-.15 1.58v.23h-5.63V51.1a11.48 11.48 0 0 1 7-2 8.34 8.34 0 0 1 4.66 1.16 4.61 4.61 0 0 1 2.09 4.13 3.91 3.91 0 0 1-2.46 4q2.6.95 2.6 4.46.05 3.24-2.04 4.61z"></path><path fill="currentColor" d="M85.05 54.16s4-7-2.4-16.46-18.61-11.15-25.21-4.75-11 6.27-11 6.27-4.4.13-11-6.27-18.81-4.71-25.22 4.75-2.41 16.46-2.41 16.46L.01 64.37l11.41 7.6 9.19-13.41a17.21 17.21 0 0 0 5.4 8.6v15.71h40.8v-15.7a17.21 17.21 0 0 0 5.4-8.6l9.21 13.41 11.41-7.6zm-25 15.1a11.19 11.19 0 0 1-6.33 1.5 12.94 12.94 0 0 1-7.76-2.18 6.07 6.07 0 0 1-.84.67 11.2 11.2 0 0 1-6.31 1.51 12.63 12.63 0 0 1-8.19-2.5 2.14 2.14 0 0 1-.79-1.67v-5.22a2.15 2.15 0 0 1 2.15-2.15h1.77v-1.38h-1.71a2.15 2.15 0 0 1-2.15-2.15V51.1a2.17 2.17 0 0 1 .87-1.72 13.63 13.63 0 0 1 8.33-2.47 10.47 10.47 0 0 1 5.85 1.55 7 7 0 0 1 1 .78 13.75 13.75 0 0 1 8.09-2.3 10.47 10.47 0 0 1 5.78 1.52 6.74 6.74 0 0 1 3.05 5.93 6.82 6.82 0 0 1-1.16 4A7.38 7.38 0 0 1 63 62.9c.05 2.86-.96 5.02-2.96 6.36z"></path><circle fill="currentColor" cx="45.97" cy="19.6" r="12.52"></circle><path d="M45.98 34.86a15.54 15.54 0 0 1-15.52-15.52h1.2a14.32 14.32 0 1 0 28.64 0h1.2a15.54 15.54 0 0 1-15.52 15.52zM50.81.71v4.75h-3.2V.07c-.54-.05-1.09-.08-1.65-.08s-1.11 0-1.65.08v5.39h-3.2V.7a17.07 17.07 0 0 0-12.2 16.36h34.13A17.07 17.07 0 0 0 50.81.71z"></path></symbol>

<symbol id="icon-roster-v2"><path fill="currentColor" d="M252.54,456.87a2.62,2.62,0,0,0,0-.37,2.39,2.39,0,0,0-.08-.52,89,89,0,0,0-1.89-10.83,2.5,2.5,0,0,0-.15-.44,19.7,19.7,0,0,0-.07-3.24,19.89,19.89,0,0,1-.09-2.83,2.5,2.5,0,0,0-.73-1.93l-3.25-3.25a2.5,2.5,0,0,0-1.38-.7L227.46,430a2.49,2.49,0,0,0-1.47.22l-5.23,2.51a2.5,2.5,0,0,0-1.06,1L219,435l-7.17,0a9.52,9.52,0,0,0-6,2.64l-.89-1a9.82,9.82,0,0,0,5-8c0-.44.1-.87.15-1.29a39.84,39.84,0,0,0,5.36-20.16c0-22-9.76-34.06-27.5-34.06s-27.5,12.1-27.5,34.06A39.57,39.57,0,0,0,165.56,427l.15-.09c.07.53.13,1.08.19,1.65a9.85,9.85,0,0,0,5,8l-1,1.23a12.67,12.67,0,0,0-5.64-2.8,3.79,3.79,0,0,0-.44,0l-7.05,0-.75-1.24a2.5,2.5,0,0,0-1.06-1l-5.23-2.51a2.49,2.49,0,0,0-1.47-.22l-17.43,2.72a2.5,2.5,0,0,0-1.38.7l-3.25,3.25a2.5,2.5,0,0,0-.73,1.93,19.89,19.89,0,0,1-.09,2.83,19.55,19.55,0,0,0-.07,3.24,2.51,2.51,0,0,0-.15.44,89.43,89.43,0,0,0-1.88,10.68,2.55,2.55,0,0,0-.13.68,2.46,2.46,0,0,0,0,.5,24.7,24.7,0,0,0,0,5c.15,1,1,6.07,3,8.56,1.27,1.59,4.7,5.82,6.28,7.76a86.25,86.25,0,0,0-1.09,13.95,2.5,2.5,0,0,0,2.49,2.5l16,.06v1a2.5,2.5,0,0,0,2.5,2.5h71.18a2.5,2.5,0,0,0,2.5-2.5v-1l16-.06a2.5,2.5,0,0,0,2.49-2.5,88.25,88.25,0,0,0-.85-12.55,2.47,2.47,0,0,0-.52-1.18v0c1.49-1.84,5.13-6.32,6.44-8,2-2.48,2.84-7.56,3-8.61A25.05,25.05,0,0,0,252.54,456.87Z" transform="translate(-123 -373.08)"></path><path d="M204.91,428a5,5,0,0,1-5.06,4.85l-4.17.14.75-5.29a40.76,40.76,0,0,0,8.67-1.37C205,426.91,205,427.47,204.91,428Zm-23.17-18.22a6.55,6.55,0,0,0,12.31,0,34.52,34.52,0,0,0,8.93-1.25c.12.29.27.59.43.9a7.48,7.48,0,0,1,.16,7.59c-3.84,1-7.41,1.41-16,1.41a73.43,73.43,0,0,1-15.31-1.63,8.27,8.27,0,0,1,.22-7.46c.12-.27.24-.52.34-.77h0C174.44,409.13,176.26,409.7,181.74,409.83Zm-7.36-3.36c2.07-.21,4.4-.4,7-.52v1.36A25.68,25.68,0,0,1,174.38,406.47Zm13.47.81q-1.4,0-2.77.06v-1.51c1.79,0,3.67,0,5.62,0v1.49C189.82,407.34,188.88,407.32,187.85,407.28Zm1.7,2.55a2.76,2.76,0,0,1-3.32,0l1.62,0Zm4.91-2.53V406q3.12.17,6.46.51A33.64,33.64,0,0,1,194.45,407.3ZM188,424.21c-1.86,0-3.65-.07-5.35-.2l-.28-2c1.67.11,3.41.18,5.23.18,2.26,0,4.19,0,5.89-.09l-.28,2C191.65,424.19,189.93,424.21,188,424.21Zm4.68,3.7-.74,5.26-3.42.11H187.4l-3.5-.12-.76-5.36c1.54.1,3.15.15,4.81.15S191.23,427.94,192.63,427.9Zm-5.31,10.37,7.2-.22a10.24,10.24,0,0,1-13.23,0Zm.57,6c5.19,0,9.6-2.65,11.17-6.32h.43l4.14,4.87,0,0a2.49,2.49,0,0,0,.23.46,18.88,18.88,0,0,1-31.76-.08,2.5,2.5,0,0,0,.26-.7l3.9-4.58h.43C178.29,441.59,182.7,444.24,187.89,444.24Zm17.8-21.94a37,37,0,0,1-8.71,1.65l.29-2a39.45,39.45,0,0,0,8.79-1.66Q205.88,421.18,205.69,422.3Zm3.78-7.07-1,.33-1.84.59a9.74,9.74,0,0,0-1-7.81,7.07,7.07,0,0,1-.49-1.1,1.24,1.24,0,0,0,0-.24q2.55.35,5.19.82A36.73,36.73,0,0,1,209.47,415.23Zm-24.08-37v17.09a2.5,2.5,0,1,0,5,0V378.19c15.1,1.26,19.33,14,19.92,25.83a135.64,135.64,0,0,0-15.92-1.79,1.87,1.87,0,0,0-3.58-.14c-2-.05-4-.06-5.85,0a1.86,1.86,0,0,0-3.55.11,112.14,112.14,0,0,0-15.94,1.78C166.08,392.1,170.32,379.44,185.39,378.19Zm-19.08,37.08a36.72,36.72,0,0,1-.89-7.49c1.2-.24,3-.55,5.19-.86a1.23,1.23,0,0,0,0,.3,5.15,5.15,0,0,1-.43,1.12,10.5,10.5,0,0,0-.81,7.81C168.09,415.82,167,415.51,166.31,415.27Zm3.4,4.84a75.63,75.63,0,0,0,8.78,1.56l.27,1.95A71.09,71.09,0,0,1,170,422Q169.87,421,169.7,420.11Zm1.16,7.94c-.08-.72-.16-1.41-.25-2.08a75.91,75.91,0,0,0,8.68,1.49l.79,5.57-4.25-.14A5,5,0,0,1,170.87,428Zm-7.37,11.89a6.62,6.62,0,0,1,4.23,3.12,2.51,2.51,0,0,0,.27.43,22.61,22.61,0,0,0,40.53-.88,1.86,1.86,0,0,0,.16-.63,4.25,4.25,0,0,1,3.29-2h1c-.95,9.72-9.6,17.61-20.73,19.24-1.35-.07-2.7-.12-4.07-.12s-2.91,0-4.35.13c-11.19-1.59-19.88-9.5-20.83-19.26Zm-13.7,49.92-13.44-.05c0-.55,0-1.08.07-1.62H149.8Zm-1.22-29.65a2.5,2.5,0,1,0-2.13,4.52c1.72.81,3,4.12,3.35,5.81V483.2H137.11l.54-5.15A3.65,3.65,0,0,0,136,474.8c-1.68-2.07-4.75-5.85-5.93-7.33-.85-1.06-1.66-4.32-1.94-6.13a21.7,21.7,0,0,1,0-4.45v0a78.75,78.75,0,0,1,1.46-9l.19-.17a2.5,2.5,0,0,0,.61-2.6,8.84,8.84,0,0,1-.09-3.25c.06-.73.12-1.53.13-2.37l1.91-1.91,1.83-.29,1.65,5.6a1.87,1.87,0,1,0,3.6-1.06l-1.51-5.13,3.45-.54,2,6a1.87,1.87,0,1,0,3.56-1.19l-1.78-5.36,3.08-.48,3.86,1.85,1.09,1.81a2.5,2.5,0,0,0,2.14,1.21h0l6.41,0c.84,9.16,8.08,16.8,17.88,19.63A62.34,62.34,0,0,0,154.28,468C153.55,465.7,151.87,461.77,148.57,460.22ZM221,493.33H154.8V470.28a2.53,2.53,0,0,0-.05-.5c0-.09-.06-.26-.11-.49a62.3,62.3,0,0,1,29.11-8.83,30.27,30.27,0,0,0,8.54,0,62.92,62.92,0,0,1,28.65,8.39c0,.55,0,1.07,0,1.55Zm5-3.46V488.2h13.38c0,.54,0,1.07.06,1.62Zm21.59-28.58c-.29,1.87-1.1,5.13-1.95,6.18-1.66,2.08-7.07,8.73-7.07,8.74A2.5,2.5,0,0,0,238,478l.54,5.15H226V470.28c0-.07,0-.14,0-.21s-.39-6.62,2.82-7.21a2.5,2.5,0,1,0-.91-4.92c-4.84.9-6.54,5.53-6.88,9.48a63.13,63.13,0,0,0-24.56-7.87c9.74-2.85,16.93-10.47,17.77-19.6l6.15,0h0a2.5,2.5,0,0,0,2.14-1.21L223.6,437l3.86-1.85,2.1.33-1.84,5.51a1.87,1.87,0,1,0,3.56,1.19l2-6.11,3.44.54-1.55,5.28a1.87,1.87,0,1,0,3.6,1.06l1.69-5.76,2.82.44,1.91,1.91c0,.85.07,1.64.13,2.37a8.87,8.87,0,0,1-.09,3.25,2.5,2.5,0,0,0,.61,2.6l.19.17a78.55,78.55,0,0,1,1.46,9v0A21.85,21.85,0,0,1,247.57,461.28Zm-42.82,14.77H171.83a6.48,6.48,0,0,0-6.47,6.47V491a.63.63,0,0,0,1.25,0v-8.43a5.23,5.23,0,0,1,5.22-5.22h32.92a5.23,5.23,0,0,1,5.22,5.22V491a.62.62,0,0,0,1.25,0v-8.43A6.48,6.48,0,0,0,204.75,476.05Z" transform="translate(-123 -373.08)"></path></symbol>

<symbol id="icon-adddrop"><path fill="currentColor" d="M77.65 51.47h7.66c1.86 17.38 13.15 30.74 26.8 30.74s24.95-13.37 26.8-30.74h7.67a2.76 2.76 0 0 0 2.65-2A38.8 38.8 0 0 0 118.32 0v23.51a.5.5 0 0 1-.5.5h-11.4a.5.5 0 0 1-.5-.5V0a38.8 38.8 0 0 0-30.91 49.51 2.76 2.76 0 0 0 2.64 1.96z"></path><path fill="currentColor" d="M207.8 138.46l10.84-7.21a3.17 3.17 0 0 0 1.39-3.12c-3.64-23.18-21.65-47.15-42.9-57.09a4.75 4.75 0 0 0-3.67-.1l-40.6 15.2a3.6 3.6 0 0 0-2.1 2.73c-3 13.78-34.55 13.76-37.41-.08a3.49 3.49 0 0 0-2.08-2.65l-40.6-15.2a4.8 4.8 0 0 0-3.72.12C25.77 81 7.7 105.06 4.08 128.19a3.12 3.12 0 0 0 1.4 3.05l10.91 7.26L.33 162.96a2 2 0 0 0 .57 2.77l25.6 16.82a2 2 0 0 0 2.77-.57l16.74-25.47.37-.16 9.14-4.57.75 5a5.76 5.76 0 0 0 1.76 3.34l4.84 4.52a125.37 125.37 0 0 1 .34 41.67 1.73 1.73 0 0 0 1.66 2h94.37a1.72 1.72 0 0 0 1.66-2 126.84 126.84 0 0 1 .34-41.69l4.84-4.52a5.76 5.76 0 0 0 1.76-3.34l.75-5 9.14 4.57a3.4 3.4 0 0 0 .5.2l16.71 25.43a2 2 0 0 0 2.77.57l25.6-16.82a2 2 0 0 0 .57-2.77z"></path><path fill="currentColor" d="M108.16 148.05l-5.81 5.02H90.27v10.65h9.07v-3.86h8.82v12.68H85.63l-4.18-4.17v-19.16l5.69-4.99h12.2v-10.65h-8.98v3.87h-8.91v-7.7l5.69-4.99h15.36l5.66 4.99v18.31m30.97 0l-5.81 5.02h-12.08v10.65h9.07v-3.86h8.82v12.68H116.5l-4.08-4.07v-19.26l5.69-4.99h12.2v-10.65h-8.98v3.87h-8.91v-7.7l5.69-4.99h15.36l5.66 4.99v18.31"></path><path d="M112.43 84a53.65 53.65 0 1 0 53.69 53.65A53.71 53.71 0 0 0 112.43 84zm16.09 59.86h-10.73v10.73a5.37 5.37 0 1 1-10.73 0v-10.73H96.33a5.37 5.37 0 0 1 0-10.73h10.73v-10.74a5.37 5.37 0 0 1 10.73 0v10.73h10.73a5.37 5.37 0 0 1 0 10.73z"></path></symbol>

<symbol id="icon-adddrop-v2"><path fill="currentColor" d="M490.47,352.81a17.3,17.3,0,0,1,13.79-22.08v10.48a.22.22,0,0,0,.22.22h5.09a.22.22,0,0,0,.22-.22V330.73a17.31,17.31,0,0,1,13.79,22.08,1.23,1.23,0,0,1-1.18.87H519c-.83,7.75-5.86,13.71-12,13.71s-11.13-6-12-13.71h-3.42A1.23,1.23,0,0,1,490.47,352.81Zm59.23,39.66,4.84-3.22a1.41,1.41,0,0,0,.62-1.39c-1.62-10.34-9.65-21-19.13-25.46a2.12,2.12,0,0,0-1.64,0l-18.11,6.78a1.61,1.61,0,0,0-.93,1.22c-1.32,6.15-15.41,6.13-16.68,0a1.56,1.56,0,0,0-.93-1.18l-18.11-6.78a2.14,2.14,0,0,0-1.66.06c-9.44,4.43-17.51,15.18-19.12,25.48a1.39,1.39,0,0,0,.62,1.36l4.87,3.24-7.17,10.91a.89.89,0,0,0,.26,1.24l11.42,7.5a.89.89,0,0,0,1.24-.26l7.46-11.36.17-.07,4.08-2,.33,2.21a2.57,2.57,0,0,0,.79,1.49l2.16,2a55.91,55.91,0,0,1,.15,18.59.77.77,0,0,0,.74.91H528a.77.77,0,0,0,.74-.9,56.57,56.57,0,0,1,.15-18.59l2.16-2a2.57,2.57,0,0,0,.79-1.49l.33-2.21,4.08,2,.22.09L544,411.88a.89.89,0,0,0,1.24.26l11.42-7.5a.89.89,0,0,0,.26-1.24Z" transform="translate(-457.02 -330.73)"></path><path d="M488.08,379.61a2.34,2.34,0,0,1-2.34,2.34h-4.68v4.68a2.34,2.34,0,1,1-4.68,0V382h-4.68a2.34,2.34,0,0,1,0-4.68h4.68v-4.68a2.34,2.34,0,0,1,4.68,0v4.68h4.68A2.34,2.34,0,0,1,488.08,379.61Zm54.8-2.34h-14a2.34,2.34,0,0,0,0,4.68h14a2.34,2.34,0,0,0,0-4.68Z" transform="translate(-457.02 -330.73)"></path></symbol>

<symbol id="icon-whistle"><path fill="currentColor" d="M42.11 37.87a1.252 1.252 0 0 0 1.77-1.77L17.63 9.81a1.252 1.252 0 0 0-1.77 1.77zm12.33-5.44a1.25 1.25 0 0 0 1.25-1.25V1.25a1.25 1.25 0 0 0-2.5 0v29.92a1.25 1.25 0 0 0 1.24 1.25zm11.87 5.81a1.24 1.24 0 0 0 .88-.37L93.4 11.58a1.252 1.252 0 0 0-1.77-1.77L65.42 36.1a1.25 1.25 0 0 0 .88 2.13zM8.63 53.67a1.25 1.25 0 0 0-1.25 1.25v8.28a1.25 1.25 0 0 0 2.5 0v-8.28a1.25 1.25 0 0 0-1.25-1.25zM72.51 79.8a14.55 14.55 0 1 0 14.77 14.53A14.65 14.65 0 0 0 72.55 79.8zm0 26.59a12 12 0 1 1 12.23-12 12.15 12.15 0 0 1-12.19 12zm37.35-33.85a12.4 12.4 0 0 0-7.69 2.68c-.25-16.54-12.1-27.62-29.65-27.62H59.63l-.52 1.82c-.5 1.77-2.54 3.05-4.86 3.05s-4.36-1.28-4.86-3.05l-.52-1.82H0v36l2.42.08c10.44.33 38.37 4 42.35 17a28.26 28.26 0 0 0 27.79 21.87c15.5 0 28.79-11.92 29.62-26.56v-1.06a12.5 12.5 0 1 0 7.73-22.34zm-63.1-18a10.84 10.84 0 0 0 14.59.27v3.7a10.84 10.84 0 0 1-7.15 2.74 12 12 0 0 1-7.44-2.69zM4.95 52.63h39.31v14.8H5zm92.18 43.13c-.71 11.81-12 21.78-24.62 21.78a23.58 23.58 0 0 1-22.88-18.11v-.16c-5-16.59-35.6-19.86-44.58-20.47v-8.87h39.88c1.67 2.6 6 4.29 9.37 4.29 3.22 0 7.33-1.62 9-4.29h9.32a24.66 24.66 0 0 1 24.63 21.93zm0-12.85a27.32 27.32 0 0 0-24.65-15.44h-8.66V52.59h8.66c15 0 24.67 9.09 24.67 23.15zm12.7 9.71a7.52 7.52 0 1 1 7.49-7.52 7.52 7.52 0 0 1-7.42 7.48z"></path></symbol>

<symbol id="icon-calendar"><path fill="currentColor" d="M-261.69,91.73v9.16A13.42,13.42,0,0,1-275,114.41a13.42,13.42,0,0,1-13.29-13.52V91.44h-56.62v9.45a13.42,13.42,0,0,1-13.29,13.52,13.42,13.42,0,0,1-13.29-13.52V91.73a27.08,27.08,0,0,0-23.11,26.75V220.4a27.07,27.07,0,0,0,27,27h101.92a27.07,27.07,0,0,0,27-27V118.48A27.08,27.08,0,0,0-261.69,91.73Z" transform="translate(394.58 -75.06)"></path><path d="M-253.14,220.4a12.52,12.52,0,0,1-12.48,12.48H-367.54A12.52,12.52,0,0,1-380,220.4V138.24h126.88Z" transform="translate(394.58 -75.06)"></path><path d="M-358.18,109.21a8.23,8.23,0,0,1-8.09-8.32V83.37a8.23,8.23,0,0,1,8.09-8.32,8.23,8.23,0,0,1,8.09,8.32v17.51A8.23,8.23,0,0,1-358.18,109.21Z" transform="translate(394.58 -75.06)"></path><path d="M-275,109.21a8.23,8.23,0,0,1-8.09-8.32V83.37A8.23,8.23,0,0,1-275,75.06a8.23,8.23,0,0,1,8.09,8.32v17.51A8.23,8.23,0,0,1-275,109.21Z" transform="translate(394.58 -75.06)"></path><path fill="currentColor" d="M-334.18,154.83V214.4h-16.46v-39a50,50,0,0,1-7.73,4.91,60.32,60.32,0,0,1-9.37,3.6V170.53q8.31-2.67,12.9-6.43a26.23,26.23,0,0,0,7.19-9.27Z" transform="translate(394.58 -75.06)"></path><path fill="currentColor" d="M-268.86,216.4h-48.82a30.56,30.56,0,0,1,5.09-13.6q4.25-6.37,16-15,7.15-5.31,9.15-8.07a9,9,0,0,0,2-5.23,6.11,6.11,0,0,0-2-4.57,6.89,6.89,0,0,0-5-1.9,6.93,6.93,0,0,0-5.09,2q-2,2-2.66,6.91l-16.3-1.32q1-6.87,3.52-10.73a16.32,16.32,0,0,1,7.21-5.91q4.66-2.06,12.89-2.06,8.59,0,13.36,2a16.25,16.25,0,0,1,7.51,6,15.89,15.89,0,0,1,2.74,9.09,18.59,18.59,0,0,1-3.14,10.23q-3.13,4.88-11.41,10.71-4.91,3.39-6.57,4.75t-3.9,3.56h25.41Z" transform="translate(394.58 -75.06)"></path></symbol>

<symbol id="icon-rules"><path fill="currentColor" d="M5.9 194.78a5.9 5.9 0 0 1-5.89-5.89V27.14a5.9 5.9 0 0 1 5.89-5.89h10.67l-5 14a11 11 0 0 0 10.69 15.2h90.64a11 11 0 0 0 10.69-15.2l-5-14h10.67a5.9 5.9 0 0 1 5.89 5.89v161.75a5.9 5.9 0 0 1-5.89 5.89z"></path><path d="M17.91 161.32H96.3v10.72H17.91zm0-19.37h99.29v10.72H17.91zm0-19.37H96.3v10.72H17.91zm0-19.38h99.29v10.72H17.91zm0-19.37H96.3v10.72H17.91zm0-19.37h99.29v10.72H17.91z"></path><path d="M22.24 43.36a4 4 0 0 1-4.06-5.77l5-14a9.71 9.71 0 0 1 8.39-5.9H46.9c3.57 0 6.89-2 7.26-4.47C54.37 11.87 56.52.04 67.57.04s13.23 11.74 13.4 13.14c.37 2.42 3.7 4.47 7.26 4.47h15.28a9.7 9.7 0 0 1 8.39 5.9l5 14a4 4 0 0 1-4.06 5.77z"></path></symbol>

<symbol id="icon-history"><path fill="currentColor" d="M240.12,186.14A42.83,42.83,0,0,0,197.29,229H183l18.55,18.55.33.69L221.1,229H206.81a33.41,33.41,0,1,1,9.79,23.55l-6.74,6.74a42.85,42.85,0,1,0,30.26-73.14Z" transform="translate(-183 -186.14)"></path><polygon points="52.38 23.81 52.38 47.62 72.76 59.71 76.19 53.93 59.52 44.05 59.52 23.81 52.38 23.81"></polygon></symbol>

<symbol id="icon-history-v2"><path fill="currentColor" d="M105.72,203.46,107.3,201l1.44.94,5.23-8.15-8.19-5.33-5.23,8.15,1.44.94-1.47,2.29a43.85,43.85,0,0,0-18.14-6V190.9a15.46,15.46,0,1,0-8.86,0v2.93a43.85,43.85,0,0,0-18,5.94l-1.62-2.58,1.45-.93-5.15-8.2-8.24,5.25,5.15,8.2,1.45-.93,1.75,2.79a44.37,44.37,0,1,0,55.42.08Z" transform="translate(-33.58 -160.42)"></path><path d="M65.17,176A12.78,12.78,0,1,1,82.38,188v-3.8h2.41v-8.94H71.11v8.94h2.41V188A12.87,12.87,0,0,1,65.17,176Zm47.32,81.29-3.28-1.91a.91.91,0,0,0-.46-.12.94.94,0,0,0-.47,1.75l3.28,1.9a39.82,39.82,0,0,1-13.16,13.24l-1.85-3.24a.92.92,0,0,0-.79-.46,1,1,0,0,0-.48.14.93.93,0,0,0-.33,1.26l1.86,3.24a38.89,38.89,0,0,1-17.9,4.81v-3.72a.93.93,0,0,0-1.86,0v3.72a38.89,38.89,0,0,1-17.9-4.81L61,269.85a.92.92,0,0,0,.09-.7.93.93,0,0,0-.45-.57.91.91,0,0,0-.46-.12.92.92,0,0,0-.79.46l-1.86,3.24A39.82,39.82,0,0,1,44.35,258.9l3.28-1.9a.93.93,0,0,0,.32-1.28.91.91,0,0,0-1.25-.34l-3.28,1.91a39.61,39.61,0,0,1-4.81-18.06H42.4a.94.94,0,0,0,0-1.87H38.61a39.62,39.62,0,0,1,4.79-18.07l3.3,1.92a.91.91,0,0,0,.46.12.94.94,0,0,0,.47-1.74l-3.3-1.92a39.82,39.82,0,0,1,13.13-13.24l1.91,3.34a.92.92,0,0,0,.79.46.94.94,0,0,0,.48-.14.93.93,0,0,0,.34-1.26l-1.91-3.34a38.89,38.89,0,0,1,18-4.85v3.86a.92.92,0,0,0,.91.92h0a.92.92,0,0,0,.91-.92v-3.86a38.89,38.89,0,0,1,18,4.85l-1.91,3.34a.93.93,0,0,0,.36,1.27.91.91,0,0,0,.46.12.92.92,0,0,0,.79-.46l1.91-3.33a39.82,39.82,0,0,1,13.13,13.24l-3.3,1.92a.93.93,0,0,0-.32,1.29.92.92,0,0,0,.79.46.91.91,0,0,0,.46-.12l3.3-1.92a39.62,39.62,0,0,1,4.79,18.07h-3.79a.94.94,0,0,0,0,1.87h3.79A39.61,39.61,0,0,1,112.49,257.28Z" transform="translate(-33.58 -160.42)"></path><path fill="currentColor" d="M101.11,224.44a2.19,2.19,0,0,0-3-.82l-13.91,7.72A9.15,9.15,0,0,0,78,228.88a9.54,9.54,0,0,0-2,.21,9.29,9.29,0,0,0,2,18.36c.28,0,.57,0,.85,0a9.38,9.38,0,0,0,7.42-5.31A8.73,8.73,0,0,0,87,236l13.48-8.45a2.22,2.22,0,0,0,.74-3Z" transform="translate(-33.58 -160.42)"></path><path d="M82.87,239.41a5,5,0,0,1-3.61,3.64,5.26,5.26,0,0,1-1.25.15,5,5,0,0,1-3.94-1.93,5.1,5.1,0,0,1-.91-4.37,5,5,0,0,1,3.61-3.63,5.26,5.26,0,0,1,1.25-.15A5,5,0,0,1,81.95,235,5.11,5.11,0,0,1,82.87,239.41Z" transform="translate(-33.58 -160.42)"></path></symbol>

<symbol id="icon-history-v3"><path fill="currentColor" d="M362.67,365.41H357c.59,4.17,1.74,17.63-6.24,25.86a48.27,48.27,0,0,1-8.46,6.55c-4.93,3.25-7.71,5.23-7.71,8.31s2.79,5.06,7.71,8.31a48.27,48.27,0,0,1,8.46,6.55c8,8.23,6.83,21.68,6.24,25.86h5.66a2.18,2.18,0,0,1,2.17,2.17V454a2.18,2.18,0,0,1-2.17,2.17H292.75a2.18,2.18,0,0,1-2.17-2.17V449a2.18,2.18,0,0,1,2.17-2.17h5.66c-.59-4.17-1.74-17.63,6.24-25.86a48.25,48.25,0,0,1,8.46-6.55c4.93-3.25,7.71-5.23,7.71-8.31s-2.79-5.06-7.71-8.31a48.28,48.28,0,0,1-8.46-6.55c-8-8.23-6.83-21.68-6.24-25.86h-5.66a2.18,2.18,0,0,1-2.17-2.17V358.3a2.18,2.18,0,0,1,2.17-2.17h69.92a2.18,2.18,0,0,1,2.17,2.17v4.94A2.18,2.18,0,0,1,362.67,365.41Z" transform="translate(-290.58 -356.13)"></path><path d="M353.12,365.41H302.31c-.36,2.23-2.14,15.38,4.94,22.68a45.34,45.34,0,0,0,7.81,6c4.94,3.26,9.61,6.33,9.61,12s-4.67,8.77-9.61,12a45.34,45.34,0,0,0-7.81,6c-7.09,7.3-5.31,20.44-4.94,22.68h2.74l20.81-24.27a2.37,2.37,0,0,1,3.7,0l20.81,24.27h2.74c.36-2.23,2.14-15.38-4.94-22.68a45.36,45.36,0,0,0-7.81-6c-4.94-3.26-9.61-6.33-9.61-12s4.67-8.77,9.61-12a45.36,45.36,0,0,0,7.81-6C355.26,380.79,353.48,367.65,353.12,365.41Z" transform="translate(-290.58 -356.13)"></path><path fill="currentColor" d="M317,389.29l-1.45-1h24.32l-1.45,1c-4.23,2.79-8.89,5.86-10.72,11C325.89,395.15,321.22,392.08,317,389.29Z" transform="translate(-290.58 -356.13)"></path></symbol>

<symbol id="icon-trade"><path fill="currentColor" d="M349,433.38a28.19,28.19,0,0,0-40.88,30.81c.4,1.86,2.17,3,4,3.51a6.67,6.67,0,0,1,5.07,5.16c.75,3.83,6.18,7.6,12.14,7.09a16.19,16.19,0,0,0,6.36,6.56,10.37,10.37,0,0,0,1.65.71l12.29,4.07a3.55,3.55,0,0,0,4.56-2.52l4.15-13.42a1,1,0,0,0-.74-1.29l-4.1-1a1,1,0,0,0-1.21.71l-1.89,6.69a1.28,1.28,0,0,1-1.62.87l-7.51-2.41a5.86,5.86,0,0,1-3.17-3.49c3.5-4,2.06-8.9,6.07-12,3.24-2.55,9.61-3.58,16.07.82a2,2,0,0,0,3.2-1.15A28.19,28.19,0,0,0,349,433.38Zm-21.17,37.88a4.17,4.17,0,1,1,5.36-2.15c0,.09-.07.18-.11.27A4.17,4.17,0,0,1,327.83,471.26Z" transform="translate(-157.97 -430.02)"></path><path fill="currentColor" d="M225.39,603.56l-37.57,38.87a3.17,3.17,0,0,0,0,4.36l8.77,9.47a3.39,3.39,0,0,0,4.47.45l42.95-31a15.23,15.23,0,0,0,4-4.3l12.18-19.52-28-18.24Z" transform="translate(-157.97 -430.02)"></path><path fill="currentColor" d="M346.34,518.58a4,4,0,0,0-5.32-1.43l-19.08,10.41-4.75-35.71-13.73-20a20.67,20.67,0,0,0-26.54-6.63l-10.07,5.22a2.71,2.71,0,0,0-1.37,1.72L263.69,479a2.81,2.81,0,0,1-1.61,1.87L238.53,491a8.14,8.14,0,0,0-4.38,10.43l12.75,32.8c-7.31,5.48-12.83,13.22-13.62,23.83A43.16,43.16,0,0,0,235,573.14l.62.41,29.9,19.73,17.61,11.62a3.63,3.63,0,0,1,1.58,3.64l-.15.91-10,58.34a1.78,1.78,0,0,0,1.45,2.05l14.29,2.51a3.34,3.34,0,0,0,3.69-2.06L321.1,602a7.91,7.91,0,0,0-1.66-8.41l-29.86-30.91a3.69,3.69,0,0,1-.55-4.39l10.81-18.91a1.32,1.32,0,0,1,2.3,0L309.73,553a4.12,4.12,0,0,0,6,1.31L349,529.94a4,4,0,0,0,1-5.29Zm-59,25a2,2,0,0,1-1.06,2.52,36.3,36.3,0,0,1-15.33,2.5l-8.82-26.11a22.72,22.72,0,0,1,10.29,2.12C281.2,528.93,285.79,539.4,287.34,543.62Zm-15.49-38.78-9.38,11.55-1.67-7.33Z" transform="translate(-157.97 -430.02)"></path><path d="M217.48,558.95l-10.1-5.73a145,145,0,0,0-9.69,35.7,2.89,2.89,0,0,1-3.75,2.66L159.8,580.78c-1.83-.57-2.39-2.85-1.2-5A176.72,176.72,0,0,1,184,540l-10.15-5.73C196.68,525,216.13,516.79,231.3,508,219.26,520.72,213.48,539.59,217.48,558.95Zm-40.13-24.72,8.74,5A175.22,175.22,0,0,0,159.77,577c-.58,1.11-.3,2.25.61,2.55L177.2,585l16.91,5.46a1.48,1.48,0,0,0,1.91-1.36,146.07,146.07,0,0,1,11-37.78l8.7,5c-2.74-17.46,1.77-33.72,12.25-45.64l0,0C214.13,518.73,197.48,525.8,177.35,534.23Zm6.92,53.07,9.83,3.18a1.48,1.48,0,0,0,1.91-1.36,146.07,146.07,0,0,1,11-37.78l8.7,5c-2.08-13.34,0-26,5.85-36.52a168.88,168.88,0,0,0-19.61,29C194.92,561.84,189.44,574.86,184.27,587.3ZM228,510.71c-13.88,8-30.53,15.09-50.66,23.52l8.74,5A175.22,175.22,0,0,0,159.77,577c-.58,1.11-.3,2.25.61,2.55L177.2,585l7.08,2.28c5.17-12.44,10.65-25.46,17.71-38.43a168.88,168.88,0,0,1,19.61-29,51.51,51.51,0,0,1,6.4-9.12Zm-64.22,61.78a175.51,175.51,0,0,1,9.73-16,162.77,162.77,0,0,1,12.68-16.31l-.7.68a155.58,155.58,0,0,0-14.33,18.65,130.46,130.46,0,0,0-8.7,15C162.92,574.69,163.27,573.29,163.79,572.49Zm2.75-5.33-.65,1.1c-6,9.81-5.64,10.27,3.27,12.9l1,.32C161.13,577.93,160.65,577.71,166.54,567.16Zm14.83-31.95-.64-.14c1.69,1.23,6.18,3.57,6,3.87,0,.29-6.74,8.1-9.44,12l1.42-1.66C188.59,536.44,190.13,539.46,181.37,535.21Z" transform="translate(-157.97 -430.02)"></path><path d="M325.13,593q6.16.85,12.16,2c3.18-13.31,6.2-26.81,8.6-40.34a4.6,4.6,0,0,1,4.77-3.79,213.35,213.35,0,0,1,40.18,7.19c2,.57,2.32,2.9.67,5.14-9.77,13.45-18.84,26.4-27.47,38.9q5.58,1.89,11,4.09c-21.5,12.06-37.45,27-47.37,41.89C332.82,631.29,333.13,611.43,325.13,593Zm46.4,13.74q-4.69-1.85-9.52-3.46c8.89-13.26,18.25-27,28.34-41.35.81-1.14.66-2.32-.35-2.6q-9.37-2.65-19.26-4.47t-20.34-2.72a2.36,2.36,0,0,0-2.42,1.91c-2.86,14.38-6.36,28.69-10,42.78q-5.16-1.06-10.44-1.88a78.52,78.52,0,0,1,1.85,49.51,0,0,0,0,0,0,0C338.72,630.94,352.64,618.09,371.53,606.78Zm-9.19-53.25q-5.89-.84-11.94-1.36a2.36,2.36,0,0,0-2.42,1.91c-2.86,14.38-6.36,28.69-10,42.78q-5.16-1.06-10.44-1.88a78.25,78.25,0,0,1,4.24,38.29c3.87-11.18,7.69-23.08,12.07-35.54C349.24,582.46,355.06,567.59,362.34,553.54Zm-32.93,91c9.31-13.58,23.23-26.42,42.13-37.73q-4.69-1.85-9.52-3.46c8.89-13.26,18.25-27,28.34-41.35.81-1.14.66-2.32-.35-2.6q-9.37-2.65-19.26-4.47-4.16-.76-8.4-1.36c-7.28,14.05-13.1,28.93-18.47,44.19-4.38,12.46-8.2,24.37-12.07,35.54a78.67,78.67,0,0,1-2.39,11.22A0,0,0,0,0,329.41,644.51Zm55.82-77.74c-.47.64-5.93,8.94-11.39,17.2S363,600.65,361.78,602.46l.63-.82c2.47-3.6,8.4-12.66,14-21s10.64-16,10.57-16C386.46,564.47,385.9,565.92,385.23,566.77Zm-3.5,5.62.8-1.18c7.52-10.32,7.67-10.86-2.59-13.09l-1.1-.25C389.12,561,389.09,561.29,381.72,572.39Zm-14.34,34.07.67,0c-1.85-1-6.76-2.39-6.61-2.72-.1-.31,5.83-9.4,8.6-13.69l-1.4,1.89C359.43,606.57,358.11,603.92,367.39,606.46Z" transform="translate(-157.97 -430.02)"></path></symbol>

<symbol id="icon-trade-v2"><path d="M447.07,229.39l2.58,1s-5.15,5.7-8.29,3.69l-18.88-10s-.61-32.14,21.44-49.35l16.16,9.55S444,195.46,441.91,224.89C442.14,228.72,442.23,235,447.07,229.39Zm123.48-56.05-15.78,10.16s16,9.54,18.11,39c-.23,3.82-.32,10.11-5.16,4.5l-2.58,1s5.15,5.7,8.29,3.69l19.4-10.17S594.42,190.63,570.55,173.34Z" transform="translate(-422.47 -173.34)"></path><path fill="currentColor" d="M509.25,232.35h0Zm-.73,24.36a3.55,3.55,0,0,0-3.07-2,5.41,5.41,0,0,0-4.66,2.77l-.82,1.62s-2,3.74-2.34,4.45a6,6,0,0,0-.85,2.77,4.69,4.69,0,0,0,.45,2.29,3.56,3.56,0,0,0,1.4,1.54h0a3.56,3.56,0,0,0,1.67.49,5.4,5.4,0,0,0,4.66-2.78l3.08-5.91.07-.12A6,6,0,0,0,509,259,4.78,4.78,0,0,0,508.53,256.7Zm-7.16-5.83v0a7.16,7.16,0,0,0,.72-2.79,5.91,5.91,0,0,0-.65-3,4.37,4.37,0,0,0-2-1.92,4.3,4.3,0,0,0-1.66-.41,6,6,0,0,0-4.86,2.53c-.16.72-6.16,13.45-6.34,14a4.85,4.85,0,0,0,.2,4.23,4.06,4.06,0,0,0,2,1.92,4.25,4.25,0,0,0,1.66.41,6,6,0,0,0,4.87-2.55l2.18-4.13ZM478,240.26a6.11,6.11,0,0,0-.94-3.62,4.28,4.28,0,0,0-2.55-1.87h0a4.28,4.28,0,0,0-.8-.12,4.76,4.76,0,0,0-3.21,1.16,6.65,6.65,0,0,0-2.17,3.51l0,.06-.82,3.74a7.08,7.08,0,0,0-.21,1.42,6.1,6.1,0,0,0,.94,3.62,4.27,4.27,0,0,0,2.55,1.87,4.08,4.08,0,0,0,.8.12,4.81,4.81,0,0,0,4-1.91l2.25-6.56A7,7,0,0,0,478,240.26Zm12.5,3.36a5.74,5.74,0,0,0-.67-3,4.23,4.23,0,0,0-2-1.87h0a4.1,4.1,0,0,0-1.51-.35,6.07,6.07,0,0,0-5.49,3.81h0l-3.95,8.55a7,7,0,0,0-.62,2.56,5.77,5.77,0,0,0,.67,3,4.25,4.25,0,0,0,2,1.87h0a4.09,4.09,0,0,0,1.51.35,5.11,5.11,0,0,0,4.46-2.51c.1-.27,4.24-9,4.45-9.37A12,12,0,0,0,490.47,243.61Zm68.67-12.74-.32-.28-2.33-1.69c1.31-.48,2.42-.84,2.56-.91l8.63-4.2a47.36,47.36,0,0,0-13.63-33.52s-5.25,3.7-10.29,3.93c-4.23.2-30-10.15-30.14-10.17s-4.51.5-5.25.55-18.64,2.69-22.22,3.17c-1,.14-1.8.26-2.16.34a6.33,6.33,0,0,0-2.38,1.58,48.67,48.67,0,0,0-3.54,3.74,78.77,78.77,0,0,1-8.54,8.94,1.13,1.13,0,0,0-.43,1.2c.86,3.34,8.93,9.73,18.38,1.7a56.5,56.5,0,0,0,4.82-4.65l.06-.05a1.58,1.58,0,0,1,1.23-.44l14,1.49,14.89,9.71,17.91,12,15.5,11.24a9.86,9.86,0,0,1,1.47,1.89,3.7,3.7,0,0,1,.5,1.86,4.86,4.86,0,0,1-.11,1,3.9,3.9,0,0,1-.6,1.46,3.13,3.13,0,0,1-1.41,1.11,4.78,4.78,0,0,1-1.78.34,3.29,3.29,0,0,1-1.4-.32l-5-2.72h0L545,237.59a2.26,2.26,0,0,0-.53-.21l-16.64-9.14a2.32,2.32,0,0,0-3.19,1,2.53,2.53,0,0,0,1,3.34l20.2,11.09a5.32,5.32,0,0,1,1.28,1.31,4.62,4.62,0,0,1,.88,2.6,4.49,4.49,0,0,1-.92,2.62,3,3,0,0,1-1.51,1.12,4.6,4.6,0,0,1-1.5.27,4.07,4.07,0,0,1-1.72-.4l-2.89-1.57-10.26-5.58-4.59-2.5-1.52-.83-.72-.4a2.31,2.31,0,0,0-3.21,1,2.53,2.53,0,0,0,.92,3.36l1.25.7,10.92,5.95.17.12a5.67,5.67,0,0,1,.94.68,8.09,8.09,0,0,1,1.68,2,4.72,4.72,0,0,1,.71,2.38,4.55,4.55,0,0,1-.85,2.55,2.91,2.91,0,0,1-1.66,1.22,6.06,6.06,0,0,1-1.82.23h-.07a4.85,4.85,0,0,1-1.87-.4l-5.38-2.77a6.42,6.42,0,0,0-1-.64,2.28,2.28,0,0,0-.55-.17l-6.15-3.16a2.32,2.32,0,0,0-3.16,1.13,2.52,2.52,0,0,0,1.08,3.31l7.33,3.77.08.07a5.93,5.93,0,0,1,1.2,1.62,4.46,4.46,0,0,1,.51,2,3.67,3.67,0,0,1-.65,2.06,2.54,2.54,0,0,1-1.21.85,4.7,4.7,0,0,1-.83.24,3,3,0,0,1-.47.06,3.21,3.21,0,0,1-1.37-.33h0l-8.77-4a29,29,0,0,0-1.91,4.33h0l8.69,4.12h0a7.74,7.74,0,0,0,3.35.78,7.16,7.16,0,0,0,1.33-.14,9.16,9.16,0,0,0,2.51-.87,6.83,6.83,0,0,0,2.58-2.29,8.79,8.79,0,0,0,1.48-4.84c0-.14,0-.27,0-.41a9.34,9.34,0,0,0,3.21.61h.12a10.43,10.43,0,0,0,3.18-.44,7.68,7.68,0,0,0,4.2-3.16,9.68,9.68,0,0,0,1.67-5.34c0-.25,0-.49,0-.73a8.59,8.59,0,0,0,3.64.83,9.05,9.05,0,0,0,3.06-.55,7.81,7.81,0,0,0,3.76-2.87,9.62,9.62,0,0,0,1.82-5.53c0-.23,0-.44-.06-.66a7.8,7.8,0,0,0,1.32.13h0a9,9,0,0,0,4.76-1.34A7.81,7.81,0,0,0,561,243.6a9,9,0,0,0,1.39-3.32,10,10,0,0,0,.21-2,8.87,8.87,0,0,0-1.14-4.33A14.88,14.88,0,0,0,559.15,230.88Zm-97-1c-.84-.73-1.57-1.34-2.17-1.82-.3-.24-.56-.44-.8-.62a5.36,5.36,0,0,0-.79-.5l-7.21-3.51a45.09,45.09,0,0,1,6.4-21.89,44.54,44.54,0,0,1,4.44-6.18c.4-.46.73-.82,1-1.12.63.19,1.44.43,2.38.68,1.51.4,3.32.83,5.17,1.15a41.48,41.48,0,0,0,3.54-4.39,2.29,2.29,0,0,0-.66-.18,46.4,46.4,0,0,1-6.88-1.37c-1-.27-1.9-.53-2.51-.72l-.72-.22-.18-.06-.06,0a2.29,2.29,0,0,0-2.26.48,43.49,43.49,0,0,0-7.28,9.33,50.06,50.06,0,0,0-7.18,25.81V225a2.48,2.48,0,0,0,1.37,2.22l2.54,1.23,6,2.93.31.22c.64.49,1.86,1.51,3.33,2.8s5.94,5.4,6,5.44a48.61,48.61,0,0,1,1.57-4.91C465.41,233,463.7,231.22,462.1,229.84Z" transform="translate(-422.47 -173.34)"></path></symbol>

<symbol id="icon-chat"><path d="M272.08,59.17c-4.94,0-8.95,3-8.95,6.77a6.2,6.2,0,0,0,3,5.07l-3,4.61,5.79-3.34h0a11.53,11.53,0,0,0,3.16.43c-.52-.41-2.45-7.91,6.5-11.42A10.45,10.45,0,0,0,272.08,59.17Z" transform="translate(-263.13 -59.17)"></path><path fill="currentColor" d="M285,60.77c6.91,0,12.51,4.24,12.51,9.47a8.67,8.67,0,0,1-4.21,7.09l4.21,6.44-8.1-4.67h0a16.09,16.09,0,0,1-4.42.61c-6.91,0-12.51-4.24-12.51-9.47s5.6-9.47,12.51-9.47Zm-7.31,7.35a2.12,2.12,0,1,0,2.12,2.12,2.12,2.12,0,0,0-2.12-2.12Zm7.31,0a2.12,2.12,0,1,0,2.13,2.12A2.12,2.12,0,0,0,285,68.12Zm7.31,0a2.12,2.12,0,1,0,2.12,2.12A2.12,2.12,0,0,0,292.35,68.12Z" transform="translate(-263.13 -59.17)"></path></symbol>

<symbol id="icon-chat-v2"><path d="M375.33,213.28a5.87,5.87,0,1,1,5.87-5.87A5.87,5.87,0,0,1,375.33,213.28Zm-32.77-11.73a5.87,5.87,0,1,0,5.87,5.86A5.86,5.86,0,0,0,342.56,201.54Zm16.39,0a5.87,5.87,0,1,0,5.87,5.86A5.86,5.86,0,0,0,358.94,201.54Z" transform="translate(-284.68 -170.05)"></path><path fill="currentColor" d="M395.11,228.54a40.65,40.65,0,0,1-3.8,3.48l3,20.91-21.64-11.75a56,56,0,0,1-13.85,1.73c-25.17,0-45.58-16.31-45.58-36.43S333.67,170,358.84,170s45.58,16.31,45.58,36.43C404.43,214.77,400.95,222.42,395.11,228.54Zm-36.26,6.92a48.05,48.05,0,0,0,16.47-2.84A36.94,36.94,0,0,0,391,222a24.07,24.07,0,0,0,6-15.53c0-16-17.11-29-38.14-29s-38.14,13-38.14,29S337.81,235.47,358.84,235.47Zm0,11.62c-13.12,0-25.5-4.11-34.84-11.59-9.62-7.69-14.92-18-14.92-29a34.38,34.38,0,0,1,4.4-16.76c-16.87,5.34-28.81,18.49-28.81,33.87,0,8.3,3.48,15.94,9.32,22.07a40.91,40.91,0,0,0,3.8,3.48l-3,20.91,21.64-11.75A56.15,56.15,0,0,0,330.26,260c14.18,0,26.85-5.18,35.21-13.29A60.83,60.83,0,0,1,358.85,247.09Z" transform="translate(-284.68 -170.05)"></path></symbol>

<symbol id="icon-scoreboard-v3"><path fill="currentColor" d="m448 97c18 0 32 14 32 32l0 269c0 17-14 32-32 32l-379 0c-19 0-33-14-33-32l0-269c0-17 14-32 33-32z m0-23l-379 0c-31 0-56 25-56 55l0 269c0 30 25 55 56 55l379 0c30 0 55-25 55-55l0-269c0-30-25-55-55-55z m-13 49c9 0 16 7 16 16l0 249c0 9-7 16-16 16l-354 0c-8 0-15-7-15-16l0-249c0-9 7-16 15-16z m0-7l-354 0c-13 0-23 10-23 23l0 249c0 13 10 23 23 23l354 0c13 0 24-10 24-23l0-249c0-13-11-23-24-23z m-312 162c-2 1-4 2-6 2-2 0-4 1-6 1-4 0-8-2-10-5-3-3-4-7-4-13 0-6 1-10 4-13 2-3 6-5 11-5 1 0 3 1 5 1 1 0 3 1 5 2l0 7c-2-1-3-2-5-2-1-1-3-1-4-1-3 0-5 1-7 3-1 2-2 5-2 8 0 4 1 6 2 8 2 2 4 3 7 3 0 0 1 0 2 0 1 0 1 0 1 0l0-7-4 0 0-5 11 0 0 16z m4-31l7 0 0 20c0 3 0 5 1 6 1 1 2 2 3 2 2 0 3-1 4-2 1-1 1-3 1-6l0-20 7 0 0 20c0 5-1 9-3 11-2 2-4 3-9 3-4 0-6-1-8-3-2-2-3-6-3-11z m28 0l18 0 0 6-11 0 0 7 11 0 0 6-11 0 0 8 12 0 0 6-19 0z m42 1l0 7c-1-1-3-2-4-2-2 0-3-1-4-1-2 0-3 1-4 1-1 1-1 2-1 3 0 0 0 1 1 2 0 0 1 1 2 1l3 1c3 0 6 2 7 3 1 1 2 4 2 7 0 3-1 6-3 8-2 2-4 3-8 3-2 0-3 0-5-1-2 0-4-1-5-2l0-7c1 1 3 2 5 3 1 0 3 0 4 0 2 0 3 0 4-1 1 0 1-1 1-2 0-1 0-2-1-3-1-1-1-1-3-1l-3-1c-2-1-5-2-6-3-1-2-1-4-1-7 0-3 0-6 2-7 2-2 5-3 7-3 2 0 3 0 5 0 2 1 3 1 5 2z m3-1l24 0 0 6-9 0 0 27-7 0 0-27-8 0z m105 0l7 0 0 13 10 0 0-13 7 0 0 33-7 0 0-14-10 0 0 14-7 0z m41-1c5 0 8 2 11 5 2 3 3 7 3 13 0 5-1 9-3 13-3 3-6 4-11 4-4 0-7-1-10-4-3-3-4-8-4-13 0-6 1-10 4-13 3-3 6-5 10-5z m0 6c-2 0-3 1-5 3-1 2-1 5-1 8 0 4 0 7 1 8 2 2 3 3 5 3 2 0 4-1 5-3 1-1 2-4 2-8 0-3-1-6-2-8-1-2-3-3-5-3z m18-5l8 0 7 18 6-18 8 0 0 33-6 0 0-24-6 18-5 0-6-18 0 24-6 0z m34 0l19 0 0 6-12 0 0 7 12 0 0 6-12 0 0 8 13 0 0 6-20 0z m-198-64c0 9-2 15-6 20-3 5-9 7-16 7-7 0-12-2-16-7-4-5-6-11-6-20 0-9 2-16 6-21 4-5 9-7 16-7 7 0 13 2 16 7 4 5 6 12 6 21z m-14-1c0-6 0-11-1-14-2-2-4-4-7-4-3 0-5 2-6 4-1 3-2 8-2 14 0 7 1 12 2 15 1 2 3 4 6 4 3 0 5-2 7-4 1-3 1-8 1-15z m33-1c-4-1-6-3-8-5-1-1-2-4-2-7 0-5 2-8 5-11 3-2 8-3 15-3 6 0 11 1 14 3 4 3 6 6 6 11 0 3-1 5-3 7-1 2-4 4-7 5 3 1 6 2 8 5 2 2 2 5 2 8 0 5-1 9-5 12-3 2-9 4-15 4-7 0-12-2-16-4-4-3-5-7-5-12 0-3 0-6 3-8 2-3 4-4 8-5z m10 4c-2 0-4 1-6 2-1 2-2 4-2 6 0 3 1 5 2 6 2 2 4 2 6 2 3 0 5 0 6-2 1-1 2-3 2-6 0-2-1-4-2-6-1-1-3-2-6-2z m-7-15c0 2 1 4 2 5 1 1 3 2 5 2 2 0 4-1 5-2 1-1 2-3 2-5 0-2-1-4-2-5-1-1-3-1-5-1-2 0-4 0-5 1-1 1-2 3-2 5z m41-1l13 0 0 14-13 0z m0 26l13 0 0 14-13 0z m55-15c3 2 6 3 8 5 1 2 3 5 3 9 0 5-2 9-6 12-4 3-10 4-18 4-3 0-6 0-8 0-3-1-6-2-8-2l0-11c2 1 5 2 8 3 2 1 5 1 7 1 4 0 6-1 8-2 2-1 3-3 3-5 0-3-1-5-3-6-1-1-4-2-8-2l-6 0 0-8 6 0c3 0 6-1 8-2 1-1 2-3 2-5 0-2-1-3-2-5-2-1-4-1-7-1-3 0-5 0-7 0-2 1-4 1-7 3l0-10c3-1 6-2 8-2 3-1 6-1 8-1 7 0 12 1 16 3 3 3 5 6 5 11 0 3-1 5-3 7-2 2-4 4-7 4z m24-24l34 0 0 10-23 0 0 8c1-1 2-1 4-1 1 0 2 0 3 0 7 0 11 1 15 5 4 3 6 7 6 13 0 6-2 10-6 14-4 3-10 5-17 5-3 0-5-1-8-1-3-1-6-2-9-3l0-10c3 1 5 3 8 3 2 1 5 1 7 1 4 0 6 0 8-2 2-2 3-4 3-7 0-3-1-5-3-6-2-2-4-3-8-3-2 0-4 0-6 1-2 0-5 1-7 2l0-29z m-220 203l33 0 0 14-54 0 0-14 27-23c2-3 4-5 5-7 1-2 2-4 2-6 0-3-1-6-3-8-3-2-6-3-10-3-3 0-6 0-9 1-4 2-8 3-11 6l0-16c4-2 8-3 12-4 4 0 8-1 12-1 9 0 16 2 21 6 4 4 7 9 7 16 0 5-1 8-3 12-2 3-6 8-13 14z m53 1l17 0 0-47-17 3 0-12 17-4 18 0 0 60 16 0 0 13-51 0z m129 0l17 0 0-47-17 3 0-12 17-4 18 0 0 60 16 0 0 13-51 0z m79-26c-4-1-7-3-9-6-3-3-4-6-4-10 0-7 2-12 7-14 5-4 12-5 20-5 9 0 16 1 21 5 4 3 7 8 7 14 0 4-1 7-4 10-2 3-5 5-10 6 5 2 9 4 12 7 2 3 4 7 4 12 0 7-3 12-8 16-5 4-12 6-21 6-10 0-17-2-22-6-4-4-7-9-7-16 0-5 1-9 4-12 2-3 6-5 10-7z m14 6c-4 0-6 1-8 3-2 2-3 5-3 8 0 4 1 7 3 9 2 1 4 2 8 2 3 0 6-1 8-2 2-2 3-5 3-9 0-3-1-6-3-8-2-2-4-3-8-3z m-9-21c0 3 1 6 2 7 2 1 4 2 7 2 3 0 6-1 7-2 2-1 3-4 3-7 0-3-1-5-3-6-1-2-4-2-7-2-3 0-5 0-7 2-1 1-2 3-2 6z"></path></symbol>

<symbol id="icon-draft"><path fill="currentColor" d="M344.55,88.9a2.68,2.68,0,0,0,2.39,2.88,4.1,4.1,0,0,1,3.36,2.81l9.07,26.31a4.47,4.47,0,0,0,3.92,2.8h8.54a2,2,0,0,0,2-2.8l-4.7-13.64c-.53-1.54-.12-3,.92-3.2s1.62-1.67,1.29-3.22a2.63,2.63,0,0,0-2.83-2.34c-1.24.26-2.68-.78-3.21-2.32l-.54-1.59c-.54-1.55.19-2.81,1.63-2.81A2.76,2.76,0,0,0,369,88.9,2.93,2.93,0,0,0,366,86H347.51A2.93,2.93,0,0,0,344.55,88.9ZM334.2,53.53V75a7.42,7.42,0,0,0,7.37,7.43h33.15c24.49,5.19,41.84,14,48.5,19.06v0l.3.68,0,.06c.1.22.2.43.31.63l0,0c.11.19.21.37.32.53l0,0c.11.15.2.3.31.43l0,0c.1.12.2.22.3.32l.06,0a1.44,1.44,0,0,0,.28.21l.08.06a1.42,1.42,0,0,0,.28.13l.08,0a1.64,1.64,0,0,0,.37,0c3.26,0,6-12.81,6.79-30.18a13,13,0,0,0,0-20.76C432,36.51,429.28,23.7,426,23.7a1.25,1.25,0,0,0-.37.06l-.08,0-.28.13-.08.06a1.93,1.93,0,0,0-.28.21l-.06.06a3,3,0,0,0-.3.31l0,0-.31.43,0,0c-.11.17-.21.35-.32.55,0,0,0,0,0,0a6.52,6.52,0,0,0-.33.64s0,0,0,0c-.11.22-.2.47-.31.72h0c-6.66,5-24,13.87-48.5,19.06H341.58A7.42,7.42,0,0,0,334.2,53.53Z" transform="translate(-334.2 -23.7)"></path><path d="M423.42,64.27c0-14.49,1.27-25,2.6-31,.1.42.18.86.28,1.32l.06.33c.07.35.14.7.19,1.06,0,.17.07.37.1.55s.11.63.16,1,.07.45.11.68.09.63.13,1,.08.5.11.75.1.67.13,1,.07.53.11.81.09.74.13,1.12.06.53.1.81c0,.52.11,1,.15,1.58,0,.31.06.64.09,1,0,.53.1,1.05.14,1.59,0,.29,0,.6.07.9s.07.91.1,1.37,0,.67.07,1,0,.49,0,.73a12.55,12.55,0,0,0-3.11-.4V77.21a12.55,12.55,0,0,0,3.11-.4c0,.24,0,.49,0,.73s0,.69-.07,1-.06.91-.1,1.35,0,.62-.07.92c0,.52-.09,1-.13,1.53s-.07.73-.11,1.1-.1,1-.14,1.49c0,.28-.07.56-.1.85s-.09.72-.13,1.07-.08.56-.11.84-.09.66-.13,1-.07.53-.11.78-.09.63-.13.94-.08.47-.11.69-.11.63-.15.93-.07.39-.11.57c-.06.36-.13.7-.19,1,0,.13,0,.24-.07.36-.09.46-.17.89-.27,1.31C424.69,89.26,423.42,78.77,423.42,64.27Zm-42.33-13c18.24-4.39,31-10.29,37.74-14a189,189,0,0,0-1.76,27,188.84,188.84,0,0,0,1.76,27c-6.78-3.67-19.5-9.56-37.74-13.94Z" transform="translate(-334.2 -23.7)"></path></symbol>

<symbol id="icon-bbid"><path d="M552.83,45.68a2.56,2.56,0,1,1,0,5.13H529.67a2.56,2.56,0,1,1,0-5.13Z" transform="translate(-502.2 -22.59)"></path><path fill="currentColor" d="M549.77,95.71a5.27,5.27,0,0,1-1.17,6.46c-1.26,1-4.07,1.35-4.07,1.35a.89.89,0,0,1-1-.91V92.42a.61.61,0,0,1,.93-.6l1.64.76A8.43,8.43,0,0,1,549.77,95.71Zm-21.35-53h26.13c3.89-13.14,13.71-11.51,6.38-15.17-1.84-.92-6.34-2.83-7.74-1.45s-3,8.74-7,9c.3-2.26,4.47-8.6,2.94-10.93-1-1.47-6.26-1.59-7.67-1.56s-6.7.08-7.67,1.56c-1.53,2.33,2.64,8.67,2.94,10.93-3.94-.26-5.58-7.63-7-9s-6.18-.31-7.74,1.45C516.58,33.64,524.52,29.56,528.42,42.7ZM536.95,71a10.27,10.27,0,0,0-3.57,1.69,5.37,5.37,0,0,0-.72,6.51c1,1.68,2.39,2.28,4.21,3.12l.14.06a.62.62,0,0,0,.94-.61v-10A.76.76,0,0,0,536.95,71Z" transform="translate(-502.2 -22.59)"></path><path fill="currentColor" d="M554.74,53.53H527.89c-4,8.62-25.88,19.32-25.69,44.59.16,21,15.84,24.46,39,24.46h.13c23.21,0,38.89-3.46,39-24.46C580.62,72.85,558.78,62.15,554.74,53.53Zm-2,51.94c-2.09,1.85-8.22,2.9-8.22,2.9a1.26,1.26,0,0,0-1,1.2v1.87a1,1,0,0,1-1,1H539a1,1,0,0,1-1-1v-2.12a1.45,1.45,0,0,0-1-1.31s-8.57-2.48-10.6-5.74c-1.33-2.12,3-5.81,4.49-3.4a3.46,3.46,0,0,0,.27.38c.14.17-.2-.18.2.23.16.16.32.32.49.47a14.5,14.5,0,0,0,4.17,2.46c.58.2,1,.3,1,.3a.75.75,0,0,0,1-.76V89.83a1.76,1.76,0,0,0-.93-1.46s-4.67-2.18-5.47-2.61a9.65,9.65,0,0,1-4-4.29,10.19,10.19,0,0,1,2.33-11.77c2.12-2,7.12-3.5,7.12-3.5a1.45,1.45,0,0,0,1-1.31V62.66a1,1,0,0,1,1-1h3.53a1,1,0,0,1,1,1v2.1a1.23,1.23,0,0,0,1,1.18,18.64,18.64,0,0,1,2,.41c2.87.79,6.6,3,8.16,5.48,1.33,2.12-3,5.81-4.49,3.4a3.8,3.8,0,0,0-.27-.38c-.14-.17.2.18-.2-.23-.16-.16-.32-.32-.49-.47a15.6,15.6,0,0,0-4.22-2.7l-.46-.16a.75.75,0,0,0-1,.77V84.23a1.64,1.64,0,0,0,1,1.41s10,4,11.51,8.35A10.75,10.75,0,0,1,552.74,105.47Z" transform="translate(-502.2 -22.59)"></path></symbol>

<symbol id="icon-bbid-v2"><path fill="currentColor" d="M249.42,438c2.94,9.59-4.62,19.62-20.35,24.86-20.38,6.79-46.75,3-58.89-8.51-5.45-5.16-7.1-11-5.42-16.47a19.3,19.3,0,0,0,5.42,8.26c12.14,11.5,38.51,15.31,58.89,8.51C240.3,450.88,247.37,444.69,249.42,438Zm-14.48,3.74c-20.38,6.79-46.76,3-58.89-8.51a18.49,18.49,0,0,1-5.77-9.6,31.62,31.62,0,0,1-3.59-2.75c-4.2,6.56-3.34,14.09,3.5,20.57,12.14,11.5,38.51,15.31,58.89,8.51,10.86-3.62,17.83-9.53,20.14-16A41,41,0,0,1,234.94,441.71Zm14.93-37.81c-.56-.53-1.15-1-1.78-1.54a20,20,0,0,1-2.35,3.35h0c1.56,9-6,18.17-20.76,23.09-17,5.66-38.08,4-51.68-3.4a23.59,23.59,0,0,0,2.76,3.1c12.14,11.49,38.51,15.31,58.89,8.51S262,415.39,249.87,403.9Zm-20.79,12c-20.38,6.79-46.75,3-58.89-8.51-4.87-4.61-6.71-9.76-5.85-14.71-6.08,7.06-5.94,15.66,1.74,22.93,12.14,11.5,38.51,15.31,58.89,8.51,12.2-4.07,19.49-11,20.77-18.41C242.2,409.81,236.57,413.4,229.07,415.9Z" transform="translate(-160.02 -366.2)"></path><path d="M185.11,369.57c20.38-6.79,46.75-3,58.89,8.51s5.46,26.33-14.93,33.12-46.75,3-58.89-8.51-5.46-26.33,14.93-33.12Z" transform="translate(-160.02 -366.2)"></path><path fill="currentColor" d="M212.09,399.66q-5.89,2-8.35-.61L197,401.29l.74.7q2.5,2.36,8.2,2.56a27.37,27.37,0,0,0,9.5-1.32l1.25-.42,3.49,3.31,5.3-1.77-3.49-3.3q5-2,7.09-4.86,2.31-3.26-.65-6.07T219.19,387a75.18,75.18,0,0,0-11.29.72l-6.75-6.39a14.27,14.27,0,0,1,4.43-.93,5,5,0,0,1,3.53,1.67l6.75-2.25-.66-.63c-1.61-1.53-4.35-2.35-8.19-2.47a32.9,32.9,0,0,0-9.53,1.13l-3.41-3.23-5.3,1.77,3.41,3.23q-12.74,5-7,10.44,2.85,2.7,9.21,2.93a69.36,69.36,0,0,0,11.1-.81l7.57,7.17-.92.31Z" transform="translate(-160.02 -366.2)"></path><path d="M211.88,391.49a47.26,47.26,0,0,1,5.48-.43,6.64,6.64,0,0,1,4.5,1.49q2.69,2.55-3.55,5l-6.44-6.09Zm-16-8.39,5.93,5.62c-3.17.36-5,.52-5.41.5a6.34,6.34,0,0,1-4.53-1.43q-2.61-2.48,4-4.68Z" transform="translate(-160.02 -366.2)"></path></symbol>



<symbol id="icon-kdl-logo">
  <path fill="#003664" d="m59.33,8.81c-3.09,1.81-6.6,2.3-10.45,2.3s-7.47-1.03-10.55-2.84c-3.37-1.96-6.11-4.83-7.85-8.27-1.71,3.42-4.4,6.29-7.71,8.27-3.13,1.89-6.82,2.97-10.77,2.97s-7.71-.47-10.85-2.36l-.95-.61-.2,51.71c0,.24.05,1.12.13,2,.08.88.17,1.75.25,1.98.33.95,1.03,1.82,1.78,2.49.16.14.31.28.47.4.07.05.13.11.2.15h.01c1.11.86,2.34,1.36,5.05,2.37,1.92.61,3.6.98,4.5,1.21.81.21,3.15.8,4.25,1.01,5.09.93,9,2.74,12.07,6.7.56.7,1.08,1.48,1.57,2.32.38-.67.77-1.27,1.17-1.82,2.72-3.82,5.86-5.13,10.62-6.4,1.54-.41,3.13-.9,4.6-1.2,4.24-.88,2.02-.51,5.78-1.28,2.06-.65,3.83-1.32,5.23-2.37.13-.08.25-.18.37-.28.64-.53,1.19-1.15,1.66-1.9.11-.16.18-.35.21-.54l.15-.74V8.27l-.74.54Zm-6.82,6.83l1.29-2.61,1.29,2.61,2.87.42-2.08,2.03.49,2.86-2.57-1.35-2.57,1.35.49-2.87-2.08-2.03,2.87-.41Zm-10.18-.02l1.29-2.6,1.28,2.6,2.88.42-2.09,2.03.49,2.86-2.57-1.35-2.57,1.35.49-2.86-2.08-2.03,2.88-.42Zm0,9.3l1.29-2.6,1.28,2.61,2.88.42-2.09,2.02.49,2.87-2.57-1.36-2.57,1.35.49-2.86-2.08-2.03,2.88-.42ZM15.7,15.64l1.29-2.61,1.29,2.61,2.87.42-2.08,2.03.49,2.86-2.57-1.35-2.57,1.35.49-2.87-2.08-2.03,2.87-.41Zm-.2,8.9l1.29-2.61,1.28,2.61,2.88.42-2.08,2.02.49,2.87-2.57-1.35-2.58,1.35.5-2.87-2.08-2.03,2.87-.41ZM5.18,15.48l1.28-2.6,1.29,2.6,2.87.42-2.08,2.03.49,2.86-2.57-1.35-2.57,1.35.49-2.86-2.08-2.03,2.88-.42Zm-2.94,9.66l2.88-.42,1.28-2.6,1.29,2.6,2.87.42-2.08,2.03.49,2.86-2.57-1.35-2.57,1.35.49-2.86-2.08-2.03Zm55.81,35.3l-.14,1.83-.47,2.09-.94,1.22-1.62,1.08-2.7,1.01-5.46,1.48-4.65.94-4.25,1.29-4.92,2.42-1.35,1.15-1.21,1.55-1.62-1.82-1.82-1.48-3.44-1.89-2.63-.95-2.49-.74s-5.41-1.26-6.76-1.59c.1.02.16.03.2.03-.29-.08-2.61-.66-2.61-.66,0,0-.61-.14-3.17-1.42-2.56-1.28-.84-.45-1.68-1.08-1.28-.94-1.69-3.5-1.69-3.5v-29.19h55.42v28.23Zm-1.84-33.27l.49,2.86-2.57-1.35-2.57,1.35.49-2.86-2.08-2.03,2.88-.42,1.28-2.6,1.29,2.6,2.87.42-2.08,2.03Z"></path>
    <path fill="none" d="m58.12,32.31v28.23l-.14,1.83-.47,2.09-.94,1.22-1.62,1.08-2.7,1.01-5.46,1.48-4.65.94-4.25,1.29-4.92,2.42-1.35,1.15-1.21,1.55-1.62-1.82-1.82-1.48-3.44-1.89-2.63-.95-2.49-.74s-5.41-1.26-6.76-1.59c.1.02.16.03.2.03-.29-.08-2.61-.66-2.61-.66,0,0-.61-.14-3.17-1.42-2.56-1.28-.84-.45-1.68-1.08-1.28-.94-1.69-3.5-1.69-3.5v-29.19h55.42Z"></path>
    <path fill="#FFFFFF" d="m24.14,29.27c2.01,1.18,4.88-.27,7.01-1.35,2.11-1.07,3.36-2.38,3.78-2.83.23-.26,1.23-1.38,2.09-3.17.49-1.01,1.47-3.06,1.42-5.73-.03-1.44-.1-4.92-2.43-6.34-2.04-1.24-4.61-.17-6.34.54-.81.34-4.38,1.92-6.34,5.93-1,2.06-1.14,3.86-1.21,4.99-.13,2.02-.43,6.52,2.02,7.96Z"></path>
    <path stroke="#003664" d="m23.73,29.14c0-1.98,1.67-7.44,2.56-8.49"></path>
    <line stroke="#003664" x1="25.89" y1="18.62" x2="28.59" y2="20.51"></line>
    <path stroke="#003664" d="m33.24,12.47c.63-.54,1.8-1.81,2.43-2.35"></path>
    <line stroke="#003664" x1="27.28" y1="16.94" x2="29.98" y2="18.83"></line>
    <line stroke="#003664" x1="28.34" y1="15.4" x2="31.04" y2="17.29"></line>
    <line stroke="#003664" x1="29.69" y1="13.97" x2="32.39" y2="15.86"></line>
    <line stroke="#003664" x1="30.94" y1="12.38" x2="33.64" y2="14.27"></line>
    <g>
      <path fill="#cc2822" d="m4.31,59.21c.88-.07,1.07-.35,1.07-1.62,0-5.88,0-9.83,0-16.44,0-1.47-.17-1.84-1.06-2.04v-3.31h6.49v3.31c-.93.2-1.03.61-1.03,2.04v6.41c1.55-2.52,2.33-3.77,3.88-6.29.79-1.51,1.1-2.08,1.1-3.55v-1.92h5.63v3.31c-.82.2-1.2.45-1.99,1.71-1.88,3.02-2.82,4.53-4.7,7.55,2.03,3.64,2.96,5.36,5.12,10.41.84,1.93,1.58,3.33,2.32,3.83.03,2.11.05,3.29.08,4.65-2.22-.99-3.8-.99-6.19-1.82,0-.71.01-1.14.02-2.04.01-1.58-.22-2.72-.85-4.5-1.73-4.35-2.64-5.39-4.41-8.44,0,2.89-.02,4.11.03,7.32.03,1.63.15,2.12,1.01,2.46,0,1.61,0,2.45,0,3.78-2.21-.48-3.95-1.52-6.5-1.99v-2.83Z"></path>
      <path fill="#cc2822" d="m23.07,63.22c.87-.19,1.05-1.1,1.05-3.16v-18.9c0-1.47-.17-1.84-1.06-2.04v-3.31h8.48c4.94,0,8.15-.77,8.15,8.21v13.18c0,12.27-3.9,13.22-8.18,13.78-2.95.39-5.19-2.36-8.42-3.04,0-1.34,0-2.55-.01-4.72Zm7.61,3.34c3.06-.06,4.41-1.01,4.41-9.11v-13.61c0-4.3-1.61-4.3-4.3-4.2-.92.03-1.36,0-2.27,0v25.91c.87.72,1.29,1.02,2.16,1Z"></path>
      <path fill="#cc2822" d="m42.19,63.65c.95-.56,1.1-1.12,1.11-2.79.01-7.72,0-13.16-.01-19.74,0-1.46-.19-1.81-1.02-2.14-.05-1.23-.08-1.82-.06-3.18h6.59v3.31c-.96.2-1.13.61-1.13,2.04,0,7.24.1,12.05-.07,19.99,1.33-.62,2.08-.77,3.39-1.01,1.62-.33,1.94-.7,1.96-2.28.02-1.81.01-2.94.01-5.11,1.57-.15,2.35-.28,3.91-.27v9.58c-6.22,1.54-7.62,3.47-14.81,5.52-.06-1.35.02-2.23.13-3.9Z"></path>
    </g>

</symbol>


<symbol id="icon-kkl-logo">
    <g>
      <path fill="#003664" d="M59.33,8.81c-3.09,1.81-6.6,2.3-10.45,2.3c-3.86,0-7.47-1.03-10.55-2.84C34.96,6.31,32.22,3.44,30.48,0
		c-1.71,3.42-4.4,6.29-7.71,8.27c-3.13,1.89-6.82,2.97-10.77,2.97c-3.95,0-7.71-0.47-10.85-2.36L0.2,8.27L0,59.98
		c0,0.24,0.05,1.12,0.13,2c0.08,0.88,0.17,1.75,0.25,1.98c0.33,0.95,1.03,1.82,1.78,2.49c0.16,0.14,0.31,0.28,0.47,0.4
		C2.7,66.9,2.76,66.96,2.83,67h0.01c1.11,0.86,2.34,1.36,5.05,2.37c1.92,0.61,3.6,0.98,4.5,1.21c0.81,0.21,3.15,0.8,4.25,1.01
		c5.09,0.93,9,2.74,12.07,6.7c0.56,0.7,1.08,1.48,1.57,2.32c0.38-0.67,0.77-1.27,1.17-1.82c2.72-3.82,5.86-5.13,10.62-6.4
		c1.54-0.41,3.13-0.9,4.6-1.2c4.24-0.88,2.02-0.51,5.78-1.28c2.06-0.65,3.83-1.32,5.23-2.37c0.13-0.08,0.25-0.18,0.37-0.28
		c0.64-0.53,1.19-1.15,1.66-1.9c0.11-0.16,0.18-0.35,0.21-0.54l0.15-0.74V8.27L59.33,8.81z M52.51,15.64l1.29-2.61l1.29,2.61
		l2.87,0.42l-2.08,2.03l0.49,2.86L53.8,19.6l-2.57,1.35l0.49-2.87l-2.08-2.03L52.51,15.64z M42.33,15.62l1.29-2.6l1.28,2.6
		l2.88,0.42l-2.09,2.03l0.49,2.86l-2.57-1.35l-2.57,1.35l0.49-2.86l-2.08-2.03L42.33,15.62z M42.33,24.92l1.29-2.6l1.28,2.61
		l2.88,0.42l-2.09,2.02l0.49,2.87l-2.57-1.36l-2.57,1.35l0.49-2.86l-2.08-2.03L42.33,24.92z M15.7,15.64l1.29-2.61l1.29,2.61
		l2.87,0.42l-2.08,2.03l0.49,2.86l-2.57-1.35l-2.57,1.35l0.49-2.87l-2.08-2.03L15.7,15.64z M15.5,24.54l1.29-2.61l1.28,2.61
		l2.88,0.42l-2.08,2.02l0.49,2.87l-2.57-1.35l-2.58,1.35l0.5-2.87l-2.08-2.03L15.5,24.54z M5.18,15.48l1.28-2.6l1.29,2.6l2.87,0.42
		l-2.08,2.03l0.49,2.86l-2.57-1.35l-2.57,1.35l0.49-2.86L2.3,15.9L5.18,15.48z M2.24,25.14l2.88-0.42l1.28-2.6l1.29,2.6l2.87,0.42
		l-2.08,2.03l0.49,2.86L6.4,28.68l-2.57,1.35l0.49-2.86L2.24,25.14z M58.05,60.44l-0.14,1.83l-0.47,2.09l-0.94,1.22l-1.62,1.08
		l-2.7,1.01l-5.46,1.48l-4.65,0.94l-4.25,1.29L32.9,73.8l-1.35,1.15l-1.21,1.55l-1.62-1.82L26.9,73.2l-3.44-1.89l-2.63-0.95
		l-2.49-0.74c0,0-5.41-1.26-6.76-1.59c0.1,0.02,0.16,0.03,0.2,0.03c-0.29-0.08-2.61-0.66-2.61-0.66S8.56,67.26,6,65.98
		c-2.56-1.28-0.84-0.45-1.68-1.08c-1.28-0.94-1.69-3.5-1.69-3.5V32.21h55.42V60.44z M56.21,27.17l0.49,2.86l-2.57-1.35l-2.57,1.35
		l0.49-2.86l-2.08-2.03l2.88-0.42l1.28-2.6l1.29,2.6l2.87,0.42L56.21,27.17z"></path>
      <path fill="none" d="M58.12,32.31v28.23l-0.14,1.83l-0.47,2.09l-0.94,1.22l-1.62,1.08l-2.7,1.01l-5.46,1.48l-4.65,0.94l-4.25,1.29
		l-4.92,2.42l-1.35,1.15l-1.21,1.55l-1.62-1.82l-1.82-1.48l-3.44-1.89l-2.63-0.95l-2.49-0.74c0,0-5.41-1.26-6.76-1.59
		c0.1,0.02,0.16,0.03,0.2,0.03c-0.29-0.08-2.61-0.66-2.61-0.66s-0.61-0.14-3.17-1.42C3.51,64.8,5.23,65.63,4.39,65
		c-1.28-0.94-1.69-3.5-1.69-3.5V32.31H58.12z"></path>
      <path d="M15.91,70.03"></path>
      <path d="M9.11,70.04"></path>
      <path d="M12.48,70.4"></path>
      <path d="M47.73,70.73"></path>
      <path d="M9.04,69.45"></path>
      <path d="M49.08,70.4"></path>
      <path d="M15.91,70.03"></path>
      <path d="M58.12,60.54"></path>
      <path d="M11.88,68.17"></path>
      <path fill="#ffffff" d="M24.14,29.27c2.01,1.18,4.88-0.27,7.01-1.35c2.11-1.07,3.36-2.38,3.78-2.83c0.23-0.26,1.23-1.38,2.09-3.17
		c0.49-1.01,1.47-3.06,1.42-5.73c-0.03-1.44-0.1-4.92-2.43-6.34c-2.04-1.24-4.61-0.17-6.34,0.54c-0.81,0.34-4.38,1.92-6.34,5.93
		c-1,2.06-1.14,3.86-1.21,4.99C21.98,23.34,21.68,27.84,24.14,29.27z"></path>
      <path stroke="#003664" d="M23.73,29.14c0.01-1.98,1.67-7.44,2.56-8.49"></path>
      <line stroke="#003664" x1="25.89" y1="18.62" x2="28.59" y2="20.51"></line>
      <path d="M30.81,16.94"></path>
      <path d="M28.38,15.52"></path>
      <path d="M32.23,15.18"></path>
      <path d="M29.66,13.58"></path>
      <path d="M33.78,13.4"></path>
      <path d="M31.49,11.81"></path>
      <path d="M29.6,18.62"></path>
      <path d="M26.92,17.09"></path>
      <path stroke="#003664" d="M33.24,12.47c0.63-0.54,1.8-1.81,2.43-2.35"></path>
      <line stroke="#003664" x1="27.28" y1="16.94" x2="29.98" y2="18.83"></line>
      <line stroke="#003664" x1="28.34" y1="15.4" x2="31.04" y2="17.29"></line>
      <line stroke="#003664" x1="29.69" y1="13.97" x2="32.39" y2="15.86"></line>
      <line stroke="#003664" x1="30.94" y1="12.38" x2="33.64" y2="14.27"></line>
      <g>
        <g>
          <path fill="#cc2822" d="M4.52,59.78c0.88-0.17,1.05-0.43,1.05-1.71c0-5.95,0-10.18,0-17.05c0-1.53-0.17-1.91-1.05-2.12
				c0-1.37,0-2.06,0-3.43c2.56,0,3.84,0,6.4,0c0,1.37,0,2.06,0,3.43c-0.91,0.21-1.02,0.64-1.02,2.12c0,2.66,0,3.99,0,6.66
				c1.53-2.61,2.29-3.92,3.82-6.53c0.78-1.57,1.08-2.16,1.08-3.69c0-0.8,0-1.2,0-1.99c2.22,0,3.33,0,5.55,0c0,1.37,0,2.06,0,3.43
				c-0.81,0.21-1.18,0.47-1.96,1.78c-1.85,3.14-2.78,4.71-4.64,7.85c2,3.78,3.01,4.72,5.01,9.64c0.78,1.88,1.49,3.3,2.23,3.76
				c0,2.34,0,3.65,0,5.05c-2.34-1.09-3.51-0.77-5.86-1.77c0-0.74,0-1.18,0-2.08c0-1.57-0.24-2.7-0.88-4.32
				c-1.75-3.92-2.62-4.96-4.37-8.13c0,3,0,4.54,0,7.51c0,1.51,0.1,1.91,1.02,2.12c0,1.37,0,2.06,0,3.43
				c-2.56-0.01-3.84-1.01-6.4-1.01C4.52,61.36,4.52,60.86,4.52,59.78z"></path>
          <path fill="#cc2822" d="M23,62.37c0.88-0.29,1.05-1.37,1.05-3.71c0-10.85,0-10.77,0-17.64c0-1.53-0.17-1.91-1.05-2.12
				c0-1.37,0-2.06,0-3.43c2.56,0,3.84,0,6.4,0c0,1.37,0,2.06,0,3.43c-0.91,0.21-1.02,0.64-1.02,2.12c0,2.66,0,3.99,0,6.66
				c1.53-2.61,2.29-3.92,3.82-6.53c0.78-1.57,1.08-2.16,1.08-3.69c0-0.8,0-1.2,0-1.99c2.22,0,3.33,0,5.55,0c0,1.37,0,2.06,0,3.43
				c-0.81,0.21-1.18,0.47-1.96,1.78c-1.86,3.14-2.78,4.71-4.64,7.85c2,3.78,3.01,5.62,5.01,10.71c0.78,1.94,1.49,2.97,2.23,2.97
				c0,2.16,0,3.36,0,4.76c-2.34,1.09-3.51,0.56-5.86,2.22c0-0.72,0-1.32,0-2.63c0-2.28-0.24-3.93-0.88-6.52
				c-1.75-6.27-2.62-6.17-4.37-9.34c0,3,0,2.52,0,8.3c0,2.94,0.1,4.28,1.02,4.95c0,3.37,0,5.34,0,6.76
				c-2.56-0.81-3.84-2.46-6.4-2.98C23,66.29,23,64.88,23,62.37z"></path>
          <path fill="#cc2822" d="M41.48,61.6c0.88-0.55,1.05-1.24,1.05-3.16c0-8.88,0-10.56,0-17.43c0-1.53-0.17-1.91-1.05-2.12
				c0-1.37,0-2.06,0-3.43c2.6,0,3.9,0,6.5,0c0,1.37,0,2.06,0,3.43c-0.95,0.21-1.12,0.64-1.12,2.12c0,7.51,0,9.02,0,18.72
				c1.31-0.43,1.97-0.54,3.28-0.51c1.63-0.02,1.93-0.32,1.93-2.12c0-2.05,0-2.89,0-4.61c1.54,0.15,2.32,0.28,3.86,0.27
				c0,4.39,0,5.58,0,9.97c-5.78,0-8.67,1.31-14.45,3.35C41.48,64.72,41.48,63.62,41.48,61.6z"></path>
        </g>
      </g>
    </g>
  </symbol>


</defs>
</svg>